<svg width="1200" height="492" viewBox="0 0 1200 492" fill="none" xmlns="http://www.w3.org/2000/svg">
<g clip-path="url(#clip0_2_4073)">
<rect width="1200" height="492" fill="#EFEFEF"/>
<g opacity="0.45" filter="url(#filter0_f_2_4073)">
<circle cx="1591.5" cy="727.5" r="754.5" fill="#3ACA8E"/>
</g>
<path fill-rule="evenodd" clip-rule="evenodd" d="M986.037 414.98C1026.41 414.208 1062.33 390.504 1085.83 353.829C1120.64 331.52 1143.77 298.022 1146.69 260.15C1146.89 257.994 1147 255.82 1147 253.63L1147 253.325C1147 253.185 1147 253.045 1147 252.906L1147 252.453L1147 252L1147 251.491L1147 251.185C1147 250.777 1146.99 250.369 1146.98 249.963C1146.21 209.593 1122.5 173.673 1085.83 150.171C1062.33 113.496 1026.41 89.7924 986.037 89.0195C985.631 89.0065 985.223 89 984.815 89L984.509 89.0012L984 89C983.698 89 983.396 89.0013 983.094 89.0038C982.853 89.0013 982.612 89 982.37 89C980.18 89 978.006 89.1054 975.85 89.3132C937.978 92.2325 904.48 115.358 882.171 150.171C845.496 173.673 821.792 209.593 821.019 249.963C821.007 250.369 821 250.777 821 251.185L821.001 251.491L821 252C821 252.302 821.001 252.604 821.004 252.906C821.001 253.147 821 253.388 821 253.63C821 255.82 821.105 257.994 821.313 260.15C824.232 298.022 847.358 331.52 882.171 353.829C904.48 388.642 937.978 411.767 975.85 414.687C978.006 414.895 980.18 415 982.37 415L982.675 414.999C982.815 414.999 982.955 414.998 983.094 414.996L983.547 414.999L984 415L984.509 414.999L984.815 415C985.223 415 985.631 414.993 986.037 414.98ZM1007.36 410.295C1036.85 403.476 1062.92 383.977 1081.7 356.387C1073.28 361.443 1064.22 365.862 1054.64 369.553C1041.64 389.058 1025.43 403.355 1007.36 410.295ZM1139.74 284.517C1131.3 310.241 1113.08 332.891 1088.39 349.705C1092.66 342.585 1096.48 335.014 1099.78 327.058C1118.01 315.286 1131.89 300.749 1139.74 284.517ZM1084.36 352.359C1089.02 345.052 1093.18 337.223 1096.78 328.95C1088.36 334.112 1079.08 338.703 1069.09 342.624C1065.4 351.242 1061.19 359.278 1056.54 366.627C1066.45 362.628 1075.77 357.836 1084.36 352.359ZM1143.52 267.338C1138.96 288.885 1123.78 308.451 1101.13 323.729C1103.88 316.711 1106.25 309.408 1108.18 301.866C1125.46 292.123 1137.84 280.323 1143.52 267.338ZM1098.16 325.678C1101.12 318.493 1103.66 310.989 1105.74 303.216C1097.65 307.573 1088.56 311.493 1078.64 314.893C1076.29 323.675 1073.46 332.067 1070.2 339.989C1080.35 335.884 1089.73 331.076 1098.16 325.678ZM1144.95 252.224C1144.44 269.646 1131.32 286.045 1108.87 299.128C1112.47 284.208 1114.4 268.386 1114.4 252C1114.4 234.915 1112.3 218.445 1108.4 202.97C1128.56 214.611 1141.31 228.909 1144.29 244.231C1144.67 246.87 1144.89 249.535 1144.95 252.224ZM1112.36 252C1112.36 234.368 1110.11 217.427 1105.95 201.59C1103.52 200.254 1101 198.956 1098.38 197.698C1092.32 194.788 1085.77 192.107 1078.8 189.685C1083.88 208.883 1086.69 229.929 1086.69 252C1086.69 273.386 1084.05 293.81 1079.26 312.522C1086.06 310.143 1092.45 307.517 1098.38 304.672C1101.17 303.329 1103.86 301.941 1106.44 300.51C1110.28 285.221 1112.36 268.929 1112.36 252ZM1140.06 228.521C1133.42 217.976 1122.27 208.371 1107.68 200.223C1106.26 194.911 1104.63 189.721 1102.79 184.669C1120.52 196.994 1133.47 211.999 1140.06 228.521ZM1105.21 198.875C1103.67 193.341 1101.9 187.948 1099.9 182.712C1099.33 182.332 1098.75 181.955 1098.16 181.581C1090.16 176.459 1081.31 171.87 1071.75 167.907C1074.15 174.116 1076.29 180.596 1078.15 187.309C1088.05 190.675 1097.12 194.558 1105.21 198.875ZM1142.3 228.645C1135.36 210.574 1121.06 194.355 1101.55 181.363C1097.86 171.782 1093.44 162.723 1088.39 154.295C1115.98 173.079 1135.48 199.146 1142.3 228.645ZM1098.63 179.463C1094.63 169.551 1089.84 160.235 1084.36 151.641C1075.77 146.164 1066.45 141.372 1056.54 137.373C1061.89 145.821 1066.65 155.178 1070.72 165.282C1080.82 169.353 1090.18 174.114 1098.63 179.463ZM1007.36 93.7049C1036.85 100.524 1062.92 120.023 1081.7 147.613C1073.28 142.557 1064.22 138.138 1054.64 134.447C1041.64 114.942 1025.43 100.645 1007.36 93.7049ZM1007.48 95.9439C1024 102.528 1039.01 115.479 1051.33 133.21C1046.28 131.374 1041.09 129.739 1035.78 128.316C1027.63 113.732 1018.02 102.582 1007.48 95.9439ZM1037.13 130.786C1042.66 132.328 1048.05 134.104 1053.29 136.099C1053.67 136.674 1054.04 137.255 1054.42 137.84C1059.54 145.842 1064.13 154.692 1068.09 164.247C1061.88 161.849 1055.4 159.708 1048.69 157.849C1045.32 147.955 1041.44 138.877 1037.13 130.786ZM1049.47 160.183C1056.3 162.121 1062.87 164.352 1069.15 166.85C1071.65 173.131 1073.88 179.704 1075.82 186.529C1069.28 184.385 1062.39 182.463 1055.21 180.787C1053.54 173.609 1051.61 166.725 1049.47 160.183ZM1055.72 183C1062.97 184.721 1069.9 186.693 1076.47 188.893C1081.73 208.259 1084.65 229.585 1084.65 252C1084.65 273.726 1081.91 294.429 1076.95 313.316C1070.35 315.542 1063.38 317.538 1056.1 319.28C1060.08 301.021 1062.49 280.963 1062.97 259.855C1063.29 257.009 1063.46 254.116 1063.46 251.185C1063.46 248.097 1063.28 245.053 1062.91 242.061C1062.31 221.053 1059.79 201.118 1055.72 183ZM1060.27 229.491C1059.16 212.869 1056.85 197.068 1053.51 182.486C1035.51 178.372 1015.64 175.802 994.663 175.148C1025.97 178.896 1051.57 200.657 1060.27 229.491ZM1060.88 242.22C1056.34 205.296 1024.15 176.612 985.019 176.612C943.017 176.612 909.004 209.663 908.616 250.479C908.614 250.8 908.613 251.122 908.613 251.443C908.756 292.465 942.863 325.757 985.019 325.757C1024.3 325.757 1056.6 296.845 1060.93 259.708C1060.99 257.154 1061.02 254.584 1061.02 252C1061.02 248.716 1060.97 245.455 1060.88 242.22ZM1060.4 272.438C1051.83 301.491 1026.13 323.455 994.662 327.222C1015.79 326.563 1035.79 323.961 1053.9 319.795C1057.16 305.085 1059.39 289.166 1060.4 272.438ZM976.002 327.294C954.56 326.794 934.234 324.294 915.816 320.184C912.391 304.834 910.083 288.158 909.12 270.616C917.19 300.764 943.596 323.673 976.002 327.294ZM906.575 251.445C906.575 251.63 906.575 251.815 906.575 252C906.575 276.148 909.095 299.069 913.618 319.684C904.369 317.539 895.618 314.984 887.466 312.072C882.71 293.522 880.087 273.25 880.087 252C880.087 230.062 882.883 209.166 887.934 190.131C896.066 187.248 904.788 184.72 914.001 182.597C909.336 203.219 906.686 226.209 906.578 250.464C906.576 250.704 906.575 250.944 906.575 251.185C906.575 251.272 906.575 251.359 906.575 251.445ZM909.241 231.31C910.307 213.873 912.704 197.318 916.205 182.099C934.52 178.041 954.71 175.572 976.002 175.076C943.755 178.68 917.45 201.381 909.241 231.31ZM1055.61 321.49C1062.83 319.793 1069.75 317.847 1076.32 315.676C1073.87 324.575 1070.93 333.057 1067.56 341.036C1061.38 343.428 1054.94 345.563 1048.26 347.418C1051.07 339.305 1053.54 330.63 1055.61 321.49ZM1047.43 349.757C1053.99 347.981 1060.33 345.938 1066.43 343.648C1062.86 351.722 1058.84 359.257 1054.42 366.16C1054.04 366.745 1053.67 367.326 1053.29 367.901C1048.05 369.896 1042.66 371.672 1037.13 373.214C1040.91 366.116 1044.37 358.259 1047.43 349.757ZM1035.78 375.684C1041.09 374.261 1046.28 372.626 1051.33 370.79C1039.01 388.521 1024 401.472 1007.48 408.056C1018.02 401.418 1027.63 390.268 1035.78 375.684ZM1038.3 366.377C1037.04 368.998 1035.75 371.524 1034.41 373.949C1018.57 378.109 1001.63 380.362 984 380.362C967.071 380.362 950.779 378.285 935.49 374.437C934.059 371.863 932.671 369.175 931.328 366.377C928.989 361.505 926.798 356.318 924.77 350.849C943.129 355.434 963.105 357.95 984 357.95C1005.58 357.95 1026.18 355.266 1045.03 350.392C1042.95 356.029 1040.71 361.369 1038.3 366.377ZM984 382.4C967.614 382.4 951.792 380.466 936.872 376.867C949.955 399.32 966.354 412.445 983.776 412.947C986.465 412.89 989.13 412.669 991.769 412.288C1007.09 409.308 1021.39 396.562 1033.03 376.398C1017.56 380.297 1001.08 382.4 984 382.4ZM922.375 350.237C925.471 358.763 928.959 366.634 932.784 373.735C925.011 371.657 917.507 369.119 910.322 366.162C905.627 358.826 901.378 350.776 897.65 342.125C905.471 345.258 913.738 347.978 922.375 350.237ZM934.134 376.185C926.592 374.248 919.289 371.884 912.271 369.128C927.549 391.78 947.115 406.96 968.662 411.522C955.677 405.844 943.877 393.458 934.134 376.185ZM894.971 341.029C898.524 349.528 902.572 357.478 907.05 364.777C898.777 361.177 890.948 357.016 883.641 352.359C878.984 345.052 874.823 337.223 871.223 328.95C878.522 333.428 886.472 337.476 894.971 341.029ZM908.942 367.782C900.986 364.475 893.415 360.659 886.295 356.387C903.109 381.084 925.759 399.298 951.483 407.737C935.251 399.886 920.714 386.011 908.942 367.782ZM868.218 327.058C871.525 335.014 875.341 342.585 879.613 349.705C854.916 332.891 836.702 310.241 828.263 284.517C836.114 300.749 849.989 315.286 868.218 327.058ZM869.838 325.678C866.881 318.493 864.343 310.989 862.265 303.216C869.366 307.041 877.237 310.529 885.763 313.625C888.022 322.262 890.742 330.529 893.875 338.35C885.224 334.622 877.174 330.373 869.838 325.678ZM866.872 323.729C864.116 316.711 861.752 309.408 859.815 301.866C842.542 292.123 830.156 280.323 824.478 267.338C829.04 288.886 844.22 308.451 866.872 323.729ZM869.623 304.672C866.825 303.329 864.137 301.941 861.563 300.51C857.715 285.221 855.637 268.929 855.637 252C855.637 234.368 857.891 217.427 862.051 201.59C864.476 200.254 867.002 198.956 869.623 197.698C874.631 195.294 879.971 193.046 885.608 190.971C880.734 209.821 878.05 230.421 878.05 252C878.05 272.895 880.566 292.871 885.151 311.23C879.682 309.202 874.495 307.011 869.623 304.672ZM853.6 252C853.6 234.915 855.703 218.445 859.602 202.97C839.438 214.611 826.692 228.909 823.712 244.23C823.331 246.87 823.11 249.535 823.052 252.224C823.555 269.646 836.68 286.045 859.133 299.128C855.534 284.208 853.6 268.386 853.6 252ZM886.243 188.572C877.741 191.635 869.884 195.088 862.786 198.875C864.328 193.341 866.104 187.948 868.099 182.712C868.674 182.332 869.255 181.955 869.84 181.581C876.743 177.163 884.278 173.14 892.351 169.574C890.062 175.665 888.019 182.009 886.243 188.572ZM860.316 200.223C861.739 194.911 863.374 189.721 865.21 184.669C847.479 196.994 834.528 211.999 827.944 228.52C834.582 217.976 845.732 208.371 860.316 200.223ZM893.376 166.906C884.758 170.602 876.722 174.81 869.373 179.463C873.372 169.551 878.164 160.235 883.641 151.641C890.948 146.984 898.777 142.823 907.05 139.223C901.888 147.638 897.297 156.917 893.376 166.906ZM866.447 181.363C870.138 171.782 874.557 162.723 879.613 154.295C852.023 173.079 832.524 199.146 825.705 228.645C832.645 210.574 846.942 194.355 866.447 181.363ZM908.942 136.218C900.986 139.525 893.415 143.341 886.295 147.613C903.109 122.916 925.759 104.702 951.483 96.2629C935.251 104.114 920.714 117.989 908.942 136.218ZM910.322 137.838C917.507 134.881 925.011 132.343 932.784 130.265C928.427 138.354 924.507 147.443 921.106 157.359C912.325 159.712 903.933 162.542 896.011 165.8C900.116 155.65 904.924 146.272 910.322 137.838ZM912.271 134.872C919.289 132.116 926.592 129.752 934.134 127.815C943.877 110.542 955.677 98.1559 968.662 92.4777C947.114 97.0398 927.549 112.22 912.271 134.872ZM931.328 137.623C932.671 134.825 934.059 132.137 935.49 129.563C950.779 125.715 967.071 123.637 984 123.637C1001.63 123.637 1018.57 125.891 1034.41 130.051C1035.75 132.476 1037.04 135.002 1038.3 137.623C1041.21 143.684 1043.89 150.232 1046.31 157.205C1027.12 152.117 1006.07 149.31 984 149.31C962.614 149.31 942.19 151.946 923.478 156.738C925.857 149.94 928.483 143.549 931.328 137.623ZM984 121.6C1001.08 121.6 1017.56 123.703 1033.03 127.602C1021.39 107.438 1007.09 94.6922 991.77 91.7117C989.13 91.3314 986.464 91.1098 983.776 91.0525C966.354 91.5551 949.955 104.68 936.872 127.133C951.792 123.534 967.614 121.6 984 121.6ZM984 151.347C1006.41 151.347 1027.74 154.265 1047.11 159.527C1049.31 166.1 1051.28 173.034 1053 180.28C1032.05 175.574 1008.66 172.945 984 172.945C960.01 172.945 937.231 175.433 916.72 179.9C918.462 172.616 920.458 165.648 922.684 159.048C941.571 154.089 962.274 151.347 984 151.347ZM984 329.425C1008.82 329.425 1032.35 326.762 1053.4 321.999C1051.28 331.212 1048.75 339.934 1045.87 348.066C1026.83 353.117 1005.94 355.912 984 355.912C962.75 355.912 942.478 353.29 923.928 348.534C921.016 340.382 918.461 331.631 916.316 322.382C936.931 326.905 959.852 329.425 984 329.425ZM914.111 321.889C916.206 331.067 918.699 339.773 921.546 347.909C912.783 345.558 904.417 342.727 896.53 339.47C893.273 331.583 890.442 323.217 888.091 314.454C896.227 317.301 904.933 319.794 914.111 321.889ZM914.51 180.391C905.37 182.462 896.695 184.928 888.582 187.744C890.437 181.062 892.572 174.616 894.963 168.445C902.943 165.066 911.425 162.126 920.324 159.682C918.153 166.253 916.207 173.172 914.51 180.391Z" fill="url(#paint0_linear_2_4073)"/>
</g>
<defs>
<filter id="filter0_f_2_4073" x="573" y="-291" width="2037" height="2037" filterUnits="userSpaceOnUse" color-interpolation-filters="sRGB">
<feFlood flood-opacity="0" result="BackgroundImageFix"/>
<feBlend mode="normal" in="SourceGraphic" in2="BackgroundImageFix" result="shape"/>
<feGaussianBlur stdDeviation="132" result="effect1_foregroundBlur_2_4073"/>
</filter>
<linearGradient id="paint0_linear_2_4073" x1="857.675" y1="135.863" x2="1089.95" y2="410.925" gradientUnits="userSpaceOnUse">
<stop stop-color="white"/>
<stop offset="0.376612" stop-color="white"/>
<stop offset="1" stop-color="white" stop-opacity="0"/>
</linearGradient>
<clipPath id="clip0_2_4073">
<rect width="1200" height="492" fill="white"/>
</clipPath>
</defs>
</svg>
