<svg width="99" height="52" viewBox="0 0 99 52" fill="none" xmlns="http://www.w3.org/2000/svg">
<g clip-path="url(#clip0_29_546)">
<path d="M73.1922 51.6154C87.4454 51.6154 98.9999 40.0609 98.9999 25.8077C98.9999 11.5545 87.4454 0 73.1922 0C58.939 0 47.3845 11.5545 47.3845 25.8077C47.3845 40.0609 58.939 51.6154 73.1922 51.6154Z" fill="#3D9671"/>
<path d="M52.0384 51.6154C66.2916 51.6154 77.8461 40.0609 77.8461 25.8077C77.8461 11.5545 66.2916 0 52.0384 0C37.7852 0 26.2307 11.5545 26.2307 25.8077C26.2307 40.0609 37.7852 51.6154 52.0384 51.6154Z" fill="#91D78F" fill-opacity="0.8"/>
<path d="M9.94238 47.3847V41.0385H11.9732V41.2839H10.2216V43.3485H10.2978C10.8336 43.3485 11.3075 43.5488 11.7193 43.9493C12.1311 44.3498 12.337 44.8236 12.337 45.3708C12.337 45.9181 12.1255 46.3919 11.7024 46.7924C11.2793 47.1873 10.7857 47.3847 10.2216 47.3847H9.94238ZM10.2216 43.5855V47.1478H10.2893C10.7519 47.1478 11.1608 46.9729 11.5162 46.6232C11.8773 46.2678 12.0578 45.8504 12.0578 45.3708C12.0578 44.8857 11.8857 44.4683 11.5416 44.1185C11.1975 43.7632 10.7801 43.5855 10.2893 43.5855H10.2216ZM16.0481 41.2839H14.0511V44.7362H15.7181V44.9816H14.0511V47.1393H16.0481V47.3847H13.7719V41.0385H16.0481V41.2839ZM20.06 42.1978C20.06 42.6716 19.8343 43.0383 19.3831 43.2978C19.84 43.3993 20.2151 43.6559 20.5085 44.0678C20.8074 44.4739 20.9569 44.9167 20.9569 45.3962C20.9569 45.9716 20.7454 46.4652 20.3223 46.877C19.8992 47.2888 19.3888 47.4947 18.7908 47.4947C18.4297 47.4947 18.0941 47.4157 17.7839 47.2578C17.4792 47.0942 17.2395 46.8685 17.0646 46.5808V46.107C17.2169 46.4455 17.4454 46.7219 17.75 46.9362C18.0603 47.145 18.41 47.2493 18.7992 47.2493C19.3126 47.2493 19.7526 47.0659 20.1192 46.6993C20.4916 46.3327 20.6777 45.8927 20.6777 45.3793C20.6777 44.8604 20.4943 44.4119 20.1277 44.0339C19.7667 43.6559 19.3239 43.467 18.7992 43.467H18.4777V43.2301H18.7485C19.0362 43.2301 19.2788 43.1285 19.4762 42.9255C19.6792 42.7224 19.7808 42.4798 19.7808 42.1978C19.7808 41.9157 19.6792 41.6759 19.4762 41.4785C19.2788 41.2755 19.0503 41.1739 18.7908 41.1739C18.5313 41.1739 18.3057 41.2388 18.1139 41.3685C17.922 41.4983 17.7923 41.6675 17.7246 41.8762V41.4362C17.9785 41.0978 18.3028 40.9285 18.6977 40.9285C19.0926 40.9285 19.4169 41.0527 19.6708 41.3008C19.9303 41.549 20.06 41.8481 20.06 42.1978ZM25.4598 47.4862C24.5854 47.4862 23.8268 47.1562 23.1837 46.4962C22.5462 45.8362 22.2275 45.0662 22.2275 44.1862C22.2275 43.3006 22.5519 42.5362 23.2006 41.8932C23.8493 41.2444 24.6277 40.9201 25.536 40.9201C26.4442 40.9201 27.2198 41.2416 27.8629 41.8847C28.506 42.5278 28.8275 43.295 28.8275 44.1862C28.8275 45.0719 28.5088 45.8447 27.8714 46.5047C27.2339 47.159 26.4723 47.4862 25.5868 47.4862H25.4598ZM28.5483 44.2032C28.5483 43.3683 28.2521 42.6547 27.6598 42.0624C27.0731 41.4644 26.3623 41.1655 25.5275 41.1655C24.6983 41.1655 23.9875 41.4644 23.3952 42.0624C22.8029 42.6547 22.5068 43.3683 22.5068 44.2032C22.5068 45.0324 22.8029 45.7459 23.3952 46.3439C23.9875 46.9419 24.6983 47.2408 25.5275 47.2408C26.3568 47.2408 27.0675 46.9419 27.6598 46.3439C28.2521 45.7459 28.5483 45.0324 28.5483 44.2032ZM30.3919 41.0385H34.3857V47.3847H34.1065V41.2839H30.6711V47.3847H30.3919V41.0385ZM38.9048 40.8862L42.0779 47.3847H41.7817L40.5802 44.9647H37.1871L36.0025 47.3847H35.7402L38.9048 40.8862ZM38.8794 41.4701L37.2971 44.7193H40.4786L38.8794 41.4701ZM45.966 47.4778H45.873C45.292 47.4778 44.7504 47.3255 44.2483 47.0208C43.7463 46.7162 43.3486 46.3129 43.0553 45.8108C42.7676 45.3032 42.6237 44.7644 42.6237 44.1947C42.6237 43.2978 42.9481 42.5278 43.5968 41.8847C44.2455 41.2359 45.0212 40.9116 45.9237 40.9116C46.5274 40.9116 47.0999 41.0696 47.6414 41.3855V41.6985C47.1112 41.3375 46.5386 41.157 45.9237 41.157C45.0945 41.157 44.3837 41.4559 43.7914 42.0539C43.1991 42.6462 42.903 43.3598 42.903 44.1947C42.903 45.0239 43.1991 45.7375 43.7914 46.3355C44.3837 46.9334 45.0945 47.2324 45.9237 47.2324C46.5386 47.2324 47.1112 47.0519 47.6414 46.6908V47.0039C47.1281 47.3198 46.5697 47.4778 45.966 47.4778ZM53.7061 41.0385H53.9854V47.3847H53.7061V44.9647H49.3569V47.3847H49.0777V41.0385H49.3569V44.7193H53.7061V41.0385ZM58.787 47.4862C57.9126 47.4862 57.154 47.1562 56.5109 46.4962C55.8734 45.8362 55.5547 45.0662 55.5547 44.1862C55.5547 43.3006 55.8791 42.5362 56.5278 41.8932C57.1765 41.2444 57.9549 40.9201 58.8632 40.9201C59.7714 40.9201 60.547 41.2416 61.1901 41.8847C61.8332 42.5278 62.1547 43.295 62.1547 44.1862C62.1547 45.0719 61.836 45.8447 61.1986 46.5047C60.5611 47.159 59.7995 47.4862 58.914 47.4862H58.787ZM61.8755 44.2032C61.8755 43.3683 61.5793 42.6547 60.987 42.0624C60.4003 41.4644 59.6895 41.1655 58.8547 41.1655C58.0255 41.1655 57.3147 41.4644 56.7224 42.0624C56.1301 42.6547 55.834 43.3683 55.834 44.2032C55.834 45.0324 56.1301 45.7459 56.7224 46.3439C57.3147 46.9419 58.0255 47.2408 58.8547 47.2408C59.684 47.2408 60.3947 46.9419 60.987 46.3439C61.5793 45.7459 61.8755 45.0324 61.8755 44.2032ZM66.8499 47.4778H66.7568C66.1757 47.4778 65.6342 47.3255 65.1322 47.0208C64.6301 46.7162 64.2325 46.3129 63.9391 45.8108C63.6514 45.3032 63.5076 44.7644 63.5076 44.1947C63.5076 43.2978 63.8319 42.5278 64.4806 41.8847C65.1294 41.2359 65.905 40.9116 66.8076 40.9116C67.4111 40.9116 67.9837 41.0696 68.5253 41.3855V41.6985C67.995 41.3375 67.4225 41.157 66.8076 41.157C65.9783 41.157 65.2676 41.4559 64.6753 42.0539C64.0829 42.6462 63.7868 43.3598 63.7868 44.1947C63.7868 45.0239 64.0829 45.7375 64.6753 46.3355C65.2676 46.9334 65.9783 47.2324 66.8076 47.2324C67.4225 47.2324 67.995 47.0519 68.5253 46.6908V47.0039C68.0119 47.3198 67.4534 47.4778 66.8499 47.4778ZM72.7284 41.0385V41.2839H71.2814V47.3847H71.0022V41.2839H69.5384V41.0385H72.7284ZM74.0802 41.0385H74.3594V43.5178H74.4356C74.8981 43.5178 75.3325 43.7096 75.7386 44.0932C76.1448 44.4767 76.3479 44.9281 76.3479 45.447C76.3479 45.9659 76.1477 46.4201 75.7471 46.8093C75.3523 47.1929 74.8897 47.3847 74.3594 47.3847H74.0802V41.0385ZM74.4271 43.7632H74.3594V47.1393H74.4271C74.8502 47.1393 75.2281 46.9701 75.5609 46.6316C75.8994 46.2932 76.0686 45.8983 76.0686 45.447C76.0686 44.9957 75.9023 44.6036 75.5694 44.2708C75.2366 43.9324 74.8558 43.7632 74.4271 43.7632Z" fill="black"/>
<path d="M9.94242 47.3846H9.77319V47.5538H9.94242V47.3846ZM9.94242 41.0384V40.8692H9.77319V41.0384H9.94242ZM11.9732 41.0384H12.1424V40.8692H11.9732V41.0384ZM11.9732 41.2838V41.453H12.1424V41.2838H11.9732ZM10.2217 41.2838V41.1146H10.0524V41.2838H10.2217ZM10.2217 43.3484H10.0524V43.5176H10.2217V43.3484ZM11.7193 43.9492L11.8373 43.8278L11.7193 43.9492ZM11.7024 46.7923L11.8179 46.916L11.8188 46.9151L11.7024 46.7923ZM10.2217 43.5853V43.4161H10.0524V43.5853H10.2217ZM10.2217 47.1476H10.0524V47.3169H10.2217V47.1476ZM11.5163 46.623L11.635 46.7436L11.5163 46.623ZM11.5417 44.1184L11.4201 44.2361L11.421 44.2371L11.5417 44.1184ZM10.1117 47.3846V41.0384H9.77319V47.3846H10.1117ZM9.94242 41.2076H11.9732V40.8692H9.94242V41.2076ZM11.804 41.0384V41.2838H12.1424V41.0384H11.804ZM11.9732 41.1146H10.2217V41.453H11.9732V41.1146ZM10.0524 41.2838V43.3484H10.3909V41.2838H10.0524ZM10.2217 43.5176H10.2978V43.1792H10.2217V43.5176ZM10.2978 43.5176C10.7863 43.5176 11.2187 43.6983 11.6014 44.0705L11.8373 43.8278C11.3965 43.3991 10.8811 43.1792 10.2978 43.1792V43.5176ZM11.6014 44.0705C11.9822 44.4409 12.1678 44.8717 12.1678 45.3707H12.5063C12.5063 44.7754 12.2801 44.2584 11.8373 43.8278L11.6014 44.0705ZM12.1678 45.3707C12.1678 45.8682 11.9778 46.2985 11.5861 46.6694L11.8188 46.9151C12.2732 46.485 12.5063 45.9677 12.5063 45.3707H12.1678ZM11.5869 46.6685C11.1943 47.035 10.7417 47.2153 10.2217 47.2153V47.5538C10.8299 47.5538 11.3644 47.3393 11.8179 46.916L11.5869 46.6685ZM10.2217 47.2153H9.94242V47.5538H10.2217V47.2153ZM10.0524 43.5853V47.1476H10.3909V43.5853H10.0524ZM10.2217 47.3169H10.2893V46.9784H10.2217V47.3169ZM10.2893 47.3169C10.8 47.3169 11.2507 47.1218 11.635 46.7436L11.3976 46.5024C11.0711 46.8236 10.7038 46.9784 10.2893 46.9784V47.3169ZM11.635 46.7436C12.0263 46.3584 12.227 45.8983 12.227 45.3707H11.8886C11.8886 45.8021 11.7283 46.1768 11.3976 46.5024L11.635 46.7436ZM12.227 45.3707C12.227 44.8406 12.0372 44.3807 11.6623 43.9997L11.421 44.2371C11.7344 44.5556 11.8886 44.9305 11.8886 45.3707H12.227ZM11.6632 44.0007C11.2876 43.6127 10.8263 43.4161 10.2893 43.4161V43.7546C10.7339 43.7546 11.1076 43.9134 11.4201 44.2361L11.6632 44.0007ZM10.2893 43.4161H10.2217V43.7546H10.2893V43.4161ZM16.0481 41.2838V41.453H16.2173V41.2838H16.0481ZM14.0512 41.2838V41.1146H13.8819V41.2838H14.0512ZM14.0512 44.7361H13.8819V44.9053H14.0512V44.7361ZM15.7181 44.7361H15.8873V44.5669H15.7181V44.7361ZM15.7181 44.9815V45.1507H15.8873V44.9815H15.7181ZM14.0512 44.9815V44.8123H13.8819V44.9815H14.0512ZM14.0512 47.1392H13.8819V47.3084H14.0512V47.1392ZM16.0481 47.1392H16.2173V46.9699H16.0481V47.1392ZM16.0481 47.3846V47.5538H16.2173V47.3846H16.0481ZM13.7719 47.3846H13.6027V47.5538H13.7719V47.3846ZM13.7719 41.0384V40.8692H13.6027V41.0384H13.7719ZM16.0481 41.0384H16.2173V40.8692H16.0481V41.0384ZM16.0481 41.1146H14.0512V41.453H16.0481V41.1146ZM13.8819 41.2838V44.7361H14.2204V41.2838H13.8819ZM14.0512 44.9053H15.7181V44.5669H14.0512V44.9053ZM15.5489 44.7361V44.9815H15.8873V44.7361H15.5489ZM15.7181 44.8123H14.0512V45.1507H15.7181V44.8123ZM13.8819 44.9815V47.1392H14.2204V44.9815H13.8819ZM14.0512 47.3084H16.0481V46.9699H14.0512V47.3084ZM15.8789 47.1392V47.3846H16.2173V47.1392H15.8789ZM16.0481 47.2153H13.7719V47.5538H16.0481V47.2153ZM13.9412 47.3846V41.0384H13.6027V47.3846H13.9412ZM13.7719 41.2076H16.0481V40.8692H13.7719V41.2076ZM15.8789 41.0384V41.2838H16.2173V41.0384H15.8789ZM19.3831 43.2976L19.2988 43.1509L18.9208 43.3683L19.3464 43.4628L19.3831 43.2976ZM20.5085 44.0676L20.3707 44.1659L20.3722 44.168L20.5085 44.0676ZM20.3224 46.8769L20.2043 46.7556L20.3224 46.8769ZM17.7839 47.2576L17.7038 47.4067L17.7072 47.4084L17.7839 47.2576ZM17.0647 46.5807H16.8954V46.6281L16.9201 46.6686L17.0647 46.5807ZM17.0647 46.1069L17.219 46.0374L16.8954 46.1069H17.0647ZM17.7501 46.9361L17.6527 47.0745L17.6556 47.0765L17.7501 46.9361ZM20.1193 46.6992L20.0005 46.5786L19.9996 46.5795L20.1193 46.6992ZM20.1277 44.0338L20.0054 44.1507L20.0062 44.1517L20.1277 44.0338ZM18.4777 43.4669H18.3085V43.6361H18.4777V43.4669ZM18.4777 43.2299V43.0607H18.3085V43.2299H18.4777ZM19.4762 42.9253L19.3566 42.8057L19.3549 42.8074L19.4762 42.9253ZM19.4762 41.4784L19.3548 41.5964L19.3583 41.5997L19.4762 41.4784ZM18.1139 41.3684L18.2087 41.5086L18.1139 41.3684ZM17.7247 41.8761H17.5554L17.8856 41.9283L17.7247 41.8761ZM17.7247 41.4361L17.5893 41.3346L17.5554 41.3797V41.4361H17.7247ZM19.6708 41.3007L19.5525 41.4217L19.5538 41.423L19.6708 41.3007ZM19.8908 42.1976C19.8908 42.604 19.7038 42.9181 19.2988 43.1509L19.4675 43.4444C19.9649 43.1583 20.2293 42.739 20.2293 42.1976H19.8908ZM19.3464 43.4628C19.7591 43.5545 20.0995 43.7851 20.3707 44.1658L20.6464 43.9695C20.3308 43.5265 19.921 43.2438 19.4199 43.1325L19.3464 43.4628ZM20.3722 44.168C20.651 44.5466 20.7877 44.9547 20.7877 45.3961H21.1262C21.1262 44.8786 20.964 44.4009 20.6448 43.9673L20.3722 44.168ZM20.7877 45.3961C20.7877 45.9245 20.5956 46.3748 20.2043 46.7556L20.4404 46.9981C20.8952 46.5554 21.1262 46.0184 21.1262 45.3961H20.7877ZM20.2043 46.7556C19.8133 47.1362 19.3453 47.3253 18.7908 47.3253V47.6638C19.4322 47.6638 19.9853 47.4411 20.4404 46.9981L20.2043 46.7556ZM18.7908 47.3253C18.4555 47.3253 18.1462 47.2522 17.8606 47.1069L17.7072 47.4084C18.0421 47.5789 18.4041 47.6638 18.7908 47.6638V47.3253ZM17.8639 47.1085C17.5851 46.9589 17.368 46.754 17.2093 46.4928L16.9201 46.6686C17.111 46.9828 17.3733 47.2293 17.7039 47.4067L17.8639 47.1085ZM17.2339 46.5807V46.1069H16.8954V46.5807H17.2339ZM16.9103 46.1763C17.0752 46.5426 17.3233 46.8428 17.6527 47.0745L17.8474 46.7977C17.5675 46.6008 17.3588 46.3481 17.219 46.0374L16.9103 46.1763ZM17.6556 47.0765C17.9949 47.3049 18.3778 47.4184 18.7993 47.4184V47.0799C18.4422 47.0799 18.1257 46.9848 17.8445 46.7957L17.6556 47.0765ZM18.7993 47.4184C19.358 47.4184 19.8409 47.2169 20.2389 46.8188L19.9996 46.5795C19.6643 46.9148 19.2672 47.0799 18.7993 47.0799V47.4184ZM20.238 46.8198C20.642 46.4219 20.847 45.9387 20.847 45.3792H20.5085C20.5085 45.8463 20.3412 46.2431 20.0005 46.5786L20.238 46.8198ZM20.847 45.3792C20.847 44.8155 20.646 44.325 20.2492 43.9159L20.0062 44.1517C20.3428 44.4985 20.5085 44.9049 20.5085 45.3792H20.847ZM20.2501 43.9169C19.857 43.5054 19.3699 43.2976 18.7993 43.2976V43.6361C19.2779 43.6361 19.6764 43.8063 20.0054 44.1506L20.2501 43.9169ZM18.7993 43.2976H18.4777V43.6361H18.7993V43.2976ZM18.647 43.4669V43.2299H18.3085V43.4669H18.647ZM18.4777 43.3992H18.7485V43.0607H18.4777V43.3992ZM18.7485 43.3992C19.0811 43.3992 19.3676 43.2797 19.5975 43.0433L19.3549 42.8074C19.1899 42.9771 18.9913 43.0607 18.7485 43.0607V43.3992ZM19.5959 43.045C19.83 42.8108 19.9501 42.5255 19.9501 42.1976H19.6116C19.6116 42.4339 19.5285 42.6337 19.3566 42.8057L19.5959 43.045ZM19.9501 42.1976C19.9501 41.8697 19.8299 41.5862 19.5942 41.3571L19.3583 41.5997C19.5287 41.7655 19.6116 41.9615 19.6116 42.1976H19.9501ZM19.5975 41.3605C19.3715 41.1279 19.1004 41.0046 18.7908 41.0046V41.343C19.0002 41.343 19.1861 41.4227 19.3549 41.5964L19.5975 41.3605ZM18.7908 41.0046C18.5018 41.0046 18.2422 41.0773 18.019 41.2282L18.2087 41.5086C18.3692 41.4001 18.5609 41.343 18.7908 41.343V41.0046ZM18.019 41.2282C17.7979 41.3779 17.6437 41.5772 17.5636 41.8239L17.8856 41.9283C17.941 41.7576 18.0463 41.6184 18.2087 41.5086L18.019 41.2282ZM17.8939 41.8761V41.4361H17.5554V41.8761H17.8939ZM17.8601 41.5376C18.0846 41.2383 18.3604 41.0976 18.6977 41.0976V40.7592C18.2453 40.7592 17.8724 40.957 17.5893 41.3346L17.8601 41.5376ZM18.6977 41.0976C19.0538 41.0976 19.334 41.2081 19.5525 41.4217L19.7891 41.1797C19.5 40.897 19.1314 40.7592 18.6977 40.7592V41.0976ZM19.5538 41.423C19.781 41.6403 19.8908 41.8955 19.8908 42.1976H20.2293C20.2293 41.8004 20.0797 41.4576 19.7878 41.1784L19.5538 41.423ZM23.1837 46.4961L23.062 46.6136L23.0625 46.6142L23.1837 46.4961ZM23.2006 41.893L23.3198 42.0132L23.3203 42.0127L23.2006 41.893ZM27.8629 41.8846L27.7432 42.0042L27.8629 41.8846ZM27.8714 46.5046L27.9926 46.6227L27.9931 46.6221L27.8714 46.5046ZM27.6599 42.0623L27.539 42.1808L27.5401 42.1819L27.6599 42.0623ZM23.3953 42.0623L23.5149 42.1819L23.5154 42.1813L23.3953 42.0623ZM23.3953 46.3438L23.275 46.4628L23.3953 46.3438ZM27.6599 46.3438L27.78 46.4628L27.6599 46.3438ZM25.4599 47.3169C24.6338 47.3169 23.918 47.0073 23.3049 46.378L23.0625 46.6142C23.7355 47.3049 24.5371 47.6553 25.4599 47.6553V47.3169ZM23.3054 46.3786C22.697 45.7486 22.3968 45.0202 22.3968 44.1861H22.0583C22.0583 45.112 22.3954 45.9236 23.062 46.6136L23.3054 46.3786ZM22.3968 44.1861C22.3968 43.3471 22.7019 42.6256 23.3198 42.0132L23.0814 41.7729C22.4018 42.4466 22.0583 43.2537 22.0583 44.1861H22.3968ZM23.3203 42.0127C23.9376 41.3953 24.6732 41.0892 25.536 41.0892V40.7507C24.5824 40.7507 23.761 41.0932 23.0809 41.7734L23.3203 42.0127ZM25.536 41.0892C26.3993 41.0892 27.1319 41.3929 27.7432 42.0042L27.9826 41.7649C27.3078 41.0901 26.4891 40.7507 25.536 40.7507V41.0892ZM27.7432 42.0042C28.3553 42.6163 28.6583 43.3407 28.6583 44.1861H28.9968C28.9968 43.2489 28.6566 42.439 27.9826 41.7649L27.7432 42.0042ZM28.6583 44.1861C28.6583 45.0262 28.3579 45.7573 27.7496 46.387L27.9931 46.6221C28.6598 45.9318 28.9968 45.1173 28.9968 44.1861H28.6583ZM27.7502 46.3864C27.1435 47.0093 26.4252 47.3169 25.5868 47.3169V47.6553C26.5196 47.6553 27.3245 47.3086 27.9926 46.6227L27.7502 46.3864ZM25.5868 47.3169H25.4599V47.6553H25.5868V47.3169ZM28.7176 44.203C28.7176 43.3231 28.4034 42.5665 27.7795 41.9426L27.5401 42.1819C28.1009 42.7426 28.3791 43.4132 28.3791 44.203H28.7176ZM27.7806 41.9437C27.1623 41.3135 26.408 40.9961 25.5276 40.9961V41.3346C26.3168 41.3346 26.9841 41.6151 27.539 42.1808L27.7806 41.9437ZM25.5276 40.9961C24.6524 40.9961 23.8985 41.3137 23.275 41.9432L23.5154 42.1813C24.0765 41.615 24.7442 41.3346 25.5276 41.3346V40.9961ZM23.2755 41.9426C22.6517 42.5665 22.3376 43.3231 22.3376 44.203H22.676C22.676 43.4132 22.9542 42.7426 23.5149 42.1819L23.2755 41.9426ZM22.3376 44.203C22.3376 45.0776 22.6518 45.8338 23.275 46.4628L23.5154 46.2247C22.954 45.6579 22.676 44.9869 22.676 44.203H22.3376ZM23.275 46.4628C23.8985 47.0924 24.6524 47.4099 25.5276 47.4099V47.0715C24.7442 47.0715 24.0765 46.7911 23.5154 46.2247L23.275 46.4628ZM25.5276 47.4099C26.4027 47.4099 27.1565 47.0924 27.78 46.4628L27.5396 46.2247C26.9785 46.7911 26.3109 47.0715 25.5276 47.0715V47.4099ZM27.78 46.4628C28.4032 45.8338 28.7176 45.0776 28.7176 44.203H28.3791C28.3791 44.9869 28.1011 45.6579 27.5396 46.2247L27.78 46.4628ZM30.3919 41.0384V40.8692H30.2227V41.0384H30.3919ZM34.3858 41.0384H34.555V40.8692H34.3858V41.0384ZM34.3858 47.3846V47.5538H34.555V47.3846H34.3858ZM34.1065 47.3846H33.9373V47.5538H34.1065V47.3846ZM34.1065 41.2838H34.2758V41.1146H34.1065V41.2838ZM30.6712 41.2838V41.1146H30.5019V41.2838H30.6712ZM30.6712 47.3846V47.5538H30.8404V47.3846H30.6712ZM30.3919 47.3846H30.2227V47.5538H30.3919V47.3846ZM30.3919 41.2076H34.3858V40.8692H30.3919V41.2076ZM34.2165 41.0384V47.3846H34.555V41.0384H34.2165ZM34.3858 47.2153H34.1065V47.5538H34.3858V47.2153ZM34.2758 47.3846V41.2838H33.9373V47.3846H34.2758ZM34.1065 41.1146H30.6712V41.453H34.1065V41.1146ZM30.5019 41.2838V47.3846H30.8404V41.2838H30.5019ZM30.6712 47.2153H30.3919V47.5538H30.6712V47.2153ZM30.5612 47.3846V41.0384H30.2227V47.3846H30.5612ZM38.9048 40.8861L39.0569 40.8118L38.9046 40.5L38.7527 40.812L38.9048 40.8861ZM42.0779 47.3846V47.5538H42.3489L42.23 47.3103L42.0779 47.3846ZM41.7818 47.3846L41.6301 47.4598L41.6768 47.5538H41.7818V47.3846ZM40.5802 44.9646L40.7318 44.8893L40.6851 44.7953H40.5802V44.9646ZM37.1871 44.9646V44.7953H37.0815L37.0351 44.8902L37.1871 44.9646ZM36.0025 47.3846V47.5538H36.1081L36.1545 47.4589L36.0025 47.3846ZM35.7402 47.3846L35.5881 47.3104L35.4695 47.5538H35.7402V47.3846ZM38.8794 41.4699L39.0312 41.3952L38.8786 41.0851L38.7273 41.3958L38.8794 41.4699ZM37.2971 44.7192L37.145 44.6451L37.0265 44.8884H37.2971V44.7192ZM40.4787 44.7192V44.8884H40.7505L40.6305 44.6445L40.4787 44.7192ZM38.7528 40.9604L41.9259 47.4589L42.23 47.3103L39.0569 40.8118L38.7528 40.9604ZM42.0779 47.2153H41.7818V47.5538H42.0779V47.2153ZM41.9333 47.3093L40.7318 44.8893L40.4286 45.0398L41.6301 47.4598L41.9333 47.3093ZM40.5802 44.7953H37.1871V45.1338H40.5802V44.7953ZM37.0351 44.8902L35.8505 47.3102L36.1545 47.4589L37.3391 45.0389L37.0351 44.8902ZM36.0025 47.2153H35.7402V47.5538H36.0025V47.2153ZM35.8924 47.4587L39.057 40.9602L38.7527 40.812L35.5881 47.3104L35.8924 47.4587ZM38.7273 41.3958L37.145 44.6451L37.4493 44.7933L39.0316 41.5441L38.7273 41.3958ZM37.2971 44.8884H40.4787V44.5499H37.2971V44.8884ZM40.6305 44.6445L39.0312 41.3952L38.7276 41.5447L40.3268 44.7939L40.6305 44.6445ZM44.2484 47.0207L44.1606 47.1654L44.2484 47.0207ZM43.0553 45.8107L42.9081 45.8941L42.9093 45.8961L43.0553 45.8107ZM43.5968 41.8846L43.716 42.0047L43.7166 42.0042L43.5968 41.8846ZM47.6415 41.3853H47.8107V41.2881L47.7268 41.2391L47.6415 41.3853ZM47.6415 41.6984L47.5463 41.8383L47.8107 42.0183V41.6984H47.6415ZM43.7915 42.0538L43.9112 42.1734L43.9117 42.1728L43.7915 42.0538ZM43.7915 46.3353L43.9117 46.2163L43.7915 46.3353ZM47.6415 46.6907H47.8107V46.3708L47.5463 46.5508L47.6415 46.6907ZM47.6415 47.0038L47.7302 47.1479L47.8107 47.0984V47.0038H47.6415ZM45.9661 47.3084H45.873V47.6469H45.9661V47.3084ZM45.873 47.3084C45.3233 47.3084 44.8121 47.1647 44.3362 46.876L44.1606 47.1654C44.6888 47.4859 45.2607 47.6469 45.873 47.6469V47.3084ZM44.3362 46.876C43.858 46.5859 43.4804 46.2028 43.2014 45.7253L42.9093 45.8961C43.2169 46.4227 43.6348 46.8463 44.1606 47.1654L44.3362 46.876ZM43.2025 45.7273C42.9289 45.2444 42.793 44.7343 42.793 44.1946H42.4545C42.4545 44.7943 42.6063 45.3617 42.9081 45.8941L43.2025 45.7273ZM42.793 44.1946C42.793 43.3437 43.0987 42.6167 43.716 42.0047L43.4777 41.7644C42.7976 42.4385 42.4545 43.2516 42.4545 44.1946H42.793ZM43.7166 42.0042C44.3341 41.3867 45.067 41.0807 45.9238 41.0807V40.7423C44.9756 40.7423 44.1571 41.085 43.4772 41.7649L43.7166 42.0042ZM45.9238 41.0807C46.4963 41.0807 47.0395 41.2301 47.5563 41.5315L47.7268 41.2391C47.1604 40.9088 46.5586 40.7423 45.9238 40.7423V41.0807ZM47.4722 41.3853V41.6984H47.8107V41.3853H47.4722ZM47.7367 41.5585C47.1797 41.1793 46.5742 40.9876 45.9238 40.9876V41.3261C46.5032 41.3261 47.0428 41.4955 47.5463 41.8383L47.7367 41.5585ZM45.9238 40.9876C45.0487 40.9876 44.2948 41.3052 43.6712 41.9347L43.9117 42.1728C44.4728 41.6065 45.1405 41.3261 45.9238 41.3261V40.9876ZM43.6718 41.9341C43.0479 42.558 42.7338 43.3146 42.7338 44.1946H43.0722C43.0722 43.4048 43.3504 42.7342 43.9112 42.1734L43.6718 41.9341ZM42.7338 44.1946C42.7338 45.0691 43.0481 45.8254 43.6712 46.4544L43.9117 46.2163C43.3503 45.6494 43.0722 44.9784 43.0722 44.1946H42.7338ZM43.6712 46.4544C44.2948 47.0839 45.0487 47.4015 45.9238 47.4015V47.063C45.1405 47.063 44.4728 46.7826 43.9117 46.2163L43.6712 46.4544ZM45.9238 47.4015C46.5742 47.4015 47.1797 47.2098 47.7367 46.8306L47.5463 46.5508C47.0428 46.8936 46.5032 47.063 45.9238 47.063V47.4015ZM47.4722 46.6907V47.0038H47.8107V46.6907H47.4722ZM47.5528 46.8597C47.0662 47.1591 46.5384 47.3084 45.9661 47.3084V47.6469C46.6009 47.6469 47.1901 47.4803 47.7302 47.1479L47.5528 46.8597ZM53.7062 41.0384V40.8692H53.537V41.0384H53.7062ZM53.9854 41.0384H54.1546V40.8692H53.9854V41.0384ZM53.9854 47.3846V47.5538H54.1546V47.3846H53.9854ZM53.7062 47.3846H53.537V47.5538H53.7062V47.3846ZM53.7062 44.9646H53.8754V44.7953H53.7062V44.9646ZM49.3569 44.9646V44.7953H49.1877V44.9646H49.3569ZM49.3569 47.3846V47.5538H49.5262V47.3846H49.3569ZM49.0777 47.3846H48.9085V47.5538H49.0777V47.3846ZM49.0777 41.0384V40.8692H48.9085V41.0384H49.0777ZM49.3569 41.0384H49.5262V40.8692H49.3569V41.0384ZM49.3569 44.7192H49.1877V44.8884H49.3569V44.7192ZM53.7062 44.7192V44.8884H53.8754V44.7192H53.7062ZM53.7062 41.2076H53.9854V40.8692H53.7062V41.2076ZM53.8162 41.0384V47.3846H54.1546V41.0384H53.8162ZM53.9854 47.2153H53.7062V47.5538H53.9854V47.2153ZM53.8754 47.3846V44.9646H53.537V47.3846H53.8754ZM53.7062 44.7953H49.3569V45.1338H53.7062V44.7953ZM49.1877 44.9646V47.3846H49.5262V44.9646H49.1877ZM49.3569 47.2153H49.0777V47.5538H49.3569V47.2153ZM49.247 47.3846V41.0384H48.9085V47.3846H49.247ZM49.0777 41.2076H49.3569V40.8692H49.0777V41.2076ZM49.1877 41.0384V44.7192H49.5262V41.0384H49.1877ZM49.3569 44.8884H53.7062V44.5499H49.3569V44.8884ZM53.8754 44.7192V41.0384H53.537V44.7192H53.8754ZM56.5109 46.4961L56.3892 46.6136L56.3897 46.6142L56.5109 46.4961ZM56.5278 41.893L56.647 42.0132L56.6475 42.0127L56.5278 41.893ZM61.1902 41.8846L61.0704 42.0042L61.1902 41.8846ZM61.1986 46.5046L61.3198 46.6227L61.3203 46.6221L61.1986 46.5046ZM60.9871 42.0623L60.8663 42.1808L60.8674 42.1819L60.9871 42.0623ZM56.7225 42.0623L56.8421 42.1819L56.8427 42.1813L56.7225 42.0623ZM56.7225 46.3438L56.6022 46.4628L56.7225 46.3438ZM60.9871 46.3438L61.1073 46.4628L60.9871 46.3438ZM58.7871 47.3169C57.961 47.3169 57.2452 47.0073 56.6321 46.378L56.3897 46.6142C57.0627 47.3049 57.8644 47.6553 58.7871 47.6553V47.3169ZM56.6326 46.3786C56.0242 45.7486 55.724 45.0202 55.724 44.1861H55.3855C55.3855 45.112 55.7227 45.9236 56.3892 46.6136L56.6326 46.3786ZM55.724 44.1861C55.724 43.3471 56.0292 42.6256 56.647 42.0132L56.4087 41.7729C55.729 42.4466 55.3855 43.2537 55.3855 44.1861H55.724ZM56.6475 42.0127C57.2649 41.3953 58.0004 41.0892 58.8632 41.0892V40.7507C57.9096 40.7507 57.0883 41.0932 56.4081 41.7734L56.6475 42.0127ZM58.8632 41.0892C59.7265 41.0892 60.4591 41.3929 61.0704 42.0042L61.3098 41.7649C60.635 41.0901 59.8163 40.7507 58.8632 40.7507V41.0892ZM61.0704 42.0042C61.6825 42.6163 61.9855 43.3407 61.9855 44.1861H62.324C62.324 43.2489 61.9839 42.439 61.3098 41.7649L61.0704 42.0042ZM61.9855 44.1861C61.9855 45.0262 61.6851 45.7573 61.0769 46.387L61.3203 46.6221C61.987 45.9318 62.324 45.1173 62.324 44.1861H61.9855ZM61.0774 46.3864C60.4707 47.0093 59.7524 47.3169 58.914 47.3169V47.6553C59.8469 47.6553 60.6517 47.3086 61.3198 46.6227L61.0774 46.3864ZM58.914 47.3169H58.7871V47.6553H58.914V47.3169ZM62.0448 44.203C62.0448 43.3231 61.7307 42.5665 61.1067 41.9426L60.8674 42.1819C61.4281 42.7426 61.7063 43.4132 61.7063 44.203H62.0448ZM61.1078 41.9437C60.4895 41.3135 59.7352 40.9961 58.8548 40.9961V41.3346C59.644 41.3346 60.3113 41.6151 60.8663 42.1808L61.1078 41.9437ZM58.8548 40.9961C57.9796 40.9961 57.2258 41.3137 56.6022 41.9432L56.8427 42.1813C57.4037 41.615 58.0714 41.3346 58.8548 41.3346V40.9961ZM56.6027 41.9426C55.9789 42.5665 55.6648 43.3231 55.6648 44.203H56.0032C56.0032 43.4132 56.2815 42.7426 56.8421 42.1819L56.6027 41.9426ZM55.6648 44.203C55.6648 45.0776 55.979 45.8338 56.6022 46.4628L56.8427 46.2247C56.2812 45.6579 56.0032 44.9869 56.0032 44.203H55.6648ZM56.6022 46.4628C57.2258 47.0924 57.9796 47.4099 58.8548 47.4099V47.0715C58.0714 47.0715 57.4037 46.7911 56.8427 46.2247L56.6022 46.4628ZM58.8548 47.4099C59.7299 47.4099 60.4837 47.0924 61.1073 46.4628L60.8668 46.2247C60.3058 46.7911 59.6381 47.0715 58.8548 47.0715V47.4099ZM61.1073 46.4628C61.7304 45.8338 62.0448 45.0776 62.0448 44.203H61.7063C61.7063 44.9869 61.4283 45.6579 60.8668 46.2247L61.1073 46.4628ZM65.1322 47.0207L65.0445 47.1654L65.1322 47.0207ZM63.9391 45.8107L63.7919 45.8941L63.793 45.8961L63.9391 45.8107ZM64.4807 41.8846L64.5998 42.0047L64.6003 42.0042L64.4807 41.8846ZM68.5253 41.3853H68.6945V41.2881L68.6106 41.2391L68.5253 41.3853ZM68.5253 41.6984L68.43 41.8383L68.6945 42.0183V41.6984H68.5253ZM64.6753 42.0538L64.7949 42.1734L64.7955 42.1728L64.6753 42.0538ZM64.6753 46.3353L64.7955 46.2163L64.6753 46.3353ZM68.5253 46.6907H68.6945V46.3708L68.43 46.5508L68.5253 46.6907ZM68.5253 47.0038L68.614 47.1479L68.6945 47.0984V47.0038H68.5253ZM66.8499 47.3084H66.7568V47.6469H66.8499V47.3084ZM66.7568 47.3084C66.2071 47.3084 65.6959 47.1647 65.22 46.876L65.0445 47.1654C65.5726 47.4859 66.1445 47.6469 66.7568 47.6469V47.3084ZM65.22 46.876C64.7418 46.5859 64.3643 46.2028 64.0853 45.7253L63.793 45.8961C64.1007 46.4227 64.5186 46.8463 65.0445 47.1654L65.22 46.876ZM64.0864 45.7273C63.8127 45.2444 63.6768 44.7343 63.6768 44.1946H63.3384C63.3384 44.7943 63.4902 45.3617 63.7919 45.8941L64.0864 45.7273ZM63.6768 44.1946C63.6768 43.3437 63.9825 42.6167 64.5998 42.0047L64.3615 41.7644C63.6814 42.4385 63.3384 43.2516 63.3384 44.1946H63.6768ZM64.6003 42.0042C65.2179 41.3867 65.9507 41.0807 66.8076 41.0807V40.7423C65.8593 40.7423 65.0409 41.085 64.361 41.7649L64.6003 42.0042ZM66.8076 41.0807C67.38 41.0807 67.9233 41.2301 68.44 41.5315L68.6106 41.2391C68.0442 40.9088 67.4423 40.7423 66.8076 40.7423V41.0807ZM68.3561 41.3853V41.6984H68.6945V41.3853H68.3561ZM68.6206 41.5585C68.0635 41.1793 67.458 40.9876 66.8076 40.9876V41.3261C67.387 41.3261 67.9266 41.4955 68.43 41.8383L68.6206 41.5585ZM66.8076 40.9876C65.9324 40.9876 65.1786 41.3052 64.5551 41.9347L64.7955 42.1728C65.3566 41.6065 66.0243 41.3261 66.8076 41.3261V40.9876ZM64.5556 41.9341C63.9317 42.558 63.6176 43.3146 63.6176 44.1946H63.9561C63.9561 43.4048 64.2343 42.7342 64.7949 42.1734L64.5556 41.9341ZM63.6176 44.1946C63.6176 45.0691 63.9319 45.8254 64.5551 46.4544L64.7955 46.2163C64.2341 45.6494 63.9561 44.9784 63.9561 44.1946H63.6176ZM64.5551 46.4544C65.1786 47.0839 65.9324 47.4015 66.8076 47.4015V47.063C66.0243 47.063 65.3566 46.7826 64.7955 46.2163L64.5551 46.4544ZM66.8076 47.4015C67.458 47.4015 68.0635 47.2098 68.6206 46.8306L68.43 46.5508C67.9266 46.8936 67.387 47.063 66.8076 47.063V47.4015ZM68.3561 46.6907V47.0038H68.6945V46.6907H68.3561ZM68.4366 46.8597C67.95 47.1591 67.4223 47.3084 66.8499 47.3084V47.6469C67.4848 47.6469 68.074 47.4803 68.614 47.1479L68.4366 46.8597ZM72.7284 41.0384H72.8976V40.8692H72.7284V41.0384ZM72.7284 41.2838V41.453H72.8976V41.2838H72.7284ZM71.2815 41.2838V41.1146H71.1122V41.2838H71.2815ZM71.2815 47.3846V47.5538H71.4507V47.3846H71.2815ZM71.0022 47.3846H70.833V47.5538H71.0022V47.3846ZM71.0022 41.2838H71.1715V41.1146H71.0022V41.2838ZM69.5384 41.2838H69.3692V41.453H69.5384V41.2838ZM69.5384 41.0384V40.8692H69.3692V41.0384H69.5384ZM72.5592 41.0384V41.2838H72.8976V41.0384H72.5592ZM72.7284 41.1146H71.2815V41.453H72.7284V41.1146ZM71.1122 41.2838V47.3846H71.4507V41.2838H71.1122ZM71.2815 47.2153H71.0022V47.5538H71.2815V47.2153ZM71.1715 47.3846V41.2838H70.833V47.3846H71.1715ZM71.0022 41.1146H69.5384V41.453H71.0022V41.1146ZM69.7076 41.2838V41.0384H69.3692V41.2838H69.7076ZM69.5384 41.2076H72.7284V40.8692H69.5384V41.2076ZM74.0802 41.0384V40.8692H73.911V41.0384H74.0802ZM74.3594 41.0384H74.5287V40.8692H74.3594V41.0384ZM74.3594 43.5176H74.1902V43.6869H74.3594V43.5176ZM75.7387 44.093L75.8549 43.97L75.7387 44.093ZM75.7471 46.8092L75.8651 46.9306V46.9305L75.7471 46.8092ZM74.0802 47.3846H73.911V47.5538H74.0802V47.3846ZM74.3594 43.763V43.5938H74.1902V43.763H74.3594ZM74.3594 47.1392H74.1902V47.3084H74.3594V47.1392ZM75.561 46.6315L75.4413 46.5118L75.4403 46.5129L75.561 46.6315ZM75.5694 44.2707L75.4488 44.3893L75.4498 44.3904L75.5694 44.2707ZM74.0802 41.2076H74.3594V40.8692H74.0802V41.2076ZM74.1902 41.0384V43.5176H74.5287V41.0384H74.1902ZM74.3594 43.6869H74.4356V43.3484H74.3594V43.6869ZM74.4356 43.6869C74.8463 43.6869 75.2409 43.8556 75.6225 44.2161L75.8549 43.97C75.4242 43.5632 74.9501 43.3484 74.4356 43.3484V43.6869ZM75.6225 44.2161C75.9977 44.5704 76.1787 44.9783 76.1787 45.4469H76.5171C76.5171 44.8775 76.292 44.3828 75.8549 43.97L75.6225 44.2161ZM76.1787 45.4469C76.1787 45.9164 75.9997 46.3277 75.6292 46.6878L75.8651 46.9305C76.2956 46.5122 76.5171 46.0153 76.5171 45.4469H76.1787ZM75.6293 46.6878C75.2646 47.042 74.8439 47.2153 74.3594 47.2153V47.5538C74.9356 47.5538 75.44 47.3435 75.8651 46.9306L75.6293 46.6878ZM74.3594 47.2153H74.0802V47.5538H74.3594V47.2153ZM74.2494 47.3846V41.0384H73.911V47.3846H74.2494ZM74.4271 43.5938H74.3594V43.9323H74.4271V43.5938ZM74.1902 43.763V47.1392H74.5287V43.763H74.1902ZM74.3594 47.3084H74.4271V46.9699H74.3594V47.3084ZM74.4271 47.3084C74.9013 47.3084 75.3213 47.1167 75.6816 46.7501L75.4403 46.5129C75.1351 46.8232 74.7991 46.9699 74.4271 46.9699V47.3084ZM75.6806 46.7511C76.0487 46.3831 76.2379 45.9459 76.2379 45.4469H75.8994C75.8994 45.8503 75.7502 46.203 75.4413 46.5118L75.6806 46.7511ZM76.2379 45.4469C76.2379 44.9486 76.0522 44.5141 75.6891 44.1511L75.4498 44.3904C75.7524 44.6929 75.8994 45.0426 75.8994 45.4469H76.2379ZM75.6901 44.1521C75.3292 43.785 74.9063 43.5938 74.4271 43.5938V43.9323C74.8054 43.9323 75.144 44.0795 75.4488 44.3893L75.6901 44.1521Z" fill="black"/>
<path d="M16.0837 29.6154H2.03076V9.3077H2.9243V28.8302H13.8905V9.3077H14.784V28.8302H16.8689V32.2418H16.0837V29.6154ZM36.8365 9.3077V29.6154H35.9429V10.5803L21.7817 29.6154H20.9423V9.3077H21.8358V28.2886L35.9429 9.3077H36.8365ZM51.1143 9.3077V10.0929H46.4841V29.6154H45.5906V10.0929H40.9063V9.3077H51.1143ZM55.1692 9.3077H56.0628C57.9401 9.3077 59.5377 9.95754 60.8554 11.2572C62.1731 12.5389 62.832 14.0552 62.832 15.8062C62.832 17.5571 62.146 19.0644 60.7741 20.328C59.4203 21.5916 57.922 22.2234 56.2794 22.2234H56.0628V29.6154H55.1692V9.3077ZM56.0628 21.4652H56.2794C57.7957 21.4652 59.1134 20.9057 60.2326 19.7865C61.3698 18.6673 61.9384 17.3405 61.9384 15.8062C61.9384 14.2718 61.3608 12.936 60.2055 11.7988C59.0683 10.6615 57.7596 10.0929 56.2794 10.0929H56.0628V21.4652ZM72.9643 8.82031L83.1181 29.6154H82.1704L78.3255 21.8714H67.4676L63.6769 29.6154H62.8375L72.9643 8.82031ZM72.883 10.6886L67.8196 21.0862H78.0006L72.883 10.6886Z" fill="black"/>
<path d="M16.0838 29.6155H16.5915V29.1078H16.0838V29.6155ZM2.03089 29.6155H1.52319V30.1232H2.03089V29.6155ZM2.03089 9.30783V8.80014H1.52319V9.30783H2.03089ZM2.92442 9.30783H3.43212V8.80014H2.92442V9.30783ZM2.92442 28.8303H2.41673V29.338H2.92442V28.8303ZM13.8906 28.8303V29.338H14.3983V28.8303H13.8906ZM13.8906 9.30783V8.80014H13.3829V9.30783H13.8906ZM14.7841 9.30783H15.2918V8.80014H14.7841V9.30783ZM14.7841 28.8303H14.2764V29.338H14.7841V28.8303ZM16.869 28.8303H17.3767V28.3226H16.869V28.8303ZM16.869 32.242V32.7497H17.3767V32.242H16.869ZM16.0838 32.242H15.5761V32.7497H16.0838V32.242ZM16.0838 29.1078H2.03089V30.1232H16.0838V29.1078ZM2.53858 29.6155V9.30783H1.52319V29.6155H2.53858ZM2.03089 9.81552H2.92442V8.80014H2.03089V9.81552ZM2.41673 9.30783V28.8303H3.43212V9.30783H2.41673ZM2.92442 29.338H13.8906V28.3226H2.92442V29.338ZM14.3983 28.8303V9.30783H13.3829V28.8303H14.3983ZM13.8906 9.81552H14.7841V8.80014H13.8906V9.81552ZM14.2764 9.30783V28.8303H15.2918V9.30783H14.2764ZM14.7841 29.338H16.869V28.3226H14.7841V29.338ZM16.3613 28.8303V32.242H17.3767V28.8303H16.3613ZM16.869 31.7343H16.0838V32.7497H16.869V31.7343ZM16.5915 32.242V29.6155H15.5761V32.242H16.5915ZM36.8366 9.30783H37.3443V8.80014H36.8366V9.30783ZM36.8366 29.6155V30.1232H37.3443V29.6155H36.8366ZM35.943 29.6155H35.4353V30.1232H35.943V29.6155ZM35.943 10.5804H36.4507V9.04747L35.5357 10.2774L35.943 10.5804ZM21.7818 29.6155V30.1232H22.0369L22.1891 29.9185L21.7818 29.6155ZM20.9424 29.6155H20.4347V30.1232H20.9424V29.6155ZM20.9424 9.30783V8.80014H20.4347V9.30783H20.9424ZM21.836 9.30783H22.3437V8.80014H21.836V9.30783ZM21.836 28.2888H21.3283V29.8229L22.2435 28.5916L21.836 28.2888ZM35.943 9.30783V8.80014H35.6878L35.5355 9.00499L35.943 9.30783ZM36.3289 9.30783V29.6155H37.3443V9.30783H36.3289ZM36.8366 29.1078H35.943V30.1232H36.8366V29.1078ZM36.4507 29.6155V10.5804H35.4353V29.6155H36.4507ZM35.5357 10.2774L21.3745 29.3125L22.1891 29.9185L36.3504 10.8835L35.5357 10.2774ZM21.7818 29.1078H20.9424V30.1232H21.7818V29.1078ZM21.4501 29.6155V9.30783H20.4347V29.6155H21.4501ZM20.9424 9.81552H21.836V8.80014H20.9424V9.81552ZM21.3283 9.30783V28.2888H22.3437V9.30783H21.3283ZM22.2435 28.5916L36.3505 9.61067L35.5355 9.00499L21.4285 27.9859L22.2435 28.5916ZM35.943 9.81552H36.8366V8.80014H35.943V9.81552ZM51.1144 9.30783H51.6221V8.80014H51.1144V9.30783ZM51.1144 10.0931V10.6008H51.6221V10.0931H51.1144ZM46.4843 10.0931V9.58537H45.9766V10.0931H46.4843ZM46.4843 29.6155V30.1232H46.992V29.6155H46.4843ZM45.5907 29.6155H45.083V30.1232H45.5907V29.6155ZM45.5907 10.0931H46.0984V9.58537H45.5907V10.0931ZM40.9064 10.0931H40.3987V10.6008H40.9064V10.0931ZM40.9064 9.30783V8.80014H40.3987V9.30783H40.9064ZM50.6067 9.30783V10.0931H51.6221V9.30783H50.6067ZM51.1144 9.58537H46.4843V10.6008H51.1144V9.58537ZM45.9766 10.0931V29.6155H46.992V10.0931H45.9766ZM46.4843 29.1078H45.5907V30.1232H46.4843V29.1078ZM46.0984 29.6155V10.0931H45.083V29.6155H46.0984ZM45.5907 9.58537H40.9064V10.6008H45.5907V9.58537ZM41.4141 10.0931V9.30783H40.3987V10.0931H41.4141ZM40.9064 9.81552H51.1144V8.80014H40.9064V9.81552ZM55.1693 9.30783V8.80014H54.6617V9.30783H55.1693ZM60.8555 11.2574L60.499 11.6188L60.5016 11.6213L60.8555 11.2574ZM60.7743 20.3281L60.4303 19.9547L60.4278 19.957L60.7743 20.3281ZM56.0629 22.2235V21.7158H55.5552V22.2235H56.0629ZM56.0629 29.6155V30.1232H56.5706V29.6155H56.0629ZM55.1693 29.6155H54.6617V30.1232H55.1693V29.6155ZM56.0629 21.4654H55.5552V21.9731H56.0629V21.4654ZM60.2327 19.7866L59.8766 19.4247L59.8737 19.4276L60.2327 19.7866ZM60.2057 11.7989L59.8466 12.1579L59.8495 12.1607L60.2057 11.7989ZM56.0629 10.0931V9.58537H55.5552V10.0931H56.0629ZM55.1693 9.81552H56.0629V8.80014H55.1693V9.81552ZM56.0629 9.81552C57.8089 9.81552 59.2778 10.4143 60.499 11.6188L61.212 10.8959C59.7977 9.501 58.0715 8.80014 56.0629 8.80014V9.81552ZM60.5016 11.6213C61.7264 12.8127 62.3244 14.1999 62.3244 15.8063H63.3398C63.3398 13.9107 62.62 12.2653 61.2094 10.8934L60.5016 11.6213ZM62.3244 15.8063C62.3244 17.4053 61.7055 18.7802 60.4303 19.9547L61.1182 20.7015C62.5868 19.3489 63.3398 17.7092 63.3398 15.8063H62.3244ZM60.4278 19.957C59.1551 21.1449 57.7769 21.7158 56.2795 21.7158V22.7312C58.0674 22.7312 59.6858 22.0386 61.1207 20.6993L60.4278 19.957ZM56.2795 21.7158H56.0629V22.7312H56.2795V21.7158ZM55.5552 22.2235V29.6155H56.5706V22.2235H55.5552ZM56.0629 29.1078H55.1693V30.1232H56.0629V29.1078ZM55.677 29.6155V9.30783H54.6617V29.6155H55.677ZM56.0629 21.9731H56.2795V20.9577H56.0629V21.9731ZM56.2795 21.9731C57.9369 21.9731 59.382 21.3554 60.5918 20.1456L59.8737 19.4276C58.8451 20.4562 57.6548 20.9577 56.2795 20.9577V21.9731ZM60.5889 20.1484C61.8187 18.9381 62.4463 17.4827 62.4463 15.8063H61.4309C61.4309 17.1986 60.9212 18.3967 59.8766 19.4248L60.5889 20.1484ZM62.4463 15.8063C62.4463 14.1275 61.8079 12.6638 60.5618 11.4371L59.8495 12.1607C60.914 13.2085 61.4309 14.4163 61.4309 15.8063H62.4463ZM60.5647 11.4399C59.3413 10.2165 57.9067 9.58537 56.2795 9.58537V10.6008C57.6127 10.6008 58.7955 11.1068 59.8466 12.1579L60.5647 11.4399ZM56.2795 9.58537H56.0629V10.6008H56.2795V9.58537ZM55.5552 10.0931V21.4654H56.5706V10.0931H55.5552ZM72.9644 8.82044L73.4206 8.59765L72.9638 7.66211L72.508 8.59816L72.9644 8.82044ZM83.1182 29.6155V30.1232H83.9311L83.5745 29.3927L83.1182 29.6155ZM82.1705 29.6155L81.7158 29.8413L81.8558 30.1232H82.1705V29.6155ZM78.3256 21.8715L78.7803 21.6458L78.6404 21.3638H78.3256V21.8715ZM67.4678 21.8715V21.3638H67.1511L67.0118 21.6483L67.4678 21.8715ZM63.677 29.6155V30.1232H63.9937L64.133 29.8387L63.677 29.6155ZM62.8376 29.6155L62.3812 29.3932L62.0257 30.1232H62.8376V29.6155ZM72.8831 10.6888L73.3386 10.4645L72.8807 9.53417L72.4267 10.4665L72.8831 10.6888ZM67.8198 21.0863L67.3633 20.864L67.0079 21.594H67.8198V21.0863ZM78.0007 21.0863V21.594H78.8165L78.4562 20.8621L78.0007 21.0863ZM72.5081 9.04324L82.662 29.8383L83.5745 29.3927L73.4206 8.59765L72.5081 9.04324ZM83.1182 29.1078H82.1705V30.1232H83.1182V29.1078ZM82.6253 29.3898L78.7803 21.6458L77.8709 22.0973L81.7158 29.8413L82.6253 29.3898ZM78.3256 21.3638H67.4678V22.3792H78.3256V21.3638ZM67.0118 21.6483L63.221 29.3923L64.133 29.8387L67.9238 22.0947L67.0118 21.6483ZM63.677 29.1078H62.8376V30.1232H63.677V29.1078ZM63.294 29.8378L73.4208 9.04273L72.508 8.59816L62.3812 29.3932L63.294 29.8378ZM72.4267 10.4665L67.3633 20.864L68.2762 21.3086L73.3396 10.911L72.4267 10.4665ZM67.8198 21.594H78.0007V20.5786H67.8198V21.594ZM78.4562 20.8621L73.3386 10.4645L72.4277 10.913L77.5452 21.3105L78.4562 20.8621Z" fill="black"/>
<path d="M1.69238 34.4807H83.7693" stroke="black" stroke-width="0.5"/>
<path d="M11.8462 36.1731H73.6154" stroke="black" stroke-width="0.5"/>
</g>
<defs>
<clipPath id="clip0_29_546">
<rect width="99" height="51.6154" fill="white"/>
</clipPath>
</defs>
</svg>
