<svg width="32" height="32" viewBox="0 0 32 32" fill="none" xmlns="http://www.w3.org/2000/svg">
<path d="M25.041 23.5628L20.4586 18.9804C22.7625 15.9852 22.5321 11.6588 19.7673 8.9196C18.2569 7.40924 16.3112 6.66675 14.3401 6.66675C12.3689 6.66675 10.4233 7.40906 8.9129 8.9196C5.9177 11.9148 5.9177 16.7788 8.9129 19.774C10.4233 21.2844 12.369 22.0269 14.3401 22.0269C15.9785 22.0269 17.6169 21.5149 18.9737 20.4653L23.5817 25.0219C23.7865 25.2267 24.0424 25.329 24.324 25.329C24.5801 25.329 24.8617 25.2267 25.0663 25.0219C25.4504 24.638 25.4504 23.9722 25.0408 23.5628L25.041 23.5628ZM14.3657 19.9532C12.8554 19.9532 11.4729 19.3644 10.3977 18.3148C8.22161 16.1387 8.22161 12.5804 10.3977 10.3788C11.4473 9.32911 12.8554 8.74035 14.3657 8.74035C15.8761 8.74035 17.2586 9.32911 18.3338 10.3788C19.409 11.4284 19.9722 12.8364 19.9722 14.3468C19.9722 15.8572 19.3834 17.2397 18.3338 18.3149C17.2842 19.3901 15.8506 19.9533 14.3657 19.9533V19.9532Z" fill="black"/>
</svg>
