<svg width="110" height="32" viewBox="0 0 110 32" fill="none" xmlns="http://www.w3.org/2000/svg">
<g clip-path="url(#clip0_29_686)">
<path d="M105.158 27.8641C107.322 27.8641 108.855 27.4717 109.997 26.6264V22.7924C108.825 23.6075 107.412 24.1207 105.429 24.1207C102.093 24.1207 100.71 21.5245 100.71 17.4189C100.71 13.1019 102.393 10.8981 105.459 10.8981C107.262 10.8981 109.035 11.5321 109.967 12.1358V8.15094C108.975 7.60754 107.262 7.21509 104.918 7.21509C98.9374 7.21509 95.8419 11.5321 95.8419 17.5698C95.872 24.1811 98.9073 27.8641 105.158 27.8641ZM75.9169 26.1132V22.2792C74.4744 23.2755 72.01 24.1509 69.7561 24.1509C66.33 24.1509 65.0378 22.5207 64.8274 19.2H76.1273V16.7245C76.1273 9.81131 73.0919 7.21509 68.4337 7.21509C62.7237 7.21509 60.0189 11.5924 60.0189 17.6C60.0189 24.5132 63.4149 27.8641 69.3654 27.8641C72.3406 27.8641 74.5345 27.049 75.9169 26.1132ZM33.0315 7.57735V15.4264H26.7805V7.57735H22.0923V27.4717H26.7805V19.1698H33.0315V27.4717H37.7198V7.57735H33.0315ZM58.8469 23.7283H56.7732V7.57735H43.1293V9.26792C43.1293 14.1283 42.8287 20.4075 41.1758 23.7283H39.6732V32H44.0008V27.4717H54.4892V32H58.8168V23.7283H58.8469ZM90.8531 27.4717H96.1725L88.6593 16.7547L95.2709 7.57735H90.5526L83.941 16.7547V7.57735H79.2528V27.4717H83.941V17.6906L90.8531 27.4717ZM68.3135 10.8981C70.6276 10.8981 71.3489 12.8302 71.3489 15.3358V15.7283H64.8274C64.9476 12.5585 66.0896 10.8981 68.3135 10.8981ZM52.085 23.7283H45.4734C46.7657 20.7396 47.1263 15.3057 47.1263 11.8641V11.2604H52.085V23.7283Z" fill="black"/>
<path d="M18.1854 27.4717H13.407V3.71321H11.2732C7.36636 3.71321 5.32277 5.67547 5.32277 8.60377C5.32277 11.9245 6.73525 13.4641 9.65037 15.4264L12.0546 17.0566L5.14245 27.4717H0.00341797L6.22435 18.1736C2.64807 15.6075 0.634527 13.1019 0.634527 8.87547C0.634527 3.59245 4.30097 0 11.2432 0H18.1553V27.4717H18.1854Z" fill="#FC3F1D"/>
</g>
<defs>
<clipPath id="clip0_29_686">
<rect width="110" height="32" fill="white"/>
</clipPath>
</defs>
</svg>
