<svg width="133" height="96" viewBox="0 0 133 96" fill="none" xmlns="http://www.w3.org/2000/svg">
<g clip-path="url(#clip0_29_743)">
<path d="M103.67 31.8392L104.666 28.672L101.372 28.7746C101.094 28.7746 99.0716 28.7176 97.1092 27.3034C97.2555 27.3176 97.4018 27.3377 97.551 27.3377C99.5706 27.3377 101.525 26.1288 102.308 24.4011L103.725 21.2792C101.949 21.3021 100.325 21.0798 100.325 21.0798C100.311 21.0769 99.0314 20.9144 97.551 19.412C96.4895 18.3343 95.1755 17.7641 93.7525 17.7641C93.1299 17.7641 92.5734 17.8753 92.0942 18.0265C92.1688 17.7727 92.2405 17.516 92.2807 17.2509C92.734 14.3288 90.8406 12.0993 90.8406 12.1023L88.3646 9.05451L86.8298 12.6354C86.8241 12.6468 86.4366 13.4849 85.7424 13.8955C85.5331 12.8435 85.0195 11.6603 83.9207 10.5285C81.8492 8.39593 79.3274 8.07961 78.0078 8.07961C77.3966 8.07961 76.9605 8.14513 76.8544 8.16229L73.8648 8.74669C74.0371 8.08241 74.4043 6.92781 75.0755 5.88712L76.7253 3.33272L72.5738 3.80308L71.2512 1.01211L68.6921 2.32354L66.3253 0L63.9642 2.32354L61.3964 1.01211L60.0767 3.80308L55.9282 3.33272L57.5808 5.88712C58.2521 6.92781 58.6193 8.07961 58.7886 8.74376L55.937 8.185L55.8393 8.16786C55.6958 8.14513 55.2627 8.07961 54.6486 8.07961C53.329 8.07961 50.8072 8.39887 48.7415 10.5285C47.6397 11.6574 47.1263 12.8435 46.9139 13.8955C46.2254 13.4907 45.841 12.6638 45.841 12.6638L44.3032 9.06315L41.7871 12.1307C41.4802 12.5271 39.9626 14.6224 40.3755 17.2567C40.4187 17.519 40.4876 17.7755 40.5621 18.0292C40.0859 17.8782 39.5291 17.7671 38.9067 17.7671C37.4838 17.7671 36.1697 18.3373 35.1054 19.4149C33.6307 20.9116 32.357 21.0798 32.3684 21.0798C32.3684 21.0798 31.0227 21.3193 28.9399 21.2822L30.3487 24.404C31.1318 26.1346 33.0885 27.3404 35.1054 27.3404C35.2574 27.3404 35.4037 27.3205 35.5529 27.3062C33.5962 28.7202 31.5737 28.7773 31.3299 28.7802L27.9731 28.672L28.9888 31.8364C29.4994 33.4672 31.2064 36.1698 34.477 36.4607C34.1212 37.943 33.3323 39.6023 31.5995 40.3179L29.1007 41.3414L30.4634 43.6992C31.2322 44.9708 33.0369 46.4589 35.6074 46.4589C36.1639 46.456 36.7004 46.4019 37.217 46.2936C37.3488 46.8751 37.5153 47.4566 37.7104 48.0326C38.4764 50.2961 37.8164 51.8757 37.8079 51.8928L36.5742 54.4614L39.3284 55.1828C39.3628 55.1942 40.1948 55.4192 41.2363 55.4192C41.7098 55.4192 42.1601 55.371 42.5848 55.2711C42.9061 55.1969 43.213 55.0971 43.5085 54.9775C43.8643 55.6132 44.2975 56.1919 44.8025 56.7107C46.5668 58.5097 49.0656 59.422 52.233 59.422H52.2445L54.5053 59.3936L49.8346 61.3208L53.3805 63.0229C54.6688 63.6471 56.198 64.3855 57.7528 64.9501L57.311 66.1532L58.5332 66.7062C58.6423 66.7547 60.9919 67.801 64.8995 68.0233C64.8995 68.0233 65.8433 68.0661 66.3626 68.0661C66.8819 68.0661 67.8143 68.0205 67.8143 68.0205C71.6959 67.7925 74.0284 66.7574 74.1376 66.7062L75.3624 66.1502L74.9149 64.9443C76.5158 64.3626 78.0995 63.5958 79.3331 62.9972L82.8131 61.318L78.1569 59.3879L80.4263 59.4164C83.5964 59.4164 86.0982 58.5039 87.8596 56.7023C88.3618 56.1863 88.7949 55.6076 89.1537 54.9719C89.4491 55.0916 89.7589 55.1912 90.0802 55.2654C90.5019 55.3652 90.9524 55.4136 91.4258 55.4136C92.45 55.4136 93.2906 55.1884 93.3136 55.1828L96.0792 54.4557L94.8741 51.9354C94.8456 51.8699 94.1858 50.2934 94.9518 48.0268C95.1469 47.4481 95.3102 46.8665 95.4424 46.2878C95.9616 46.3962 96.5039 46.4531 97.0634 46.4531C100.337 46.4531 101.906 44.1638 102.21 43.6677L103.559 41.3358L101.06 40.3152C99.324 39.5996 98.5379 37.9374 98.1851 36.4578C101.41 36.1841 103.143 33.4814 103.67 31.8392ZM59.0067 9.83576L58.9722 9.84426L59.0008 9.80718L59.0067 9.83576Z" fill="white"/>
<path d="M66.3288 9.69586C63.6836 9.69878 61.7012 10.5598 61.2681 11.5719L66.3288 13.5561L71.3897 11.5719C70.9594 10.5598 68.9769 9.69878 66.3288 9.69586Z" fill="white"/>
<path d="M66.3802 62.2243H66.3744H66.3314H66.2827H66.2799C64.6761 62.2357 62.4698 61.9077 61.4055 61.6L60.126 65.041C60.9694 65.3403 63.8269 65.9105 66.3314 65.9105C68.8302 65.9105 71.6907 65.3375 72.5313 65.041L71.2546 61.6C70.1872 61.9107 67.9839 62.2357 66.3802 62.2243Z" fill="white"/>
<path d="M76.0635 58.8037C75.1108 59.3396 72.9851 60.1436 71.7485 60.5172L72.787 63.3595C74.7007 62.8407 76.2786 62.2333 77.5839 61.5833L75.4293 60.8707L76.0635 58.8037Z" fill="white"/>
<path d="M56.5976 58.8037L57.2346 60.8707L55.0771 61.5833C56.3796 62.2333 57.9662 62.8407 59.8711 63.3595L60.9097 60.5172C59.6789 60.1436 57.5501 59.3369 56.5976 58.8037Z" fill="white"/>
<path d="M66.3293 6.40638C68.3231 6.40638 70.2798 6.87953 71.783 7.71209C71.9208 7.25301 72.113 6.69705 72.3741 6.11557L71.8061 6.18387L71.2093 6.24661L70.9567 5.70779L70.1966 4.11127L68.8109 4.8298L68.2716 5.10346L67.8411 4.68145L66.3349 3.19897L64.8317 4.68145L64.4012 5.10346L63.8619 4.8298L62.4677 4.11127L61.716 5.70779L61.4577 6.24661L60.8609 6.18387L60.293 6.11557C60.554 6.69997 60.7435 7.25301 60.8839 7.71209C62.3901 6.87953 64.3411 6.40638 66.3293 6.40638Z" fill="white"/>
<path d="M96.7709 24.8577C97.029 24.9461 97.293 24.9859 97.554 24.9859C98.6814 24.9859 99.7717 24.2618 100.148 23.4322C100.148 23.4322 98.079 23.3067 95.8556 21.0631C95.1469 20.3361 94.3981 20.1194 93.7555 20.1194C92.7571 20.1194 92.0083 20.644 92.0083 20.644C94.6936 22.0638 95.2415 24.3445 96.7709 24.8577Z" fill="white"/>
<path d="M35.1029 24.9859C35.364 24.9859 35.628 24.9461 35.8804 24.8577C37.4154 24.3445 37.9661 22.0638 40.6515 20.644C40.6515 20.644 39.8998 20.1194 38.9071 20.1194C38.2618 20.1194 37.5128 20.3361 36.8013 21.0631C34.5807 23.3067 32.5122 23.4322 32.5122 23.4322C32.8824 24.2618 33.9754 24.9859 35.1029 24.9859Z" fill="white"/>
<path d="M97.5002 34.1257C97.5462 34.1286 97.5865 34.1286 97.635 34.1286C100.45 34.1286 101.405 31.1322 101.405 31.1322H101.35C100.834 31.1322 96.6482 31.0125 93.6903 27.2749C91.7423 24.8174 90.1472 22.6564 86.9941 21.8068L86.6842 21.7526L86.6155 21.4391C86.5294 20.9601 86.8593 20.5125 87.6082 20.0279C91.9575 17.1969 89.0053 13.5875 89.0053 13.5875C89.0053 13.5875 87.7631 16.4756 84.9829 16.4756C84.917 16.4756 84.8454 16.4728 84.7765 16.4728C84.4609 16.4557 84.1568 16.4442 83.8498 16.3787L83.3362 16.2788C83.3362 16.2788 84.1281 14.1378 82.2174 12.1707C80.7771 10.6853 79.0241 10.4344 78.0115 10.4344C77.5009 10.4344 77.1766 10.5 77.1766 10.5C78.1377 11.7487 78.832 13.8186 77.7217 15.0957C76.7635 16.1934 74.4224 16.2474 74.4224 17.884C74.4224 18.5767 75.0736 19.3864 76.2442 20.1134C79.7645 22.317 83.2587 25.2394 84.7105 29.1565C86.5265 34.0432 84.4809 37.2846 81.5604 39.1434C81.5604 39.1434 82.4756 39.9815 83.804 40.0871C84.0736 40.1128 84.3375 40.1242 84.5842 40.1242C87.3873 40.1242 88.8361 38.8184 88.8361 38.8184C88.8361 38.8184 88.5979 40.623 87.1377 42.2993C85.7921 43.8474 84.0248 44.7569 81.3308 44.7967C81.3308 44.7967 81.2449 46.0399 82.4382 47.1145C83.2016 47.793 84.9658 48.0155 84.9658 48.0155C84.9658 48.0155 81.6636 48.6796 81.2993 53.5264C81.1013 56.1521 80.427 57.0644 80.427 57.0644H80.4873C88.1504 57.0644 87.9523 50.5329 87.9523 50.5329C87.9523 50.5329 88.4861 52.4658 90.6235 52.9704C90.8816 53.0389 91.157 53.0646 91.421 53.0646C92.1095 53.0646 92.7063 52.9049 92.7063 52.9049C92.7063 52.9049 91.5873 50.5585 92.6977 47.277C93.6186 44.5545 93.4693 42.536 93.4693 42.536C93.4693 42.536 94.5023 44.0869 97.0614 44.1013H97.0871C99.2189 44.1013 100.148 42.4961 100.148 42.4961C95.0388 40.3893 95.5438 33.587 95.5438 33.587C95.5438 33.587 96.2064 34.0772 97.5002 34.1257ZM95.9625 41.2302C93.8854 40.2126 92.5714 37.5097 92.2529 36.5348C91.9088 41.8945 89.2751 45.6151 86.1966 49.1958C84.5986 51.0517 84.042 52.8563 84.042 52.8563C84.042 52.8563 84.349 50.8122 85.7319 49.1472C88.6037 45.7176 91.3319 41.4498 91.5358 36.5149C91.6762 33.0709 90.784 30.277 89.3926 27.9762C90.17 30.3738 90.0612 33.3103 87.4188 36.0501C87.4188 36.0501 92.6776 29.7867 85.3246 23.3663C82.3809 20.9229 79.1619 19.4149 77.5038 18.3457C83.4941 20.2873 86.4176 18.1491 86.4176 18.1491C84.5039 19.797 82.028 19.7684 80.4932 19.5318C80.9091 19.7342 81.3423 19.9451 81.81 20.1932C86.8593 22.9186 91.3981 27.4032 92.1726 33.6154V33.567C93.3489 39.6651 95.9625 41.2302 95.9625 41.2302Z" fill="white"/>
<path d="M47.6921 48.0155C47.6921 48.0155 49.4565 47.7959 50.2197 47.1145C51.4102 46.0398 51.3271 44.7966 51.3271 44.7966C48.6302 44.7597 46.8659 43.8474 45.5116 42.3022C44.0629 40.6259 43.8219 38.8212 43.8219 38.8212C43.8219 38.8212 45.2706 40.1268 48.0707 40.1268C48.3233 40.1268 48.5843 40.1154 48.8541 40.0898C50.1823 39.9844 51.1004 39.1461 51.1004 39.1461C48.1798 37.2873 46.1314 34.0431 47.9445 29.1564C49.3992 25.2422 52.8906 22.317 56.4109 20.1134C57.5814 19.3863 58.2326 18.5795 58.2326 17.8839C58.2326 16.2474 55.8944 16.1933 54.9363 15.0957C53.8259 13.8185 54.523 11.7457 55.4812 10.5C55.4812 10.5 55.1629 10.4343 54.6493 10.4343C53.6396 10.4343 51.8864 10.6853 50.4463 12.1707C48.5298 14.1378 49.3245 16.2787 49.3245 16.2787L48.8109 16.3787C48.504 16.4442 48.1971 16.4556 47.8844 16.4727C47.8126 16.4727 47.7494 16.4755 47.6805 16.4755C44.8948 16.4755 43.6584 13.5904 43.6584 13.5904C43.6584 13.5904 40.7061 17.1998 45.0528 20.0306C45.8014 20.5153 46.1284 20.963 46.0424 21.4418L45.9735 21.7555L45.658 21.8096C42.5108 22.6592 40.9128 24.8203 38.9648 27.2778C36.0126 31.0096 31.8325 31.1322 31.3104 31.1322H31.2529C31.2529 31.1322 32.2083 34.1285 35.0228 34.1285C35.0686 34.1285 35.1087 34.1285 35.1576 34.1257C36.4516 34.0801 37.1173 33.587 37.1173 33.587C37.1173 33.587 37.6163 40.3863 32.5125 42.496C32.5125 42.496 33.442 44.1012 35.5736 44.1012H35.5993C38.1614 44.0868 39.1914 42.536 39.1914 42.536C39.1914 42.536 39.0422 44.5544 39.9601 47.277C41.0705 50.5585 39.9574 52.9048 39.9574 52.9048C39.9574 52.9048 40.5542 53.0645 41.2398 53.0645C41.5066 53.0645 41.7792 53.0388 42.0346 52.9703C44.169 52.4658 44.7055 50.5328 44.7055 50.5328C44.7055 50.5328 44.5104 57.0643 52.1734 57.0643H52.2279C52.2279 57.0643 51.5566 56.152 51.3615 53.5263C50.9942 48.6796 47.6921 48.0155 47.6921 48.0155ZM46.4613 49.1957C43.383 45.6151 40.7521 41.8945 40.405 36.5347C40.0865 37.507 38.7782 40.2125 36.7012 41.2301C36.7012 41.2301 39.3118 39.665 40.4853 33.5669V33.6153C41.2628 27.406 45.7986 22.9185 50.8509 20.1931C51.3127 19.9424 51.7516 19.7312 52.1648 19.5317C50.6298 19.7683 48.154 19.797 46.2405 18.149C46.2405 18.149 49.164 20.2873 55.1513 18.3457C53.493 19.4148 50.277 20.9229 47.3335 23.3662C39.9775 29.7866 45.2391 36.0501 45.2391 36.0501C42.5939 33.3076 42.4878 30.3738 43.2654 27.9762C41.871 30.2798 40.9815 33.0708 41.125 36.5148C41.3259 41.4498 44.0542 45.7175 46.9204 49.1471C48.3061 50.8094 48.6188 52.8563 48.6188 52.8563C48.6188 52.8563 48.0563 51.0516 46.4613 49.1957Z" fill="white"/>
<path d="M60.6628 24.1359C60.789 24.2701 60.9122 24.4155 61.03 24.5607C61.0588 24.595 61.0845 24.6264 61.1131 24.6663C61.2221 24.8117 61.3342 24.9656 61.4402 25.1225C61.4631 25.1538 61.4861 25.1909 61.512 25.2279C61.6411 25.4218 61.7616 25.6214 61.8821 25.8267C62.9867 27.7227 64.7568 28.8543 66.3261 28.8573C67.8984 28.8543 69.6626 27.7227 70.773 25.8267C70.8962 25.6157 71.0196 25.4105 71.1488 25.2193C71.1689 25.1909 71.189 25.1653 71.2061 25.1367C71.3151 24.9742 71.4299 24.8147 71.5505 24.6605C71.5763 24.6264 71.5993 24.5979 71.6222 24.5695C71.7456 24.4183 71.8718 24.2701 72.0008 24.1333C72.0238 24.1104 72.041 24.0905 72.0611 24.0734C72.6234 23.5004 73.2948 23.0641 74.1727 22.8217L73.7825 22.5965H73.7594L72.2047 21.6985L70.6067 20.7891L66.3375 23.0984L66.3261 23.0897L66.3175 23.0984L62.0456 20.7891L60.4505 21.6957L58.8926 22.5937H58.8755L58.4795 22.8189C59.3602 23.0613 60.0288 23.4917 60.5939 24.0648C60.6197 24.0877 60.637 24.1133 60.6628 24.1359ZM64.5991 23.9507H66.4064H68.2109V25.1825C67.7863 24.6663 66.9601 24.7718 66.9601 24.7718V26.5479C66.9601 26.5479 66.9917 27.4204 67.2986 27.7996H66.4064H65.5114C65.8239 27.4231 65.8527 26.5479 65.8527 26.5479V24.7718C65.8527 24.7718 65.0294 24.6663 64.5991 25.1825V23.9507Z" fill="white"/>
<path d="M65.958 21.5614V14.3513L61.3389 12.7947L62.5583 19.7823L65.958 21.5614ZM64.9653 16.1217V17.2792L64.7415 17.1766C64.7299 17.168 64.403 17.094 63.8292 16.6435C62.8823 15.9136 62.8653 15.2408 62.8653 15.2408L64.9653 16.1217Z" fill="white"/>
<path d="M70.1012 19.7823L71.3149 12.7947L66.6987 14.3513V21.5614L70.1012 19.7823ZM67.6913 16.1217L69.7913 15.2437C69.7913 15.2437 69.7743 15.9164 68.8246 16.6463C68.2537 17.0967 67.9237 17.1709 67.9123 17.1794L67.6885 17.282V16.1217H67.6913Z" fill="white"/>
<path d="M59.425 38.2768C59.8754 38.4395 60.4206 38.4736 60.6988 38.4736C60.7103 38.4395 60.7247 38.3967 60.7391 38.3453C60.7649 38.2627 60.7878 38.1828 60.805 38.0916C60.8824 37.6925 60.9112 37.2392 60.9168 36.9484C60.7275 36.8315 60.4607 36.6234 60.3114 36.3126C60.1394 35.9533 59.8955 35.788 59.5368 35.788C59.0722 35.788 58.573 36.0646 58.3607 36.1956C58.1914 37.1908 58.9286 38.0944 59.425 38.2768Z" fill="white"/>
<path d="M69.6434 34.4502C68.7855 35.3767 67.1072 36.9904 67.0239 37.0731L66.9235 37.1756L61.619 37.093C61.616 37.6148 61.5299 38.0595 61.4467 38.3845C61.4325 38.4387 61.4181 38.4957 61.4038 38.5528L67.7154 39.6789C68.3724 39.2228 70.1799 37.9113 70.8799 37.3982C70.3691 36.6569 70.3205 35.7788 70.4353 35.16C70.1024 34.9463 69.847 34.7069 69.6434 34.4502Z" fill="white"/>
<path d="M70.3619 28.1102C69.1398 29.316 67.9664 29.7608 66.9193 29.8634C66.7299 29.8834 66.5377 29.8948 66.3426 29.8948H66.3282H66.3166C66.1215 29.8948 65.9266 29.8834 65.7373 29.8634C65.5536 29.8464 65.3614 29.8178 65.1692 29.7751C65.1003 30.046 65.0142 30.6132 65.2611 31.1493C65.482 31.6368 65.9324 31.9989 66.5894 32.2383L66.8102 32.3237L66.8132 32.5605C66.8132 32.6318 66.8647 34.1655 68.5488 34.5903C68.8242 34.3081 69.0738 34.0543 69.2575 33.8434C68.9132 33.0394 69.0939 32.2184 69.5931 31.8163C69.5701 31.9019 69.3522 33.9146 70.9759 34.6615L71.2427 34.787L71.1624 35.0693C71.1366 35.1547 70.5944 37.102 72.5596 37.8261L72.9068 37.9574L72.7519 38.2937C72.7174 38.3678 71.9456 40.1354 73.7616 41.1389H77.7007V38.0314C76.3008 37.8602 75.7069 36.7428 75.5548 35.9503C74.9034 35.839 74.3987 35.5596 74.0544 35.1035C73.2281 34.0231 73.9396 33.0337 73.9482 32.9795C73.9453 32.9881 73.9482 34.043 74.6023 34.693C74.9264 35.0065 75.311 35.2489 75.8934 35.3031L76.1802 35.3288L76.2061 35.6195C76.2118 35.6822 76.3695 37.1078 77.7037 37.3329L77.7007 30.9866C77.7007 30.0032 77.9905 29.014 78.3377 28.1016H70.3619V28.1102Z" fill="white"/>
<path d="M59.7618 31.0179L59.6558 35.0605L60.1175 35.129L61.2479 31.2517L60.6741 30.0601L59.7618 31.0179Z" fill="white"/>
<path d="M72.2243 49.5577C72.2588 49.5577 72.2988 49.5635 72.3363 49.5721C73.039 49.7716 73.2171 52.2919 74.4507 52.5172C74.5711 52.5427 74.6829 52.5485 74.7806 52.5485C75.1364 52.5485 75.3485 52.3973 75.5781 52.1292C75.5781 52.1292 74.9583 51.1599 74.4937 50.5071C73.8768 49.6519 73.3978 48.617 72.25 48.617C72.2243 48.617 72.1899 48.617 72.1612 48.6199C71.7824 48.6398 71.5502 48.8222 71.5502 48.8222C71.0853 48.5313 70.652 48.4317 70.2591 48.4317C69.539 48.4317 68.9795 48.7595 68.7012 48.7595H68.6897L66.1249 48.5088C65.7233 48.4716 65.4077 48.0696 65.293 47.9128C65.2642 47.8701 65.2498 47.8444 65.2498 47.8444C65.2498 47.7759 65.2498 47.7048 65.2441 47.6419C65.158 45.5579 63.5343 44.6657 62.9575 44.6514C62.9575 44.6514 63.0264 44.255 62.8687 44.1039L62.3034 44.7854L60.4472 43.8588L61.7698 45.3954L60.648 46.6471C60.5075 46.7895 60.5247 46.9833 60.582 47.0632L61.067 47.488L61.6808 47.1173C61.7124 47.0944 61.7669 47.0889 61.8357 47.0889C62.0051 47.0889 62.2603 47.1316 62.4899 47.1316C62.7395 47.1316 62.9575 47.0775 62.9835 46.8437C62.9059 47.6164 62.1858 48.9591 62.6592 50.0138L63.0093 50.8094L60.7427 50.4844L59.6812 52.2662C59.3542 52.8592 59.3024 53.5006 59.6181 53.8485L60.0141 54.3417C60.0141 54.3417 60.5706 53.7544 60.6968 53.3695L60.5161 53.1728C60.3639 53.0075 60.3727 52.8593 60.4646 52.6795L61.1299 51.582L63.8068 52.2091L63.9473 51.9697C64.1281 51.6704 64.3892 51.5792 64.6762 51.5792C64.7936 51.5792 64.9142 51.5935 65.0404 51.6134C65.5368 51.7102 66.3545 51.8414 67.172 51.8414C68.07 51.8414 68.9595 51.6818 69.4328 51.1543C70.4024 52.5827 72.3677 52.8107 72.2129 53.5348L71.6964 55.9809C72.0378 55.9667 72.3677 55.944 72.6804 55.9012L73.171 53.3552C73.2255 53.0786 73.2772 52.7052 73.2772 52.7052C73.0879 52.5142 72.6288 52.1093 72.3706 51.619C72.0234 50.9576 72.2129 50.6127 71.8886 49.7517C71.9002 49.7573 71.9976 49.5577 72.2243 49.5577ZM62.2115 45.9827C62.0796 45.98 61.9849 45.8688 61.9907 45.7375C62.0023 45.6121 62.1083 45.5124 62.2375 45.5237C62.3695 45.5294 62.4641 45.6434 62.4584 45.7688C62.4468 45.8943 62.3379 45.9912 62.2115 45.9827Z" fill="white"/>
<path d="M58.5561 51.8726C58.5561 51.8726 59.4427 51.5105 59.5231 51.2511L59.4055 50.9573C59.3222 50.7663 59.3337 50.5582 59.4944 50.4441L60.4526 49.7856L62.0535 50.0906C62.0535 50.0906 61.7637 49.7315 61.7925 49.2497L60.2662 48.9275L58.8259 49.7998C58.2091 50.2589 58.1632 51.0086 58.3668 51.4536L58.5561 51.8726Z" fill="white"/>
<path d="M69.8716 56.0178C70.1585 56.0064 70.474 56.0006 70.8213 56.0006C70.8213 56.0006 71.6446 53.6088 71.6905 53.5317C71.2286 53.3294 70.2704 52.8249 69.9002 52.5938C70.1442 52.956 70.738 53.3721 70.6204 53.6915L69.8716 56.0178Z" fill="white"/>
<path d="M77.709 41.832H54.9497V50.3392C54.9497 53.8173 57.483 55.9954 61.2212 55.9954C64.3456 55.9954 65.1689 56.115 66.3309 57.2612C67.1313 56.4686 67.7941 56.172 69.1539 56.0609L69.1855 55.9298L69.9027 53.726C69.8626 53.6776 68.6891 52.3518 68.6891 52.3518C68.2244 52.5058 67.8342 52.5315 67.1773 52.5315C66.503 52.5315 65.7427 52.4546 64.9193 52.3006C64.8362 52.2806 64.7588 52.2749 64.6811 52.2749C64.5808 52.2749 64.5722 52.2835 64.5463 52.3319L64.4029 52.5657L64.1418 52.9934L63.6513 52.8822L61.468 52.372L61.1697 52.8622L61.2155 52.9135L61.4822 53.2044L61.3648 53.5836C61.2041 54.0795 60.6819 54.6582 60.5241 54.818L59.979 55.3995L59.4827 54.7752L59.1096 54.3105C58.7167 53.8744 58.6248 53.2044 58.8458 52.503C58.84 52.5086 58.8315 52.5116 58.8227 52.5116L58.2059 52.7653L57.9277 52.1666L57.7326 51.7418C57.3969 50.9948 57.5202 49.9029 58.4239 49.2444L60.1827 48.258L61.8554 48.5858C61.8954 48.4262 61.9557 47.856 62.0044 47.7106C61.9728 47.7077 61.9413 47.6992 61.9098 47.6992L60.9458 48.0555L60.0162 47.4168C60.0162 47.4168 59.652 47.0691 59.9818 46.7213L60.8826 45.3671L58.6019 42.5218L62.1078 43.9529L62.34 43.6651L62.8135 43.1035L63.35 43.6109C63.5022 43.7563 63.5882 43.936 63.6311 44.1156C64.598 44.489 66.328 45.5923 66.48 47.3855L65.9378 47.6022V47.6165C66.0611 47.7619 66.1643 47.8217 66.1961 47.8274L68.6978 48.0727C68.7609 48.0613 68.8412 48.0326 68.9301 48.007C69.24 47.9016 69.7076 47.7504 70.2614 47.7504C70.7118 47.7504 71.1479 47.8531 71.5666 48.047C71.7216 47.99 71.9109 47.9472 72.1291 47.933L72.2495 47.93C73.5892 47.93 74.2549 48.925 74.7885 49.7176C74.8775 49.8544 74.9664 49.9857 75.0583 50.1139C75.5259 50.7696 76.1369 51.7303 76.1627 51.7704L76.4382 52.1979L76.0996 52.5886C75.8386 52.8878 75.4484 53.2385 74.7771 53.2385C74.6393 53.2385 74.4873 53.2243 74.3238 53.1929C74.1802 53.1672 74.0513 53.1245 73.925 53.0732C73.9048 53.2044 73.8791 53.3612 73.8532 53.4952L73.4142 55.7701C76.0395 55.1287 77.7064 53.1588 77.7064 50.342L77.709 41.832Z" fill="#FFDD2D"/>
<path d="M54.951 41.148H72.6496C71.7659 40.2415 71.7773 39.0926 72.004 38.3456C71.7458 38.2231 71.5335 38.0747 71.3442 37.9151C70.6527 38.4226 68.5411 39.9507 67.9904 40.3327L67.8728 40.4125L60.9269 39.1638H60.7863C60.62 39.1638 60.376 39.1581 60.1093 39.1268C60.0346 39.4375 59.765 39.6514 59.4551 39.6514C59.4207 39.6514 59.3806 39.6486 59.3433 39.6399C59.1626 39.6085 59.0046 39.5174 58.8986 39.3662C58.7895 39.218 58.7466 39.0412 58.778 38.8588L58.8039 38.7106C58.0867 38.2087 57.4268 37.0883 57.7195 35.9081L57.7482 35.7826L57.8485 35.7113C57.8628 35.6999 57.9834 35.6202 58.1612 35.5174L57.6564 35.4405C57.4669 35.4063 57.3407 35.2323 57.3695 35.047C57.401 34.8589 57.5789 34.7249 57.7654 34.762L58.9675 34.9502L59.0765 30.7422L60.8666 28.8604L61.9827 31.1955L60.8036 35.2437L61.8651 35.409C62.0516 35.4377 62.1807 35.6115 62.152 35.8025C62.1232 35.9708 61.9799 36.0875 61.8106 36.0875C61.7933 36.0875 61.7732 36.0875 61.7562 36.0848L60.8924 35.9451C60.904 35.9708 60.9212 35.985 60.9327 36.0135C61.0246 36.2016 61.2282 36.3385 61.3487 36.3956L66.6447 36.4782C66.8686 36.2616 67.4251 35.7198 67.996 35.1469C66.6935 34.6564 66.2203 33.5389 66.1398 32.7977C65.4111 32.4896 64.9091 32.028 64.6308 31.4264C64.2921 30.6823 64.4128 29.9383 64.5016 29.576C63.7959 29.3195 63.0529 28.8519 62.2955 28.105H54.3198C54.6612 29.0173 54.951 30.0065 54.951 30.9902V41.148Z" fill="#FFDD2D"/>
<path d="M62.2395 45.5235C62.1103 45.5121 62.0012 45.6119 61.9927 45.7374C61.9841 45.8684 62.0815 45.9797 62.2137 45.9825C62.3399 45.9939 62.4517 45.8969 62.4631 45.7688C62.4631 45.6433 62.3714 45.5265 62.2395 45.5235Z" fill="black"/>
<path d="M77.6782 60.9499L76.3671 60.451L76.7285 59.1053L77.1273 57.6372C77.1273 57.6372 74.8036 58.8886 71.53 59.8295C70.6004 60.0947 69.8975 60.2144 69.8975 60.2144V61.2122C69.8975 61.2122 68.1474 61.5145 66.3774 61.5145H66.3573H66.3316H66.2971H66.2769C64.5067 61.5145 62.7568 61.2122 62.7568 61.2122V60.2144C62.7568 60.2144 62.0509 60.0947 61.1244 59.8295C57.8508 58.8886 55.5299 57.6372 55.5299 57.6372L55.9229 59.1053L56.2931 60.451L54.979 60.9499L53.5215 61.4916C55.1941 62.2928 57.5094 63.4616 59.6296 64.0374L59.1304 65.3944C59.1304 65.3944 61.8186 66.6118 66.2971 66.6232V66.6262H66.3114H66.3316H66.3486H66.3602V66.6232C70.8443 66.6118 73.5296 65.3944 73.5296 65.3944L73.0276 64.0374C75.1477 63.4616 77.4687 62.2928 79.1327 61.4916L77.6782 60.9499ZM55.0765 61.5828L57.234 60.87L56.5972 58.8032C57.5467 59.3391 59.6783 60.1431 60.9119 60.5165L59.8705 63.3589C57.9656 62.8373 56.379 62.23 55.0765 61.5828ZM66.3316 65.9106C63.8269 65.9106 60.9664 65.3374 60.1259 65.0409L61.4055 61.5999C62.467 61.9078 64.6761 62.2357 66.2797 62.2243H66.2827H66.3316H66.3745H66.3803C67.984 62.2357 70.1874 61.9078 71.2545 61.5999L72.5313 65.0409C71.6906 65.3404 68.8331 65.9106 66.3316 65.9106ZM72.7866 63.3589L71.7481 60.5165C72.9846 60.1431 75.1105 59.3391 76.0628 58.8032L75.429 60.87L77.5835 61.5828C76.278 62.23 74.7002 62.8373 72.7866 63.3589Z" fill="black"/>
<path d="M66.3285 7.2388C68.9967 7.2388 71.1313 8.1168 72.3102 9.05474C72.3102 9.05474 72.6604 6.95943 73.8567 5.10918L71.7078 5.35148L70.5832 2.97664L68.4229 4.0827L66.3285 2.02448L64.2399 4.0827L62.0768 2.97664L60.955 5.35148L58.8062 5.10918C60.0025 6.95943 60.3526 9.05474 60.3526 9.05474C61.5345 8.1168 63.6633 7.2388 66.3285 7.2388ZM60.8574 6.18389L61.4542 6.24663L61.7124 5.70781L62.4642 4.11129L63.8584 4.82688L64.3977 5.10054L64.8282 4.67869L66.3314 3.19621L67.8376 4.67869L68.2679 5.10054L68.8072 4.82688L70.193 4.11129L70.9533 5.70781L71.2058 6.24663L71.8026 6.18389L72.3705 6.11543C72.1095 6.69999 71.9173 7.25302 71.7796 7.71195C70.2762 6.87955 68.3196 6.40624 66.3258 6.40624C64.3403 6.40624 62.3865 6.87955 60.8776 7.71195C60.737 7.25302 60.5477 6.69705 60.2865 6.11543L60.8574 6.18389Z" fill="black"/>
<path d="M97.6317 35.0438C101.083 35.0438 102.236 31.5542 102.285 31.4059L102.67 30.1773L101.376 30.2171H101.37C100.914 30.2171 97.1068 30.1173 94.407 26.7076L94.1516 26.3911C92.3873 24.1617 90.7146 22.0435 87.7252 21.077C87.8113 20.9999 87.9347 20.9031 88.104 20.7948C89.6904 19.757 90.6143 18.4969 90.8466 17.0344C91.1852 14.8334 89.7737 13.0802 89.7104 13.0088L88.7494 11.8285L88.1499 13.2283C88.1098 13.3167 87.0998 15.5576 84.9768 15.5576H84.819C84.6727 15.549 84.535 15.5432 84.3973 15.5319C84.4718 14.5312 84.2881 12.9831 82.8768 11.532C81.1811 9.78438 79.0983 9.52216 78.008 9.52216C77.4257 9.52216 77.0383 9.59339 76.9982 9.59911L75.5465 9.8842L76.4415 11.0559C77.1446 11.9597 77.7815 13.6275 77.0269 14.4999C76.7859 14.7763 76.2896 15.0016 75.8133 15.2268C74.835 15.6745 73.501 16.2959 73.501 17.8812C73.501 18.9074 74.3014 19.9794 75.7532 20.8917C80.0507 23.5773 82.7017 26.3796 83.8464 29.4731C85.6166 34.2313 83.307 36.9453 81.0635 38.3737L80.0565 39.018L80.9373 39.8219C81.0549 39.9245 82.1336 40.8683 83.7258 41.0049C84.0271 41.025 84.3169 41.0421 84.5866 41.0421C85.608 41.0421 86.4774 40.8824 87.1831 40.6687C86.988 41.0079 86.7498 41.3528 86.4486 41.7007C85.1661 43.1774 83.5883 43.8502 81.3188 43.8845L80.4754 43.8988L80.4094 44.7398C80.4008 44.9079 80.3376 46.4675 81.8238 47.7931C82.0503 47.9984 82.3258 48.1665 82.6128 48.3063C81.6058 49.2071 80.5815 50.7752 80.3836 53.4636C80.2172 55.7072 79.6779 56.5369 79.6721 56.5455L78.7396 57.9595L80.4239 57.9824C83.2066 57.9824 85.3382 57.2183 86.8158 55.7072C87.6878 54.8121 88.1871 53.8029 88.4826 52.9077C88.9674 53.3182 89.593 53.6775 90.4077 53.8685C90.7176 53.9397 91.0561 53.9798 91.4205 53.9798C92.2066 53.9798 92.8635 53.8143 92.9382 53.7972L94.0141 53.5122L93.5377 52.5142C93.5033 52.4344 92.6054 50.4331 93.5722 47.5764C93.9882 46.342 94.2004 45.2359 94.3038 44.3748C94.9808 44.7255 95.8873 45.0163 97.0608 45.0191C99.7231 45.0191 100.897 43.0434 100.951 42.9608L101.476 42.0542L100.504 41.6551C97.3304 40.3465 96.6277 36.8312 96.487 34.9269C96.7739 34.9809 97.1009 35.0323 97.4711 35.0438H97.6317ZM100.148 42.4962C100.148 42.4962 99.2182 44.1011 97.0866 44.1011H97.0608C94.5017 44.087 93.4688 42.536 93.4688 42.536C93.4688 42.536 93.6181 44.5545 92.6942 47.277C91.584 50.5586 92.7028 52.9048 92.7028 52.9048C92.7028 52.9048 92.1062 53.0645 91.4175 53.0645C91.1537 53.0645 90.8783 53.0388 90.62 52.9703C88.4826 52.4658 87.9491 50.5328 87.9491 50.5328C87.9491 50.5328 88.1469 57.0645 80.484 57.0645H80.4239C80.4239 57.0645 81.098 56.1522 81.2987 53.5263C81.6631 48.6797 84.9654 48.0155 84.9654 48.0155C84.9654 48.0155 83.2038 47.7959 82.4406 47.1146C81.2472 46.0397 81.3303 44.7968 81.3303 44.7968C84.0271 44.7597 85.7917 43.8474 87.1371 42.2994C88.5946 40.6231 88.8356 38.8184 88.8356 38.8184C88.8356 38.8184 87.3867 40.1241 84.5836 40.1241C84.337 40.1241 84.073 40.1127 83.8035 40.087C82.478 39.9815 81.5599 39.1434 81.5599 39.1434C84.4776 37.2845 86.5259 34.0403 84.71 29.1536C83.2554 25.2393 79.761 22.3142 76.2438 20.1104C75.0731 19.3836 74.4219 18.5767 74.4219 17.8812C74.4219 16.2446 76.7629 16.1933 77.724 15.0928C78.8315 13.8157 78.1372 11.7429 77.1761 10.4972C77.1761 10.4972 77.5004 10.4315 78.011 10.4315C79.0237 10.4315 80.7767 10.6852 82.2169 12.1679C84.1304 14.135 83.3358 16.276 83.3358 16.276L83.8494 16.3759C84.1563 16.4414 84.4604 16.4528 84.776 16.4669C84.8449 16.4669 84.9135 16.4699 84.9824 16.4699C87.7625 16.4699 89.0047 13.5819 89.0047 13.5819C89.0047 13.5819 91.9598 17.194 87.6104 20.0222C86.8616 20.5068 86.5318 20.9545 86.6178 21.4334L86.6866 21.7469L86.9965 21.8011C90.1495 22.6507 91.7447 24.8117 93.6927 27.2693C96.6507 31.0068 100.836 31.1265 101.353 31.1265H101.407C101.407 31.1265 100.452 34.1229 97.6375 34.1229C97.5915 34.1229 97.5514 34.1229 97.5027 34.12C96.2087 34.0744 95.546 33.5812 95.546 33.5812C95.546 33.5812 95.0382 40.3864 100.148 42.4962Z" fill="black"/>
<path d="M91.5697 21.4533C92.8577 22.1344 93.6065 23.0469 94.2636 23.8565C94.909 24.6462 95.523 25.4075 96.4812 25.7238C96.8225 25.8407 97.1842 25.895 97.5514 25.895C98.9917 25.895 100.438 25.0197 100.986 23.8079L101.536 22.5935L100.202 22.5136C100.139 22.511 98.4235 22.3568 96.5128 20.4155C95.7266 19.6199 94.7772 19.2009 93.7528 19.2009C92.502 19.2009 91.5753 19.8224 91.4721 19.8851L90.2441 20.7433L91.5697 21.4533ZM93.7558 20.1189C94.3984 20.1189 95.1472 20.3356 95.8558 21.0626C98.0792 23.3062 100.148 23.4317 100.148 23.4317C99.7719 24.2586 98.6818 24.9853 97.5541 24.9853C97.2931 24.9853 97.032 24.9455 96.771 24.8572C95.2419 24.344 94.6939 22.0633 92.0056 20.6435C92.0056 20.6435 92.7572 20.1189 93.7558 20.1189Z" fill="black"/>
<path d="M92.1724 33.5667V33.6122C91.3979 27.4029 86.859 22.9185 81.8097 20.19C81.342 19.942 80.9117 19.7311 80.493 19.5287C82.0307 19.7653 84.5065 19.7938 86.4173 18.146C86.4173 18.146 83.4938 20.2841 77.5034 18.3427C79.1617 19.4118 82.3835 20.92 85.3242 23.3632C92.6774 29.7835 87.4156 36.047 87.4156 36.047C90.058 33.3072 90.167 30.3708 89.3893 27.9732C90.7809 30.2738 91.6703 33.0678 91.5326 36.5116C91.329 41.4466 88.6006 45.7145 85.7286 49.1443C84.3488 50.809 84.0389 52.8532 84.0389 52.8532C84.0389 52.8532 84.5954 51.0486 86.1934 49.1927C89.2719 45.6119 91.9026 41.8915 92.2469 36.5315C92.5654 37.5038 93.8766 40.2093 95.9565 41.2272C95.9622 41.23 93.3486 39.6648 92.1724 33.5667Z" fill="black"/>
<path d="M52.9851 56.5424C52.9822 56.5339 52.4487 55.7042 52.2766 53.4606C52.0755 50.7721 51.0543 49.2042 50.0444 48.3032C50.3371 48.1664 50.6067 47.9981 50.8333 47.79C52.3167 46.4643 52.2535 44.9049 52.2449 44.7366L52.1876 43.8955L51.3383 43.8814C49.0747 43.8442 47.4939 43.1714 46.2115 41.6975C45.9132 41.3498 45.672 41.0048 45.4769 40.6655C46.1828 40.8793 47.0464 41.0389 48.0705 41.0389C48.3459 41.0389 48.63 41.0219 48.9312 41.0019C50.5234 40.865 51.6023 39.9243 51.7227 39.8187L52.6035 39.0149L51.5965 38.3704C49.3445 36.9393 47.0434 34.2253 48.8107 29.4698C49.9555 26.3766 52.6035 23.5741 56.9069 20.8885C58.3586 19.9762 59.1534 18.9043 59.1534 17.8779C59.1534 16.293 57.8221 15.6685 56.8439 15.2238C56.3677 14.9985 55.8713 14.7733 55.6302 14.4968C54.8729 13.6272 55.5126 11.9565 56.2127 11.0528L57.1135 9.88101L55.6562 9.59594C55.6131 9.59036 55.2315 9.51898 54.6462 9.51898C53.556 9.51898 51.4789 9.78134 49.7804 11.529C48.3661 12.9829 48.1796 14.5311 48.2513 15.5288C48.1135 15.5402 47.976 15.546 47.8325 15.5545H47.6776C45.5488 15.5545 44.5418 13.3136 44.5017 13.2252L43.902 11.8254L42.9322 13.0058C42.8777 13.077 41.4605 14.8332 41.8048 17.0312C42.0343 18.4938 42.9581 19.7539 44.5446 20.7917C44.7168 20.9 44.8373 20.9968 44.9234 21.0739C41.9367 22.0402 40.2671 24.1614 38.5025 26.3909L38.2473 26.7074C35.5505 30.117 31.7348 30.2168 31.2787 30.2168L29.979 30.177L30.3749 31.4058C30.4207 31.5539 31.5712 35.0434 35.0255 35.0434L35.1918 35.0378C35.5562 35.0264 35.8833 34.9779 36.1759 34.9209C36.0324 36.8224 35.3296 40.3377 32.1535 41.6491L31.1839 42.0482L31.709 42.9548C31.7607 43.0374 32.9369 45.0132 35.605 45.0132C36.7697 45.0102 37.6762 44.7195 38.3563 44.3689C38.4596 45.2299 38.6718 46.336 39.0878 47.5705C40.0546 50.4272 39.1539 52.4285 39.1195 52.5083L38.6433 53.5062L39.7219 53.7913C39.7936 53.8082 40.4564 53.9738 41.2395 53.9738C41.6067 53.9738 41.9454 53.9337 42.2495 53.8626C43.0671 53.6715 43.6983 53.3123 44.1774 52.9017C44.4701 53.7969 44.9722 54.8062 45.8413 55.7012C47.3218 57.2124 49.4505 57.9763 52.2335 57.9763L53.9204 57.9536L52.9851 56.5424ZM52.1703 57.064C44.5073 57.064 44.7024 50.5325 44.7024 50.5325C44.7024 50.5325 44.1688 52.4655 42.0314 52.9702C41.776 53.0385 41.5035 53.0642 41.2368 53.0642C40.5482 53.0642 39.9543 52.9047 39.9543 52.9047C39.9543 52.9047 41.0676 50.5582 39.9572 47.2768C39.0391 44.5541 39.1882 42.5357 39.1882 42.5357C39.1882 42.5357 38.1583 44.0867 35.5964 44.1009H35.5706C33.439 44.1009 32.5093 42.4957 32.5093 42.4957C37.6161 40.389 37.1141 33.5867 37.1141 33.5867C37.1141 33.5867 36.4514 34.077 35.1545 34.1254C35.1086 34.1282 35.0656 34.1282 35.0197 34.1282C32.2024 34.1282 31.2499 31.1319 31.2499 31.1319H31.3072C31.8266 31.1319 36.0067 31.0123 38.9646 27.2747C40.9126 24.8172 42.5105 22.659 45.6579 21.8065L45.9735 21.7524L46.0422 21.4388C46.1283 20.96 45.8012 20.5123 45.0526 20.0275C40.703 17.1965 43.6582 13.5874 43.6582 13.5874C43.6582 13.5874 44.8946 16.4724 47.6804 16.4724C47.7492 16.4724 47.8124 16.4697 47.8841 16.4697C48.1968 16.4525 48.5067 16.441 48.8107 16.3755L49.3243 16.2757C49.3243 16.2757 48.5296 14.1346 50.4461 12.1675C51.8863 10.6822 53.6393 10.4313 54.649 10.4313C55.1626 10.4313 55.4811 10.4969 55.4811 10.4969C54.5228 11.7456 53.8287 13.8154 54.936 15.0925C55.8942 16.1903 58.2324 16.2444 58.2324 17.8808C58.2324 18.5737 57.5811 19.3833 56.4106 20.1102C52.8904 22.314 49.396 25.239 47.9443 29.1534C46.1311 34.04 48.1768 37.2814 51.1003 39.1431C51.1003 39.1431 50.1821 39.9814 48.8539 40.0867C48.5841 40.1124 48.3231 40.1238 48.0705 40.1238C45.2704 40.1238 43.8216 38.8181 43.8216 38.8181C43.8216 38.8181 44.0626 40.6227 45.5114 42.2991C46.8657 43.8472 48.63 44.7595 51.3269 44.7965C51.3269 44.7965 51.413 46.0395 50.2195 47.1143C49.4534 47.7928 47.6919 48.0152 47.6919 48.0152C47.6919 48.0152 50.9969 48.6795 51.3583 53.5261C51.5564 56.1517 52.2247 57.064 52.2247 57.064H52.1703Z" fill="black"/>
<path d="M35.1032 25.8981C35.4732 25.8981 35.8348 25.844 36.1763 25.7271C37.1401 25.4106 37.7513 24.6494 38.3967 23.8598C39.0566 23.0501 39.7996 22.1379 41.0878 21.4564L42.4132 20.7494L41.1826 19.8912C41.0792 19.8257 40.1554 19.207 38.9074 19.207C37.8803 19.207 36.9279 19.6234 36.1445 20.4216C34.234 22.3602 32.5212 22.5171 32.458 22.5199L31.124 22.5968L31.6719 23.814C32.2228 25.0201 33.6658 25.8981 35.1032 25.8981ZM36.8017 21.0659C37.5132 20.3388 38.2619 20.1223 38.9074 20.1223C39.9 20.1223 40.6519 20.6467 40.6519 20.6467C37.9664 22.0694 37.4156 24.3473 35.8807 24.8604C35.6283 24.9488 35.3643 24.9888 35.1032 24.9888C33.9756 24.9888 32.8855 24.2647 32.5125 23.435C32.5125 23.4322 34.5782 23.3067 36.8017 21.0659Z" fill="black"/>
<path d="M41.1251 36.5147C40.9815 33.0707 41.8709 30.2768 43.2652 27.9762C42.4877 30.3737 42.5939 33.3103 45.2391 36.05C45.2391 36.05 39.9775 29.7864 47.3335 23.3662C50.277 20.9229 53.496 19.4147 55.1513 18.3456C49.164 20.2872 46.2405 18.1489 46.2405 18.1489C48.151 19.7967 50.6271 19.7684 52.1648 19.5288C51.7488 19.7312 51.3128 19.9422 50.8508 20.1903C45.7958 22.9186 41.2599 27.403 40.4825 33.6124V33.564C39.309 39.6621 36.6982 41.2273 36.6982 41.2273C38.7755 40.2094 40.0837 37.5068 40.4021 36.5317C40.7493 41.8916 43.38 45.612 46.4585 49.1928C48.0565 51.0487 48.6188 52.8533 48.6188 52.8533C48.6188 52.8533 48.3061 50.8093 46.9203 49.1444C44.0542 45.7204 41.3259 41.4497 41.1251 36.5147Z" fill="black"/>
<path d="M64.5991 23.9504V25.1822C65.0267 24.6661 65.8531 24.7717 65.8531 24.7717V26.5477C65.8531 26.5477 65.8243 27.4201 65.5115 27.7993H66.4066H67.299C66.9919 27.4231 66.9604 26.5477 66.9604 26.5477V24.7717C66.9604 24.7717 67.7866 24.6661 68.2113 25.1822V23.9504H66.4066H64.5991Z" fill="black"/>
<path d="M63.8298 16.6465C64.4007 17.0971 64.7307 17.1711 64.7421 17.1797L64.9659 17.2823V16.122L62.8657 15.2439C62.8657 15.2467 62.8858 15.9167 63.8298 16.6465Z" fill="black"/>
<path d="M68.8241 16.6465C69.7738 15.9167 69.7911 15.2439 69.7911 15.2439L67.6909 16.122V17.2823L67.9119 17.1797C67.9263 17.1711 68.2532 17.0971 68.8241 16.6465Z" fill="black"/>
<path d="M72.6092 11.9228C72.6092 10.1638 69.6283 8.58154 66.3376 8.58154H66.3348H66.3262H66.3175C63.0269 8.58154 60.0461 10.1638 60.0461 11.9228L60.112 12.3562L61.4259 19.8513L60.1063 20.6125L56.6923 22.5939H56.7037C56.7037 22.5939 55.9349 22.9845 55.5791 23.2268C54.2794 24.1248 54.004 25.4334 54.7586 25.9751C54.9451 24.9089 55.7941 23.7912 57.3836 23.7912C58.5284 23.7912 59.4005 24.3786 60.1063 25.2596C60.287 25.4819 60.4591 25.7184 60.6198 25.9751C60.8177 26.2972 61.0157 26.5794 61.2137 26.8532H52.4204C53.0659 28.1445 53.6797 29.5131 53.6797 30.9984V50.3392C53.6797 55.0204 57.3033 57.2555 61.2223 57.2555C64.2518 57.2555 64.6593 57.1187 66.3318 58.7723C67.9958 57.1158 68.4033 57.2555 71.4356 57.2555C75.3576 57.2555 78.9753 55.0204 78.9753 50.3392V30.9984C78.9753 29.5131 79.5893 28.1445 80.2375 26.8532H71.4415C71.6366 26.5824 71.8344 26.2972 72.0325 25.9751C72.196 25.7184 72.3653 25.4819 72.5431 25.2596C73.2547 24.3757 74.1239 23.7912 75.2687 23.7912C76.8579 23.7912 77.7043 24.9059 77.8937 25.9751C78.6483 25.4334 78.3758 24.1248 77.0674 23.2268C76.7174 22.9845 75.9486 22.5939 75.9486 22.5939H75.96L72.546 20.6125L71.232 19.8513L72.546 12.3562L72.6092 11.9228ZM61.3399 12.7952L65.959 14.3519V21.5619L62.5593 19.7801L61.3399 12.7952ZM62.2953 28.1105C63.0527 28.8601 63.7957 29.325 64.5016 29.5816C64.4097 29.9435 64.2891 30.6905 64.6305 31.4346C64.9089 32.0332 65.4139 32.4952 66.1397 32.8031C66.22 33.5444 66.6905 34.6591 67.9958 35.1522C67.4249 35.7253 66.8683 36.2641 66.6417 36.4837L61.3486 36.4009C61.228 36.3411 61.0243 36.2071 60.9325 36.0161C60.9209 35.9904 60.9038 35.9761 60.8951 35.9476L61.7588 36.0872C61.7789 36.0902 61.7961 36.0902 61.8133 36.0902C61.9798 36.0902 62.126 35.9761 62.1547 35.8052C62.1835 35.6142 62.0543 35.4402 61.8678 35.4117L60.8063 35.2464L61.9854 31.2009L60.8694 28.8659L59.0793 30.7475L58.9702 34.9556L57.768 34.7674C57.5815 34.7303 57.4037 34.8672 57.3722 35.0524C57.3435 35.2378 57.4696 35.4117 57.659 35.4459L58.164 35.5228C57.9832 35.6255 57.8656 35.7054 57.8512 35.7168L57.748 35.788L57.7193 35.9135C57.4267 37.0937 58.0894 38.2141 58.8038 38.7158L58.7779 38.8642C58.7492 39.0467 58.7894 39.2235 58.8983 39.3717C59.0016 39.5228 59.1623 39.614 59.3403 39.6453C59.3774 39.651 59.4177 39.6538 59.4521 39.6538C59.762 39.6538 60.0317 39.4401 60.109 39.1293C60.376 39.1608 60.6198 39.1665 60.7861 39.1665H60.9269L67.8725 40.4122L67.9901 40.3352C68.5439 39.9504 70.6525 38.4223 71.3438 37.9176C71.5333 38.0802 71.7455 38.2283 72.0038 38.351C71.7799 39.098 71.7655 40.2469 72.6521 41.1535H54.9507V31.0012C54.9507 30.0177 54.6609 29.0284 54.3195 28.1161H62.2953V28.1105ZM70.8791 37.3988C70.1763 37.912 68.3688 39.2235 67.7146 39.6796L61.403 38.5535C61.4174 38.4964 61.4316 38.4422 61.446 38.3852C61.5293 38.0602 61.6126 37.6155 61.6182 37.0937L66.9229 37.1792L67.0233 37.0768C67.1036 36.9969 68.7849 35.3832 69.6425 34.4537C69.8464 34.7075 70.1016 34.9499 70.4345 35.1637C70.3198 35.7795 70.3685 36.6575 70.8791 37.3988ZM60.3129 36.3126C60.462 36.6233 60.7318 36.8315 60.9181 36.9483C60.9125 37.2391 60.8838 37.6924 60.8063 38.0915C60.7891 38.18 60.7661 38.2626 60.7402 38.3454C60.7258 38.3966 60.7117 38.4394 60.7001 38.4736C60.4219 38.4736 59.8738 38.4394 59.4263 38.2769C58.9301 38.0944 58.1897 37.1907 58.3618 36.1957C58.5771 36.0645 59.0734 35.788 59.5381 35.788C59.8968 35.7853 60.1408 35.9533 60.3129 36.3126ZM59.6558 35.061L59.762 31.0213L60.6743 30.0606L61.2482 31.2522L60.1178 35.1294L59.6558 35.061ZM70.8218 56.004C70.4774 56.004 70.1591 56.0098 69.8721 56.0211L70.6237 53.6976C70.7414 53.3754 70.1475 52.9621 69.9038 52.6C70.2737 52.8309 71.232 53.3355 71.694 53.5379C71.6451 53.612 70.8218 56.004 70.8218 56.004ZM73.1801 53.364L72.6895 55.907C72.3767 55.9498 72.0439 55.9727 71.7026 55.9869L72.219 53.5408C72.3739 52.8138 70.4086 52.5887 69.439 51.1602C68.9656 51.6906 68.0734 51.8473 67.1782 51.8473C66.3606 51.8473 65.5429 51.7162 65.0465 51.6193C64.9203 51.5993 64.7999 51.585 64.6823 51.585C64.3953 51.585 64.1342 51.6734 63.9535 51.9757L63.81 52.2152L61.1334 51.588L60.4678 52.6825C60.373 52.8594 60.3674 53.0105 60.5193 53.1758L60.7001 53.3726C60.5767 53.7604 60.0202 54.3448 60.0202 54.3448L59.6214 53.8516C59.3059 53.5009 59.3574 52.8623 59.6873 52.2693L60.7488 50.4875L63.0154 50.8124L62.6625 50.0142C62.1891 48.9594 62.9093 47.6166 62.9866 46.844C62.9609 47.0778 62.7456 47.1291 62.4932 47.1291C62.2638 47.1291 62.0084 47.0863 61.8391 47.0863C61.7732 47.0863 61.7158 47.092 61.6841 47.1147L61.0702 47.4854L60.5854 47.0606C60.528 46.978 60.5078 46.787 60.6514 46.6444L61.7732 45.3957L60.4477 43.859L62.3039 44.7857L62.8692 44.1042C63.0239 44.2553 62.958 44.6514 62.958 44.6514C63.5375 44.6658 65.1613 45.5582 65.2474 47.6393C65.2532 47.7021 65.2532 47.7733 65.2532 47.8417C65.2532 47.8417 65.2676 47.8674 65.2961 47.9102C65.4109 48.0671 65.7264 48.469 66.1281 48.506L68.6931 48.757H68.7046C68.9856 48.757 69.5451 48.429 70.2623 48.429C70.6525 48.429 71.0886 48.5288 71.5534 48.8197C71.5534 48.8197 71.7857 48.6373 72.1645 48.6174C72.1932 48.6144 72.2246 48.6144 72.2534 48.6144C73.4039 48.6144 73.8801 49.6464 74.4969 50.5046C74.9618 51.1574 75.5813 52.1267 75.5813 52.1267C75.3519 52.3975 75.1395 52.5459 74.7838 52.5459C74.6863 52.5459 74.5742 52.5373 74.4538 52.5145C73.2202 52.2892 73.0423 49.7689 72.3394 49.5695C72.3023 49.558 72.2621 49.5552 72.2276 49.5552C72.0009 49.5552 71.9005 49.7547 71.9005 49.7547C72.2218 50.6129 72.0353 50.9608 72.3797 51.6222C72.6379 52.1125 73.0968 52.5172 73.2862 52.7082C73.2862 52.714 73.2346 53.0846 73.1801 53.364ZM59.4062 50.9578L59.5238 51.2514C59.4463 51.5081 58.5569 51.873 58.5569 51.873L58.3648 51.4568C58.1611 51.0121 58.2041 50.2622 58.8239 49.8032L60.264 48.9308L61.7903 49.2529C61.7616 49.7348 62.0513 50.0941 62.0513 50.0941L60.4504 49.789L59.4922 50.4476C59.3316 50.5587 59.3201 50.7669 59.4062 50.9578ZM73.421 55.7672L73.86 53.4923C73.8829 53.3584 73.9117 53.2015 73.9318 53.0705C74.0551 53.1217 74.187 53.1644 74.3306 53.1902C74.4939 53.2214 74.6461 53.2358 74.7838 53.2358C75.455 53.2358 75.8453 52.885 76.1063 52.5857L76.445 52.1951L76.1695 51.7676C76.1437 51.7247 75.5354 50.7668 75.065 50.111C74.9732 49.9828 74.8841 49.8545 74.7952 49.7149C74.2617 48.9223 73.5931 47.9273 72.2534 47.9273L72.1329 47.9301C71.9121 47.9444 71.7226 47.9872 71.5706 48.0442C71.1487 47.8475 70.7156 47.7477 70.2653 47.7477C69.7114 47.7477 69.2438 47.8988 68.934 48.0044C68.845 48.0299 68.7647 48.0584 68.7016 48.0699L66.197 47.8247C66.1655 47.819 66.0622 47.7592 65.9389 47.6109V47.5995L66.481 47.3828C66.3291 45.5896 64.596 44.4861 63.6293 44.1127C63.5863 43.9331 63.5002 43.7536 63.3482 43.6081L62.8087 43.1008L62.3354 43.6652L62.1031 43.953L58.5972 42.5219L60.878 45.3671L59.9772 46.7214C59.6472 47.0691 60.0116 47.4169 60.0116 47.4169L60.941 48.0527L61.9051 47.6963C61.9395 47.6963 61.9683 47.7049 61.9998 47.7078C61.9539 47.8532 61.8936 48.4234 61.8535 48.5831L60.1809 48.2551L58.4221 49.2415C57.5184 49.9001 57.395 50.9921 57.7308 51.7389L57.9259 52.1637L58.2041 52.7624L58.818 52.5088C58.8267 52.5059 58.8353 52.5031 58.841 52.4973C58.6202 53.1987 58.7091 53.8657 59.105 54.3049L59.478 54.7724L59.9742 55.3968L60.5193 54.8152C60.6799 54.6555 61.1993 54.0768 61.36 53.5807L61.4776 53.2015L61.2108 52.9107L61.1678 52.8594L61.466 52.3691L63.6493 52.8793L64.1399 52.9906L64.4009 52.563L64.5445 52.3292C64.5703 52.2808 64.579 52.2721 64.6793 52.2721C64.7568 52.2721 64.8342 52.2808 64.9175 52.2978C65.7408 52.4517 66.5012 52.5287 67.1753 52.5287C67.8294 52.5287 68.2196 52.5031 68.6873 52.3491C68.6873 52.3491 69.8606 53.672 69.9009 53.7233L69.1837 55.9241L69.1519 56.0581C67.7921 56.1665 67.1293 56.463 66.3291 57.2585C65.167 56.1124 64.3436 55.9926 61.2194 55.9926C57.481 55.9926 54.9478 53.8145 54.9478 50.3363V41.832H77.7043L77.7102 50.3363C77.713 53.1589 76.0462 55.1259 73.421 55.7672ZM78.3414 28.1105C77.9941 29.0228 77.7043 30.012 77.7043 30.9957L77.7072 37.3417C76.3733 37.1194 76.2154 35.6911 76.2096 35.6284L76.1839 35.3376L75.8971 35.3119C75.3174 35.2577 74.933 35.0126 74.6087 34.6989C73.9548 34.0489 73.9518 32.9941 73.9548 32.9856C73.9462 33.0397 73.2346 34.0289 74.0608 35.1095C74.4079 35.5656 74.91 35.845 75.5612 35.9562C75.7134 36.7488 76.3072 37.8664 77.7072 38.0373V41.1449H73.7711C71.955 40.1413 72.724 38.3737 72.7611 38.2998L72.9161 37.9633L72.569 37.8322C70.6037 37.1081 71.1431 35.158 71.1718 35.0753L71.2521 34.7903L70.9854 34.6648C69.3614 33.9178 69.5824 31.9022 69.6024 31.8196C69.1034 32.2216 68.9225 33.0426 69.2667 33.8466C69.0804 34.0576 68.8308 34.3141 68.5582 34.5936C66.877 34.1687 66.8254 32.6321 66.8254 32.5608L66.8224 32.3241L66.6016 32.2386C65.9446 31.9964 65.4942 31.6341 65.2733 31.1466C65.0237 30.6078 65.1126 30.0433 65.1814 29.7724C65.3736 29.8153 65.5658 29.8467 65.7494 29.8608C65.9389 29.881 66.134 29.8923 66.3291 29.8923H66.3406H66.3548C66.5499 29.8923 66.7421 29.881 66.9315 29.8608C67.9786 29.7583 69.1519 29.3108 70.3741 28.1077H78.3414V28.1105ZM72.2076 21.6957L73.7625 22.5939H73.7855L74.1756 22.8192C73.2976 23.0615 72.6263 23.4977 72.064 24.0706C72.0439 24.0878 72.0239 24.1107 72.0038 24.1306C71.8747 24.2674 71.7455 24.4156 71.6251 24.5668C71.6022 24.5952 71.5792 24.6265 71.5534 24.658C71.4329 24.8119 71.321 24.9688 71.212 25.1341C71.1946 25.1626 71.1746 25.1911 71.1545 25.2167C71.0255 25.4077 70.9021 25.6131 70.7787 25.824C69.6713 27.7199 67.9041 28.8517 66.3318 28.8546C64.7626 28.8517 62.9954 27.7199 61.888 25.824C61.7673 25.6187 61.6469 25.4191 61.5178 25.2254C61.4918 25.1883 61.469 25.1512 61.446 25.1198C61.3371 24.963 61.228 24.8091 61.116 24.6637C61.0875 24.6239 61.0617 24.5924 61.0329 24.5582C60.9125 24.4128 60.7891 24.2674 60.6657 24.1334C60.6398 24.1134 60.6226 24.0878 60.5969 24.0649C60.0317 23.4919 59.3632 23.0585 58.4824 22.8192L58.8782 22.5939H58.8956L60.4504 21.6957L62.0485 20.7864L66.3175 23.0956L66.3262 23.0872L66.3376 23.0956L70.6066 20.7864L72.2076 21.6957ZM70.1016 19.7828L66.699 21.5647V14.3519L71.3152 12.7952L70.1016 19.7828ZM66.3291 13.5593L61.2682 11.5722C61.6985 10.56 63.6838 9.69905 66.3291 9.69626C68.977 9.69905 70.9624 10.56 71.3897 11.5722L66.3291 13.5593Z" fill="black"/>
<path d="M9.10345 95.4629V86.5384H14.3713V83.2908H0V86.5384H5.26769V95.4629H9.10345ZM19.6142 90.3742V83.2908H15.9064V95.4629H19.1797L25.5724 88.3795V95.4629H29.2804V83.2908H26.0071L19.6142 90.3742ZM41.7546 90.9368V95.4629H45.4625V83.2908H41.7546V87.7401H35.7963V83.2908H32.0886V95.4629H35.7963V90.9368H41.7546ZM55.7887 95.4629C56.6325 95.4629 57.3997 95.3862 58.1157 95.1815C60.0336 94.6445 61.2867 93.0846 61.2867 90.9622C61.2867 88.9421 60.2125 87.5357 58.4993 86.8963C57.681 86.5895 56.7093 86.5638 55.7887 86.5638H51.9785V83.2908H48.2706V95.4629H55.7887ZM55.1495 89.428C55.6608 89.428 56.1466 89.428 56.5814 89.5815C57.1951 89.7859 57.5531 90.2974 57.5531 90.9111C57.5531 91.5504 57.1951 92.0875 56.607 92.3432C56.1978 92.522 55.7887 92.522 55.1495 92.522H51.9785V89.428H55.1495ZM67.9348 90.8599L72.3587 95.4629H77.2941L71.1313 89.1211L77.0639 83.2908H72.41L67.9348 87.8681H66.912V83.2908H63.204V95.4629H66.912V90.8599H67.9348ZM84.9237 82.9583C79.9372 82.9583 76.9453 85.7711 76.9453 89.4023C76.9453 93.0337 79.9372 95.8464 84.9237 95.8464C89.8845 95.8464 92.8765 93.0337 92.8765 89.4023C92.8765 85.7711 89.8845 82.9583 84.9237 82.9583ZM84.9237 92.8802C82.4432 92.8802 80.8577 91.397 80.8577 89.4023C80.8577 87.4078 82.4432 85.9501 84.9237 85.9501C87.3785 85.9501 88.9896 87.4078 88.9896 89.4023C88.9896 91.397 87.3785 92.8802 84.9237 92.8802ZM105.225 82.6003H101.517V83.8277C96.8632 83.93 94.0758 85.899 94.0758 89.3768C94.0758 92.8545 96.8632 94.6702 101.517 94.7725V95.9999H105.225V94.7725C109.905 94.6702 112.692 92.8545 112.692 89.3768C112.692 85.899 109.905 83.93 105.225 83.8277V82.6003ZM101.517 92.1641C98.96 92.0618 97.8347 91.0134 97.8347 89.3768C97.8347 87.7401 98.96 86.5638 101.517 86.4616V92.1641ZM105.225 86.4616C107.808 86.5638 108.907 87.7401 108.907 89.3768C108.907 91.0134 107.808 92.0618 105.225 92.1641V86.4616ZM125.028 82.6003H121.32V83.8277C116.666 83.93 113.879 85.899 113.879 89.3768C113.879 92.8545 116.666 94.6702 121.32 94.7725V95.9999H125.028V94.7725C129.707 94.6702 132.495 92.8545 132.495 89.3768C132.495 85.899 129.707 83.93 125.028 83.8277V82.6003ZM121.32 92.1641C118.763 92.0618 117.638 91.0134 117.638 89.3768C117.638 87.7401 118.763 86.5638 121.32 86.4616V92.1641ZM125.028 86.4616C127.611 86.5638 128.71 87.7401 128.71 89.3768C128.71 91.0134 127.611 92.0618 125.028 92.1641V86.4616Z" fill="black"/>
</g>
<defs>
<clipPath id="clip0_29_743">
<rect width="132.565" height="96" fill="white"/>
</clipPath>
</defs>
</svg>
