<svg width="124" height="27" viewBox="0 0 124 27" fill="none" xmlns="http://www.w3.org/2000/svg">
<path d="M51.945 19.9803H41.4013L54.862 2.25098C55.1553 1.86169 55.0739 1.29396 54.6827 1.00199C54.5361 0.888441 54.3405 0.823557 54.145 0.823557H34.6709C32.9598 0.823557 31.5583 2.21854 31.5583 3.92172C31.5583 5.62491 32.9598 7.01989 34.6709 7.01989H43.422L29.9124 24.7654C29.6027 25.1547 29.6842 25.7062 30.0753 26.0144C30.2383 26.1442 30.4339 26.2091 30.6294 26.1928H51.9287C53.6398 26.1117 54.9598 24.6519 54.8783 22.9325C54.7968 21.3428 53.5257 20.0776 51.9287 19.9965V19.9803H51.945ZM119.998 0.823557C118.287 0.823557 116.886 2.21854 116.886 3.92172V14.3192L100.068 1.03443C99.6931 0.726233 99.1227 0.774895 98.8131 1.16419C98.6827 1.3264 98.6176 1.52105 98.6176 1.73192V23.0947C98.6176 24.7979 100.019 26.1928 101.73 26.1928C103.441 26.1928 104.843 24.8141 104.843 23.0947V12.6972L121.661 25.9982C122.052 26.3064 122.622 26.2415 122.932 25.8522C123.062 25.69 123.127 25.4953 123.127 25.3007V3.92172C123.111 2.20232 121.726 0.823557 119.998 0.823557ZM75.4931 20.5642C68.3716 20.5642 63.059 16.8335 63.059 13.492C63.059 10.1505 68.3879 6.41972 75.4931 6.41972C82.6146 6.41972 87.9272 10.1505 87.9272 13.492C87.9272 16.8335 82.6309 20.5642 75.4931 20.5642ZM75.4931 0.223389C65.1939 0.223389 56.8339 6.16019 56.8339 13.492C56.8339 20.8238 65.1939 26.7606 75.4931 26.7606C85.7924 26.7606 94.1524 20.8238 94.1524 13.492C94.1524 6.16019 85.7924 0.223389 75.4931 0.223389ZM14.2353 20.5805C10.3079 20.5805 7.11386 17.4174 7.11386 13.5082C7.11386 9.59899 10.2916 6.41972 14.219 6.41972C18.1465 6.41972 21.3405 9.58277 21.3405 13.492V13.5082C21.3405 17.4012 18.1627 20.5642 14.2353 20.5805ZM14.2353 0.223389C6.86941 0.223389 0.904968 6.16019 0.888672 13.492C0.888672 20.8238 6.85312 26.7606 14.219 26.7768C21.585 26.7768 27.5494 20.84 27.5657 13.5082V13.492C27.5494 6.16019 21.585 0.223389 14.2353 0.223389Z" fill="#005BFF"/>
</svg>
