<svg width="130" height="27" viewBox="0 0 130 27" fill="none" xmlns="http://www.w3.org/2000/svg">
<path fill-rule="evenodd" clip-rule="evenodd" d="M86.7901 11.2397L91.0024 2.83415H91.0767L95.7323 11.2397H100.52L94.3419 0.378502H90.2964L84.7125 11.2397H86.7901ZM20.5755 6.49887L27.1801 6.42317C27.1058 7.93433 26.2525 8.78401 25.8071 9.14341C24.7127 9.99308 23.1541 10.0695 22.412 10.0695C21.3176 10.0695 20.3705 9.9188 19.4067 9.35211C18.7946 8.99271 18.0893 8.38782 17.737 7.87844L17.4396 7.44405L15.2876 8.65313C15.9185 9.37051 16.9018 10.0893 17.9413 10.5987C19.5367 11.3727 21.0021 11.5616 22.7831 11.5616C24.6752 11.5616 27.6256 11.2963 29.7588 9.7292C31.243 8.63332 31.9295 7.14126 31.9295 5.81899C31.9295 4.49671 31.243 2.98555 29.7588 1.90877C27.9223 0.549004 25.2325 0.0764085 22.8387 0.0764085C21.2801 0.0764085 19.8515 0.227807 18.4048 0.756291C17.1985 1.17158 16.2528 1.73827 15.2876 2.56955L17.4396 3.75952L17.9594 3.21264C18.386 2.74005 19.1093 2.30566 19.759 2.04107C20.6311 1.66328 21.54 1.55008 22.4864 1.55008C24.3972 1.55008 25.4916 2.15497 26.1038 2.74005C26.5124 3.11855 27.0502 3.83593 27.1801 4.93181L20.5755 4.83701V6.49887ZM108.478 1.39868C109.555 1.39868 110.779 1.62507 111.726 2.81505C112.486 3.75952 112.616 4.8554 112.616 5.81899C112.616 6.78186 112.485 7.85863 111.726 8.82221C110.779 10.0122 109.555 10.2386 108.478 10.2386C107.402 10.2386 106.177 10.0122 105.232 8.82221C104.471 7.85863 104.342 6.78186 104.342 5.81899C104.342 4.8554 104.472 3.75952 105.232 2.81505C106.178 1.62507 107.402 1.39868 108.478 1.39868ZM108.478 11.5616C110.483 11.5616 113.284 11.1081 115.157 9.7292C116.641 8.65242 117.347 7.12215 117.347 5.81899C117.347 4.51511 116.641 2.98555 115.157 1.90877C113.284 0.53061 110.482 0.0764085 108.478 0.0764085C106.494 0.0764085 103.674 0.53061 101.78 1.90877C100.296 2.98555 99.6103 4.51582 99.6103 5.81899C99.6103 7.12215 100.296 8.65242 101.78 9.7292C103.674 11.1081 106.494 11.5616 108.478 11.5616ZM71.6887 3.11785C72.1335 2.97857 72.5964 2.90845 73.0618 2.90985H73.5634V8.55762H73.0618C72.5964 8.55897 72.1335 8.48885 71.6887 8.34962C71.3177 8.23642 70.9827 8.08502 70.7236 7.85863C70.2226 7.46174 69.814 6.80096 69.814 5.72418C69.814 4.66651 70.2226 4.00502 70.7236 3.60883C70.9827 3.38173 71.3177 3.23104 71.6887 3.11785ZM79.4441 9.93649C81.8365 9.7858 83.0983 9.21911 83.7668 8.80311C85.0273 8.02843 85.6033 6.93326 85.6033 5.72418C85.6033 4.13732 84.5825 3.19284 83.7668 2.66436C82.6348 1.92787 81.0395 1.62507 79.4441 1.53098C79.0174 1.49207 78.5901 1.49207 78.1627 1.49207H77.6993V0H73.4134V1.49207H72.968C72.5413 1.49207 72.1147 1.49207 71.688 1.53098C70.0739 1.62507 68.4785 1.92787 67.3646 2.66436C66.5481 3.19284 65.5281 4.13732 65.5281 5.72418C65.5281 6.93326 66.1027 8.02843 67.3646 8.80311C68.0143 9.21911 69.2762 9.7858 71.688 9.93649C72.1143 9.96014 72.5411 9.97311 72.968 9.9754H73.4134V11.5616H77.6993V9.9754H78.1627C78.5901 9.97278 79.0173 9.9598 79.4441 9.93649ZM79.4441 3.11785C79.8151 3.23104 80.1486 3.38173 80.4085 3.60883C80.9095 4.00502 81.3174 4.66651 81.3174 5.72418C81.3174 6.80096 80.9095 7.46174 80.4085 7.85863C80.1486 8.08502 79.8151 8.23642 79.4441 8.34962C78.9928 8.48882 78.5237 8.55892 78.0522 8.55762H77.57V2.90985H78.0522C78.5532 2.90985 79.0174 2.98555 79.4441 3.11785ZM56.0856 1.39868C57.1432 1.39868 58.3863 1.62507 59.3327 2.81505C60.0936 3.75952 60.2235 4.8554 60.2235 5.81899C60.2235 6.78186 60.0936 7.85863 59.3327 8.82221C58.3863 10.0122 57.1432 10.2386 56.0856 10.2386C55.01 10.2386 53.7669 10.0122 52.8205 8.82221C52.0596 7.85863 51.9484 6.78186 51.9484 5.81899C51.9484 4.8554 52.0596 3.75952 52.8205 2.81505C53.7669 1.62507 55.01 1.39868 56.0856 1.39868ZM56.0856 11.5616C58.0708 11.5616 60.8913 11.1081 62.7646 9.7292C64.2308 8.65242 64.9173 7.12215 64.9173 5.81899C64.9173 4.51511 64.2308 2.98555 62.7646 1.90877C60.8913 0.53061 58.0708 0.0764085 56.0856 0.0764085C54.0823 0.0764085 51.2626 0.53061 49.3886 1.90877C47.9037 2.98555 47.2171 4.51582 47.2171 5.81899C47.2171 7.12215 47.9037 8.65242 49.3886 9.7292C51.2619 11.1081 54.0823 11.5616 56.0856 11.5616ZM39.9079 7.25445H40.7056C42.7652 7.25445 44.1938 7.02735 45.2139 6.42317C46.4945 5.64848 46.7912 4.59081 46.7912 3.75952C46.7912 2.94734 46.4945 1.88967 45.2139 1.15319C44.1938 0.567398 42.8208 0.378502 40.5201 0.378502H33.1921V11.2397H37.4773V7.25445H39.9079ZM39.9079 2.04036C40.4277 2.05946 41.0954 2.15426 41.5776 2.45635C42.2273 2.87164 42.3385 3.43833 42.3385 3.77863C42.3385 4.11821 42.2454 4.7231 41.5408 5.15749C41.0586 5.47869 40.4645 5.57349 39.9079 5.61099H37.4773V2.02196H39.4625C39.5924 2.02196 39.7411 2.02197 39.9079 2.04036ZM6.73597 2.92895L8.86919 6.63116H4.60206L6.6241 2.85325H6.67969L6.73597 2.92895ZM9.74124 8.10413L11.5785 11.2397H16.3653L9.87118 0.378502H5.90075L0 11.2397H2.13392L3.82243 8.10413H9.74124ZM116.493 2.02196H121.094V11.2397H125.38V2.02196H130V0.378502H116.493V2.02196ZM125.603 18.625H124.898L122.078 21.4025L123.024 18.625H122.301L121.038 22.4043H121.762L124.564 19.6091L123.636 22.4043H124.36L125.603 18.625ZM121.225 18.625H120.519L120.019 20.0994H118.256L118.757 18.625H118.034L116.772 22.4043H117.495L118.071 20.6462H119.833L119.239 22.4043H119.982L121.225 18.625ZM116.957 18.625H116.252L113.432 21.4025L114.36 18.625H113.654L112.394 22.4043H113.098L115.918 19.6091L114.991 22.4043H115.696L116.957 18.625ZM110.371 18.625L109.944 19.7025C109.759 20.2126 109.685 20.3824 109.5 20.7785C109.258 21.3077 109.017 21.8178 108.386 21.9685L108.274 22.4602C108.645 22.4411 108.924 22.2904 109.109 22.1772C109.832 21.7046 110.074 20.8924 110.611 19.5695L110.798 19.116H111.688L110.611 22.4029H111.317L112.578 18.6236H110.371V18.625ZM94.5642 20.6661C94.6573 20.647 94.7859 20.647 94.9353 20.647H95.455L95.1951 21.44C95.084 21.5921 94.9721 21.6862 94.8241 21.781C94.731 21.8376 94.6379 21.8751 94.5642 21.8928C94.4405 21.9451 94.3076 21.9709 94.1737 21.9685C94.0257 21.9685 93.8409 21.9494 93.729 21.7987C93.6359 21.6671 93.6359 21.5157 93.6915 21.3261C93.7471 21.1754 93.8402 21.0247 94.0438 20.8726C94.1981 20.7617 94.3768 20.6907 94.5642 20.6661ZM94.954 22.4043H95.5836L96.4 19.9473C96.5307 19.5702 96.6787 19.1931 96.4744 18.8712C96.3076 18.625 95.8997 18.5316 95.5655 18.5316C95.1389 18.5316 94.8234 18.5882 94.5635 18.6837C94.0257 18.891 93.7846 19.2504 93.7665 19.5709L94.3968 19.6098C94.4251 19.4956 94.4826 19.3911 94.5635 19.307C94.7303 19.0983 95.0089 19.0431 95.3605 19.0431C95.5099 19.0431 95.6948 19.0608 95.7691 19.1938C95.8803 19.3254 95.8247 19.5143 95.7691 19.6841L95.6211 20.1744H95.0833C94.8971 20.1744 94.7303 20.1744 94.5635 20.1935C93.8402 20.289 93.228 20.5904 92.9681 21.3636C92.7638 21.9494 92.9681 22.4609 93.7846 22.4609C94.0257 22.4609 94.2856 22.4418 94.5448 22.3088H94.5635C94.8234 22.1772 95.0277 21.9883 95.0833 21.9317H95.1013L94.954 22.4043ZM106.79 20.6661C106.901 20.647 107.013 20.647 107.161 20.647H107.7L107.421 21.44C107.31 21.5921 107.199 21.6862 107.05 21.781C106.958 21.8376 106.865 21.8751 106.79 21.8928C106.661 21.9494 106.549 21.9685 106.419 21.9685C106.253 21.9685 106.067 21.9494 105.975 21.7987C105.863 21.6671 105.863 21.5157 105.918 21.3261C105.975 21.1754 106.067 21.0247 106.271 20.8726C106.425 20.7614 106.603 20.6904 106.79 20.6661ZM107.18 22.4043H107.83L108.646 19.9473C108.757 19.5702 108.905 19.1931 108.701 18.8712C108.534 18.625 108.127 18.5316 107.792 18.5316C107.384 18.5316 107.05 18.5882 106.79 18.6837C106.253 18.891 106.03 19.2504 105.993 19.5709L106.624 19.6098C106.653 19.496 106.71 19.3917 106.79 19.307C106.976 19.0983 107.236 19.0431 107.588 19.0431C107.737 19.0431 107.922 19.0608 108.015 19.1938C108.108 19.3254 108.07 19.5143 108.015 19.6841L107.848 20.1744H107.31C107.125 20.1744 106.958 20.1744 106.79 20.1935C106.067 20.289 105.455 20.5904 105.195 21.3636C104.991 21.9494 105.195 22.4609 106.011 22.4609C106.253 22.4609 106.513 22.4418 106.79 22.3088C107.05 22.1772 107.254 21.9883 107.31 21.9317H107.347L107.18 22.4043ZM105.195 18.625H104.472L101.669 21.4025L102.597 18.625H101.874L100.612 22.4043H101.336L104.137 19.6091L103.21 22.4043H103.933L105.195 18.625ZM98.9794 20.7226C99.11 20.7226 99.2212 20.7792 99.2948 20.8358C99.3872 20.949 99.3872 21.1386 99.3129 21.3084C99.2542 21.4827 99.144 21.6342 98.9974 21.7421C98.9974 21.7421 98.9794 21.7421 98.9794 21.7612C98.8307 21.8553 98.6264 21.8928 98.4228 21.8928H97.5507L97.9412 20.7028H98.8501C98.9057 20.7035 98.9425 20.7035 98.9794 20.7226ZM98.9794 19.1167H99.3504C99.481 19.1167 99.6471 19.1167 99.7583 19.2299C99.8695 19.3629 99.8521 19.4938 99.8139 19.6459C99.7583 19.7966 99.6839 19.9473 99.5172 20.0605C99.3316 20.1935 99.1649 20.1935 98.9794 20.1935H98.1073L98.4784 19.1174H98.9794V19.1167ZM98.9794 22.3477C99.2212 22.272 99.4435 22.139 99.6103 22.0258C99.8139 21.856 100.019 21.6112 100.129 21.3084C100.204 21.082 100.222 20.8733 100.111 20.6852C100.037 20.5522 99.8889 20.439 99.6846 20.4022L99.7027 20.3831C99.9445 20.3265 100.149 20.1935 100.278 20.0612C100.408 19.9296 100.52 19.7216 100.594 19.5334C100.705 19.1938 100.649 19.0042 100.52 18.8521C100.334 18.6448 100.037 18.6257 99.7951 18.6257H97.9225L96.6418 22.405H98.479C98.6458 22.4043 98.8126 22.3845 98.9794 22.3477ZM86.6414 19.0976C86.7533 19.0601 86.8645 19.0424 86.9569 19.0424C87.6802 19.0424 87.5142 19.6657 87.3835 20.0039L87.3279 20.1737H85.8069L85.8625 20.0039C86.0487 19.4372 86.3642 19.1931 86.6414 19.0976ZM86.6414 20.6661H87.8845C88.4411 19.3063 88.3668 18.5309 87.1236 18.5309C86.9756 18.5309 86.8089 18.55 86.6414 18.5875C85.9181 18.7573 85.2684 19.3629 84.8792 20.572C84.3421 22.1779 84.9724 22.4609 85.825 22.4609C86.1404 22.4609 86.4184 22.422 86.6414 22.3477C87.2355 22.139 87.569 21.7244 87.6246 21.3084L87.0125 21.2129C86.9756 21.3261 86.8825 21.5723 86.6414 21.7421C86.4934 21.8553 86.2891 21.9494 85.9924 21.9494C85.7694 21.9494 85.2128 21.8928 85.5282 21.0247L85.6394 20.6653H86.6414V20.6661ZM84.6013 18.625H83.896L81.0763 21.4025L82.0039 18.625H81.2993L80.0375 22.4043H80.7608L83.5625 19.6091L82.6348 22.4043H83.3582L84.6013 18.625ZM77.3657 18.625L76.1052 22.4043H76.8279L77.4032 20.7035H78.0898C78.2197 20.7035 78.3865 20.7035 78.4608 20.8366C78.4977 20.8932 78.5345 21.0063 78.4782 21.196L78.3858 21.706C78.3302 21.9508 78.2927 22.2161 78.5894 22.3682C78.7381 22.4234 78.9604 22.4623 79.0904 22.4623L79.3885 21.914C79.3322 21.914 79.2766 21.914 79.221 21.8949C79.073 21.8398 79.0904 21.6876 79.1098 21.5744L79.1467 21.3106C79.1654 21.1408 79.2405 20.8946 79.1654 20.7057C79.1286 20.5741 78.9799 20.4807 78.8319 20.4418V20.4227C78.9959 20.3882 79.1452 20.302 79.2585 20.1765C79.3644 20.0589 79.452 19.9255 79.5184 19.781L79.6483 19.5157C79.7046 19.3827 79.797 19.1761 79.9819 19.0997C80.0194 19.082 80.075 19.0622 80.2417 19.0445L80.3161 18.5528C80.0375 18.5903 79.7595 18.5903 79.4989 18.7792C79.2766 18.949 79.1842 19.1761 79.0904 19.365L78.9799 19.5723C78.8868 19.7619 78.8312 19.9119 78.6463 20.0258C78.5164 20.139 78.3684 20.139 78.2378 20.139H77.5888L78.0898 18.6271H77.3657V18.625ZM75.195 21.648C75.065 21.7237 74.8983 21.781 74.7315 21.8376C74.5566 21.8881 74.3755 21.9131 74.1937 21.9119C73.9519 21.9119 73.6927 21.8928 73.5252 21.6671C73.3216 21.4018 73.4523 20.9858 73.6183 20.5132C73.749 20.0597 73.8963 19.6452 74.1562 19.3799C74.3049 19.2292 74.5272 19.041 74.917 19.041C75.1769 19.041 75.3249 19.1153 75.3993 19.2483C75.4924 19.399 75.4368 19.5688 75.3249 19.815L76.0114 19.7584C76.2713 19.3424 76.2345 18.9264 75.9371 18.7191C75.7516 18.5861 75.4743 18.5295 75.1769 18.5295C74.8059 18.5295 74.3605 18.6236 73.9894 18.85C73.3036 19.266 72.9687 20.0215 72.8206 20.4941C72.69 20.891 72.5052 21.6275 72.8762 22.0803C73.1173 22.4022 73.5058 22.4588 73.9331 22.4588C74.2111 22.4588 74.4529 22.4397 74.7676 22.3456C74.9344 22.2699 75.1199 22.1935 75.3062 22.0994L75.195 21.648ZM71.9667 16.9822C71.9287 17.0857 71.8648 17.1772 71.7811 17.2475C71.6512 17.3607 71.4469 17.4159 71.317 17.4159C71.187 17.4159 71.0015 17.3607 70.9647 17.2475C70.9091 17.1718 70.9271 17.0777 70.9647 16.9822H70.4449C70.3143 17.2652 70.3337 17.5489 70.5005 17.701C70.6673 17.8708 70.9647 17.8906 71.1502 17.8906C71.3726 17.8906 71.6519 17.8715 71.9479 17.701C72.2265 17.5489 72.4114 17.2659 72.485 16.9822H71.9667ZM72.5232 18.625H71.818L68.9989 21.4025L69.9259 18.625H69.2213L67.9594 22.4043H68.6834L71.4844 19.6091L70.5568 22.4043H71.2808L72.5232 18.625ZM68.1449 18.625H67.4403L64.6199 21.4025L65.5482 18.625H64.843L63.5804 22.4043H64.2864L67.0881 19.6091L66.1604 22.4043H66.8838L68.1449 18.625ZM62.8021 21.648C62.646 21.7227 62.4848 21.786 62.3199 21.8376C62.1388 21.8893 61.9514 21.9144 61.7633 21.9119C61.5403 21.9119 61.2623 21.8928 61.1136 21.6671C60.9281 21.4018 61.0393 20.9858 61.2068 20.5132C61.3548 20.0597 61.5035 19.6452 61.7633 19.3799C61.8555 19.272 61.9696 19.1858 62.0978 19.1273C62.2259 19.0688 62.365 19.0393 62.5054 19.041C62.7646 19.041 62.9133 19.1153 63.0057 19.2483C63.0801 19.399 63.0245 19.5688 62.9321 19.815L63.5998 19.7584C63.8597 19.3424 63.841 18.9264 63.5443 18.7191C63.3587 18.5861 63.062 18.5295 62.7646 18.5295C62.3936 18.5295 61.9482 18.6236 61.5778 18.85C60.8913 19.266 60.5758 20.0215 60.409 20.4941C60.2791 20.891 60.0936 21.6275 60.4646 22.0803C60.7058 22.4022 61.1136 22.4588 61.5222 22.4588C61.8002 22.4588 62.0593 22.4397 62.3567 22.3456C62.5054 22.2699 62.709 22.1935 62.8765 22.0994L62.8021 21.648ZM59.1472 21.648C58.9804 21.7237 58.8317 21.781 58.665 21.8376C58.4839 21.8893 58.2964 21.9144 58.1084 21.9119C57.8853 21.9119 57.6074 21.8928 57.458 21.6671C57.2551 21.4018 57.3843 20.9858 57.5511 20.5132C57.681 20.0597 57.829 19.6452 58.1077 19.3799C58.1983 19.2703 58.312 19.183 58.4404 19.1243C58.5688 19.0656 58.7084 19.0371 58.8491 19.041C59.0909 19.041 59.257 19.1153 59.3313 19.2483C59.4057 19.399 59.3682 19.5688 59.257 19.815L59.9435 19.7584C60.2034 19.3424 60.1658 18.9264 59.8879 18.7191C59.7024 18.5861 59.4057 18.5295 59.1083 18.5295C58.7372 18.5295 58.2925 18.6236 57.9215 18.85C57.2349 19.266 56.9195 20.0215 56.7527 20.4941C56.6228 20.891 56.4372 21.6275 56.8083 22.0803C57.0494 22.4022 57.4573 22.4588 57.8659 22.4588C58.1438 22.4588 58.4037 22.4397 58.7004 22.3456C58.8491 22.2699 59.0534 22.1935 59.2201 22.0994L59.1472 21.648ZM54.3422 19.1542C54.4715 19.0976 54.6389 19.0424 54.8432 19.0424C55.1399 19.0424 55.2879 19.174 55.3442 19.2872C55.4922 19.5702 55.3623 19.9862 55.3067 20.1744L55.0656 20.8366C55.0093 21.0262 54.8613 21.4407 54.5458 21.706C54.4902 21.7626 54.4346 21.8001 54.3422 21.8567C54.2123 21.9133 54.0636 21.9699 53.8593 21.9699C53.5445 21.9699 53.3958 21.8383 53.3402 21.706C53.2103 21.4407 53.3402 21.0262 53.3958 20.8366L53.6189 20.1744C53.6918 19.9862 53.8412 19.5702 54.156 19.2872C54.2123 19.2497 54.2679 19.1931 54.3422 19.1542ZM55.01 18.5309C54.7689 18.5309 54.5465 18.5698 54.3422 18.625C54.0824 18.7205 53.8593 18.8514 53.6557 19.0226C53.136 19.4372 52.8761 20.023 52.7281 20.5132C52.5613 20.9681 52.4126 21.5539 52.6537 21.9876C52.8205 22.2706 53.1359 22.4602 53.6925 22.4602C53.9336 22.4602 54.1567 22.4411 54.3422 22.3661C54.6202 22.2904 54.8432 22.1574 55.0468 21.9876C55.5666 21.5539 55.8265 20.9681 55.9932 20.5132C56.1419 20.023 56.2719 19.4372 56.0307 19.0226C55.882 18.7382 55.5666 18.5309 55.01 18.5309ZM51.3738 17.568H51.8373C52.0784 17.568 52.357 17.6437 52.4682 17.7944C52.5425 17.8701 52.6725 18.0583 52.5425 18.4368C52.4126 18.8337 52.1715 19.0601 52.0596 19.1358C51.8192 19.324 51.5774 19.3997 51.3738 19.3997C51.3182 19.4188 51.2626 19.4188 51.2063 19.4188H50.1494L50.7616 17.5673H51.3738V17.568ZM51.3738 20.0237C51.8392 19.9952 52.2853 19.8243 52.6537 19.5334C53.006 19.2872 53.3034 18.8712 53.4514 18.4375C53.5445 18.1347 53.6189 17.6444 53.2846 17.3041C52.9504 16.9822 52.4682 16.9447 52.0228 16.9447H50.1863L48.3678 22.4043H49.1662L49.9452 20.0428H51.0951C51.1695 20.0428 51.2619 20.0428 51.3738 20.0237ZM130 18.625H129.277L126.475 21.4025L127.403 18.625H126.679L125.417 22.4043H126.14L128.942 19.6091L128.014 22.4043H128.737L130 18.625ZM7.10633 24.2367L5.56652 23.5568L11.9488 22.7623C12.06 22.9519 12.1719 23.1217 12.3025 23.2915L7.10633 24.2367ZM24.2312 24.2367L25.771 23.5179L19.4255 22.7439C19.3699 22.9512 19.2032 23.121 19.092 23.2908L24.2312 24.2367ZM23.3035 24.3499L21.3739 25.0107L18.6278 24.161L18.3867 24.0853C18.4798 24.011 18.5542 23.9346 18.6278 23.8405C18.739 23.745 18.8321 23.6141 18.9433 23.5186L23.3035 24.3499ZM28.4052 22.5175L26.643 23.3481L19.593 22.5175L19.7597 22.006L28.4052 22.5175ZM29.0361 22.2713L31.3368 20.7792H18.8689C18.8689 21.3084 18.7953 21.7619 18.6278 22.1581C18.1456 23.4238 16.94 24.028 15.7337 24.0096C14.5462 23.9707 13.3406 23.3474 12.8021 22.1956C12.6025 21.7513 12.5012 21.2678 12.5054 20.7792H0L2.28262 22.2713L11.8369 21.7612C12.0225 22.4602 12.3567 23.0644 12.8014 23.5172C13.5623 24.3294 14.6574 24.7829 15.733 24.7829C16.7906 24.802 17.8669 24.4058 18.6271 23.5363C19.0357 23.0828 19.3512 22.497 19.5367 21.798L29.0361 22.2713ZM18.6278 26.1256L18.8689 26.5791L18.6278 26.6923L17.9788 26.9937L17.2367 25.5031C16.7527 25.6744 16.2459 25.7693 15.7337 25.7846C15.1809 25.8068 14.6286 25.7307 14.1015 25.5597L13.4706 26.9937C13.2663 27.0128 12.9876 26.9937 12.8021 26.8621C12.6957 26.7996 12.6163 26.6986 12.5797 26.5791L12.8021 26.2006L13.3406 25.2179C13.1732 25.1047 13.0252 25.0298 12.8765 24.8791L13.3219 24.3308C14.0827 24.8034 14.9173 25.0673 15.7337 25.0673C16.5502 25.0864 17.3666 24.8225 18.1268 24.2742L18.6278 24.4249L18.8321 24.5006C18.7577 24.5572 18.7022 24.6138 18.6278 24.6704C18.4798 24.8225 18.3499 24.9732 18.1087 25.104L18.6278 26.1256ZM18.6278 18.4C19.11 18.9858 19.463 19.7032 19.6486 20.5338H18.8509C18.7959 20.2888 18.7213 20.0489 18.6278 19.8164C18.09 18.3809 16.9956 17.3607 15.7337 16.5111C15.567 16.4155 15.4183 16.3023 15.2515 16.2068C15.4183 16.2649 15.567 16.3214 15.7337 16.378C16.8844 16.8492 17.9045 17.4916 18.6278 18.4ZM16.4758 23.7266C16.7505 23.6705 17.0101 23.5547 17.2367 23.387L15.9748 20.8366L17.2923 20.1942L16.1791 19.2115L15.733 19.4202L13.8222 20.3074L14.3787 21.5921L15.2876 21.1761L16.4758 23.7266ZM13.0252 24.0846C12.9508 24.028 12.8765 23.953 12.8021 23.895C12.664 23.7774 12.5395 23.6443 12.431 23.4981L8.07427 24.3371L9.92816 24.971L13.0252 24.0846ZM11.8376 22.5175C11.7672 22.3504 11.7053 22.1796 11.6521 22.006L2.93231 22.5175L4.69447 23.387L11.8376 22.5175Z" fill="#255398"/>
</svg>
