<svg width="138" height="35" viewBox="0 0 138 35" fill="none" xmlns="http://www.w3.org/2000/svg">
<path d="M17.8998 0.100098C8.4998 0.100098 0.799805 7.7001 0.799805 17.2001C0.799805 26.6001 8.3998 34.3001 17.8998 34.3001C27.2998 34.3001 34.9998 26.7001 34.9998 17.2001C34.9998 7.7001 27.2998 0.100098 17.8998 0.100098ZM17.8998 32.9001C9.1998 32.9001 2.1998 25.9001 2.1998 17.2001C2.1998 8.5001 9.1998 1.5001 17.8998 1.5001C26.5998 1.5001 33.5998 8.5001 33.5998 17.2001C33.6998 25.8001 26.5998 32.9001 17.8998 32.9001Z" fill="#77787B"/>
<path d="M17.8998 29.9001C18.4998 29.9001 18.7998 29.5001 18.8998 29.0001C18.9998 29.2001 19.1998 29.4001 19.3998 29.5001C19.5998 29.5001 19.8998 29.5001 20.0998 29.4001C20.2998 29.3001 20.4998 29.1001 20.5998 28.9001C20.6998 28.7001 20.6998 28.4001 20.5998 28.2001C20.8998 28.6001 21.2998 28.7001 21.7998 28.5001C22.3998 28.2001 22.5998 27.8001 22.2998 27.2001C21.5998 25.5001 20.8998 23.9001 20.1998 22.2001C20.0998 22.0001 20.0998 21.9001 19.9998 21.7001C19.8998 21.6001 19.8998 21.5001 19.7998 21.4001C19.7998 21.3001 19.6998 21.3001 19.5998 21.2001C20.6998 21.3001 21.1998 21.7001 21.4998 21.9001C21.5998 22.0001 21.5998 22.0001 21.8998 21.9001C21.9998 21.9001 22.1998 21.9001 22.2998 21.9001C22.3998 22.0001 22.5998 22.1001 22.6998 22.1001C23.0998 22.4001 23.4998 22.7001 23.8998 23.0001C24.0998 23.2001 24.2998 23.4001 24.2998 23.7001C24.2998 23.9001 23.6998 24.4001 23.5998 24.6001C23.1998 25.0001 23.7998 25.6001 24.5998 25.6001C24.3998 25.4001 24.2998 25.2001 24.3998 25.0001C24.4998 25.0001 24.5998 25.0001 24.7998 24.9001C24.9998 24.8001 24.8998 24.3001 24.9998 24.2001C25.2998 23.9001 26.0998 23.9001 26.6998 23.9001C26.8998 23.9001 27.1998 23.8001 27.0998 23.5001C27.3998 23.5001 27.4998 23.8001 27.4998 24.0001C27.7998 23.8001 27.9998 23.1001 26.9998 22.9001C27.1998 22.7001 27.4998 22.7001 27.6998 22.9001C27.8998 22.6001 27.3998 22.1001 26.5998 22.4001C26.5998 22.4001 26.1998 21.9001 25.1998 23.1001C25.0998 23.0001 24.8998 22.9001 24.7998 22.8001C24.3998 22.4001 23.3998 21.4001 23.3998 21.4001C23.3998 20.8001 23.2998 19.7001 22.5998 19.1001C22.2998 18.8001 21.9998 18.7001 21.2998 18.5001C21.2998 18.5001 21.5998 18.0001 21.6998 17.8001C22.2998 18.4001 23.4998 18.6001 23.4998 17.6001C24.4998 18.6001 25.3998 18.0001 25.3998 17.4001C25.3998 17.7001 25.4998 18.0001 25.5998 18.3001C25.6998 18.6001 26.1998 19.9001 27.2998 19.9001C27.2998 20.3001 27.2998 21.8001 28.6998 22.1001C28.7998 22.1001 28.7998 22.1001 28.8998 22.2001C29.4998 22.9001 31.7998 23.6001 31.9998 23.4001C31.7998 23.3001 31.4998 23.1001 31.4998 22.3001C31.4998 21.8001 31.3998 19.0001 31.3998 15.1001C31.3998 13.7001 31.2998 9.20012 26.7998 8.60012C26.0998 8.50012 25.4998 8.60012 24.8998 9.00012C24.0998 9.60012 23.6998 10.6001 24.1998 11.7001V11.8001C24.3998 12.1001 24.2998 12.3001 24.0998 12.5001C23.6998 12.9001 23.2998 13.1001 22.7998 13.2001C22.4998 13.2001 22.1998 13.1001 21.9998 12.9001C21.4998 12.4001 21.1998 11.8001 20.9998 11.1001C20.7998 9.80012 21.0998 9.10012 21.0998 9.00012C21.4998 8.30012 22.1998 7.70012 23.0998 7.70012C23.4998 6.90012 24.6998 7.20012 24.6998 7.20012C24.9998 7.30012 25.0998 7.30012 25.1998 7.50012C25.1998 7.50012 25.6998 6.70012 25.1998 6.40012C24.6998 6.10012 23.5998 6.00012 23.5998 6.00012C23.5998 5.50012 22.7998 5.10012 21.1998 5.40012C19.3998 5.70012 18.9998 5.00012 18.9998 5.00012C18.8998 5.90012 19.5998 6.30012 19.7998 6.50012C19.0998 7.30012 18.0998 8.80012 17.8998 10.9001C17.6998 8.80012 16.6998 7.30012 15.9998 6.50012C16.1998 6.40012 16.8998 5.90012 16.7998 5.00012C16.7998 5.00012 16.3998 5.70012 14.5998 5.40012C13.0998 5.10012 12.1998 5.50012 12.1998 6.00012C12.1998 6.00012 11.0998 6.10012 10.5998 6.40012C10.0998 6.70012 10.5998 7.50012 10.5998 7.50012C10.6998 7.40012 10.7998 7.30012 11.0998 7.20012C11.0998 7.20012 12.2998 6.90012 12.6998 7.70012C13.5998 7.80012 14.2998 8.30012 14.6998 9.00012C14.6998 9.00012 15.0998 9.70012 14.7998 11.1001C14.6998 11.8001 14.2998 12.4001 13.7998 12.9001C13.5998 13.1001 13.2998 13.3001 12.9998 13.2001C12.4998 13.1001 12.0998 12.9001 11.6998 12.5001C11.4998 12.3001 11.3998 12.1001 11.5998 11.8001V11.7001C12.0998 10.6001 11.6998 9.60012 10.8998 9.00012C10.2998 8.60012 9.6998 8.50012 8.9998 8.60012C4.5998 9.20012 4.3998 13.7001 4.3998 15.1001C4.3998 19.0001 4.2998 21.8001 4.2998 22.3001C4.2998 23.1001 3.9998 23.3001 3.7998 23.4001C4.0998 23.6001 6.3998 22.9001 6.8998 22.2001C6.8998 22.2001 6.9998 22.1001 7.0998 22.1001C8.4998 21.8001 8.4998 20.3001 8.4998 19.9001C9.5998 19.9001 10.0998 18.6001 10.1998 18.3001C10.2998 18.0001 10.3998 17.7001 10.3998 17.4001C10.3998 18.0001 11.2998 18.5001 12.2998 17.6001C12.2998 18.6001 13.4998 18.4001 14.0998 17.8001C14.1998 18.0001 14.4998 18.5001 14.4998 18.5001C13.7998 18.6001 13.4998 18.8001 13.1998 19.1001C12.3998 19.8001 12.3998 20.9001 12.3998 21.4001C12.3998 21.4001 11.3998 22.4001 10.9998 22.8001C10.8998 22.9001 10.6998 23.0001 10.5998 23.1001C9.4998 21.9001 9.1998 22.4001 9.1998 22.4001C8.3998 22.1001 7.9998 22.6001 8.0998 22.9001C8.2998 22.7001 8.5998 22.8001 8.7998 22.9001C7.6998 23.1001 7.9998 23.9001 8.2998 24.0001C8.2998 23.8001 8.3998 23.5001 8.6998 23.5001C8.6998 23.8001 8.8998 23.9001 9.0998 23.9001C9.5998 23.9001 10.4998 23.9001 10.7998 24.2001C10.9998 24.3001 10.8998 24.8001 10.9998 24.9001C11.0998 25.0001 11.2998 25.0001 11.3998 25.0001C11.3998 25.2001 11.3998 25.3001 11.1998 25.6001C11.9998 25.7001 12.4998 25.0001 12.1998 24.6001C11.9998 24.4001 11.4998 23.9001 11.4998 23.7001C11.4998 23.5001 11.6998 23.2001 11.8998 23.0001C12.2998 22.7001 12.6998 22.4001 13.0998 22.1001C13.1998 22.0001 13.2998 21.9001 13.4998 21.9001C13.5998 21.8001 13.7998 21.8001 13.8998 21.9001C14.1998 22.0001 14.1998 22.0001 14.2998 21.9001C14.5998 21.7001 15.0998 21.3001 16.1998 21.2001C16.0998 21.2001 16.0998 21.3001 15.9998 21.4001C15.8998 21.5001 15.8998 21.6001 15.7998 21.7001C15.6998 21.8001 15.6998 22.0001 15.5998 22.2001C14.8998 23.9001 14.1998 25.5001 13.4998 27.2001C13.2998 27.8001 13.4998 28.2001 13.9998 28.5001C14.3998 28.7001 14.8998 28.6001 15.1998 28.2001C15.0998 28.5001 15.0998 28.7001 15.1998 28.9001C15.2998 29.1001 15.4998 29.3001 15.6998 29.4001C15.8998 29.5001 16.1998 29.5001 16.3998 29.5001C16.6998 29.4001 16.7998 29.3001 16.8998 29.0001C16.9998 29.5001 17.2998 29.9001 17.8998 29.9001Z" fill="#77787B"/>
<path d="M46.6999 11.2C47.5999 11.2 49.5999 11.1 50.6999 11C50.6999 11.2 50.6999 11.5 50.6999 11.6C50.6999 11.7 50.6999 12 50.6999 12.2C49.6999 12.1 48.0999 12 47.5999 12C47.1999 12 45.8999 12 45.0999 12.1V16.3H45.9999C47.7999 16.3 51.3999 16.6 51.3999 19.7C51.3999 22.2 49.2999 23.3 46.5999 23.3C46.2999 23.3 45.1999 23.3 44.3999 23.3C44.0999 23.3 43.6999 23.3 43.3999 23.3C43.4999 21.4 43.4999 18.9 43.4999 16.8C43.4999 14.9 43.4999 12 43.3999 11.1C44.4999 11.1 46.2999 11.2 46.6999 11.2ZM45.0999 22.3C45.4999 22.3 46.0999 22.3 46.4999 22.3C48.4999 22.3 49.5999 21.4 49.5999 19.6C49.5999 17.7 48.1999 17.1 44.9999 17.1V22.3H45.0999Z" fill="#77787B"/>
<path d="M53.3001 15.7C54.0001 14.9 55.2001 14.5 56.2001 14.5C58.0001 14.5 59.2001 15.4 59.2001 17.5V21.7C59.2001 22.6 59.4001 22.8 59.7001 22.8C59.8001 22.8 60.0001 22.8 60.1001 22.7L60.2001 23.1C59.7001 23.4 59.2001 23.4 58.9001 23.4C58.3001 23.4 58.0001 23.1 57.9001 22.7L57.8001 22.3C56.9001 23 55.9001 23.4 55.1001 23.4C53.6001 23.4 52.6001 22.6 52.6001 21.2C52.6001 19.7 53.7001 19 55.3001 18.7L57.0001 18.4C57.6001 18.3 57.9001 18.1 57.9001 17.7C57.9001 15.9 57.1001 15.4 55.8001 15.4C54.8001 15.4 54.1001 15.7 53.5001 16.8H53.3001V15.7ZM57.9001 18.9L56.8001 19.1C55.6001 19.3 54.2001 19.7 54.2001 21C54.2001 22 54.7001 22.5 55.8001 22.5C56.5001 22.5 57.1001 22.3 57.8001 21.5V18.9H57.9001Z" fill="#77787B"/>
<path d="M62.5997 14.8C62.7997 14.8 63.0997 14.8 63.3997 14.8C63.2997 16.1 63.1997 18.2 63.1997 18.3C63.8997 18.3 64.8997 18.4 65.4997 18.4C66.0997 18.4 67.0997 18.4 67.5997 18.3C67.5997 18.2 67.5997 16.1 67.4997 14.8C67.7997 14.8 68.1997 14.8 68.3997 14.8C68.5997 14.8 68.8997 14.8 69.1997 14.8C69.0997 16.1 68.9997 18.2 68.9997 19.1C68.9997 19.8 68.9997 22.1 69.1997 23.4C68.8997 23.4 68.6997 23.4 68.3997 23.4C68.0997 23.4 67.7997 23.4 67.4997 23.4C67.5997 22.1 67.5997 19.8 67.5997 19.3C66.8997 19.2 65.7997 19.2 65.4997 19.2C64.9997 19.2 63.8997 19.2 63.1997 19.3C63.1997 19.9 63.1997 22.1 63.3997 23.4C63.0997 23.4 62.8997 23.4 62.5997 23.4C62.2997 23.4 61.9997 23.4 61.6997 23.4C61.7997 22.1 61.8997 19.8 61.8997 19.1C61.8997 18.2 61.8997 16.1 61.6997 14.8C61.9997 14.8 62.3997 14.8 62.5997 14.8Z" fill="#77787B"/>
<path d="M72.2999 14.8C72.4999 14.8 72.7999 14.8 73.0999 14.8C72.9999 16.1 72.9999 18.2 72.9999 18.5H73.2999C73.8999 18.5 76.6999 15.3 76.9999 14.8C77.1999 14.8 77.5999 14.8 77.7999 14.8C77.9999 14.8 78.3999 14.8 78.5999 14.8L74.5999 18.4C75.0999 19 77.7999 22 78.9999 23.3C78.4999 23.3 78.1999 23.3 77.9999 23.3C77.6999 23.3 77.1999 23.3 76.8999 23.3C76.2999 22.3 74.3999 20.1 73.2999 18.9H72.9999C72.9999 19.5 72.9999 22 73.0999 23.3C72.8999 23.3 72.5999 23.3 72.2999 23.3C71.9999 23.3 71.6999 23.3 71.3999 23.3C71.4999 22 71.5999 19.7 71.5999 19C71.5999 18.1 71.5999 16 71.3999 14.7C71.6999 14.8 71.9999 14.8 72.2999 14.8Z" fill="#77787B"/>
<path d="M86.3 11.1C86.9 11.1 87.6 11 88.1 11C91.2 11 92.4 11.9 92.4 14.1C92.4 16.8 90.1 17.7 87.3 17.7C87.1 17.7 86.5 17.7 86.2 17.6V20.5C86.2 21.3 86.2 22.4 86.3 23.2C86 23.2 85.7 23.2 85.4 23.2C85.1 23.2 84.7 23.2 84.5 23.2C84.6 21.3 84.6 18.8 84.6 16.7C84.6 14.8 84.6 11.9 84.5 11C85.2 11 85.9 11.1 86.3 11.1ZM87 16.8C89.4 16.8 90.7 15.9 90.7 14.1C90.7 12.4 89.4 12 87.7 12C87.4 12 86.4 12 86.2 12V16.7C86.5 16.8 86.8 16.8 87 16.8Z" fill="#77787B"/>
<path d="M101.2 19.0001C101.2 21.6001 99.4997 23.5001 96.8997 23.5001C94.2997 23.5001 92.6997 21.6001 92.6997 19.2001C92.6997 16.4001 94.4997 14.6001 97.0997 14.6001C99.5997 14.6001 101.2 16.4001 101.2 19.0001ZM94.2997 19.1001C94.2997 21.0001 95.0997 22.8001 96.8997 22.8001C98.5997 22.8001 99.5997 21.1001 99.5997 18.9001C99.5997 17.1001 98.8997 15.2001 96.9997 15.2001C95.1997 15.2001 94.2997 17.1001 94.2997 19.1001Z" fill="#77787B"/>
<path d="M109.4 16.6H109.2C108.6 15.6 107.8 15.3 106.9 15.3C104.9 15.3 104 17.2 104 19.1C104 21.2 105.2 22.9 107.3 22.9C108 22.9 108.6 22.8 109.6 21.7L109.8 21.9L109.6 22.7C108.8 23.2 107.9 23.5 106.8 23.5C104.2 23.5 102.5 21.7 102.5 19.1C102.5 16.4 104.4 14.7 107.1 14.7C108 14.7 108.9 14.9 110 15.4L109.4 16.6Z" fill="#77787B"/>
<path d="M118 16.6H117.8C117.2 15.6 116.4 15.3 115.5 15.3C113.5 15.3 112.6 17.2 112.6 19.1C112.6 21.2 113.8 22.9 115.9 22.9C116.6 22.9 117.2 22.8 118.2 21.7L118.3 21.9L118.1 22.7C117.3 23.2 116.4 23.5 115.3 23.5C112.7 23.5 111 21.7 111 19.1C111 16.4 112.9 14.7 115.6 14.7C116.5 14.7 117.4 14.9 118.5 15.4L118 16.6Z" fill="#77787B"/>
<path d="M120.5 23.2C120.4 23.2 120.1 23.2 120 23.2C120.1 21.9 120.2 19.6 120.2 18.9C120.2 18 120.2 15.9 120 14.6C120.3 14.6 120.7 14.6 120.9 14.6C121.1 14.6 121.4 14.6 121.7 14.6C121.6 15.9 121.5 18 121.5 18.9C121.5 19.6 121.5 20.6 121.5 21.1C122.4 20 125.7 15.8 126.5 14.7C126.7 14.7 126.8 14.7 127 14.7C127.1 14.7 127.5 14.7 127.6 14.7C127.5 16 127.4 18.1 127.4 19C127.4 19.7 127.4 22 127.6 23.3C127.3 23.3 127.1 23.3 126.8 23.3C126.5 23.3 126.2 23.3 125.9 23.3C126 22 126.1 19.7 126.1 19C126.1 18.1 126.1 17 126.1 16.7C125 17.9 121.9 21.8 121 23.3C120.8 23.2 120.6 23.2 120.5 23.2Z" fill="#77787B"/>
<path d="M130 23.2C129.9 23.2 129.6 23.2 129.5 23.2C129.6 21.9 129.6 19.6 129.6 18.9C129.6 18 129.6 15.9 129.5 14.6C129.8 14.6 130.2 14.6 130.4 14.6C130.6 14.6 130.9 14.6 131.2 14.6C131 16 131 18.1 131 19C131 19.7 131 20.7 131 21.2C131.9 20.1 135.2 15.9 136 14.8C136.2 14.8 136.3 14.8 136.5 14.8C136.6 14.8 137 14.8 137.1 14.8C137 16 137 18.1 137 19C137 19.7 137 22 137.1 23.3C136.8 23.3 136.6 23.3 136.3 23.3C136 23.3 135.7 23.3 135.4 23.3C135.5 22 135.5 19.7 135.5 19C135.5 18.1 135.5 17 135.5 16.7C134.4 17.9 131.3 21.8 130.4 23.3C130.3 23.2 130.2 23.2 130 23.2Z" fill="#77787B"/>
</svg>
