<svg width="1930" height="5017" viewBox="0 0 1930 5017" fill="none" xmlns="http://www.w3.org/2000/svg">
<path d="M2954.13 1441.28C3381.74 1751.96 3716.5 2105.26 3912.06 2425.31C4009.84 2585.34 4072.81 2737.03 4095.2 2870.91C4117.6 3004.78 4099.41 3120.8 4034.93 3209.55C3970.45 3298.3 3865.73 3351.45 3731.49 3371.52C3597.24 3391.6 3433.52 3378.58 3251.11 3335.04C2886.29 3247.95 2446.83 3038.75 2019.22 2728.07C1591.61 2417.39 1256.85 2064.09 1061.29 1744.04C963.505 1584.01 900.535 1432.32 878.143 1298.45C855.752 1164.57 873.942 1048.55 938.422 959.805C1002.9 871.057 1107.62 817.905 1241.86 797.831C1376.1 777.757 1539.83 790.77 1722.24 834.317C2087.06 921.408 2526.52 1130.61 2954.13 1441.28Z" stroke="black" stroke-opacity="0.07"/>
<path d="M2965.28 1449.54C3387.41 1767.63 3715.95 2126.72 3905.9 2450.14C4000.87 2611.85 4061.19 2764.61 4081.24 2898.86C4101.29 3033.1 4081.08 3148.79 4015.06 3236.4C3949.04 3324.01 3843.41 3375.32 3708.84 3393.05C3574.27 3410.78 3410.79 3394.91 3229.17 3348.19C2865.93 3254.74 2430.19 3037.91 2008.06 2719.82C1585.94 2401.72 1257.4 2042.63 1067.45 1719.21C972.475 1557.51 912.162 1404.74 892.11 1270.49C872.058 1136.25 892.27 1020.57 958.289 932.956C1024.31 845.346 1129.94 794.031 1264.51 776.303C1399.08 758.575 1562.55 774.443 1744.18 821.166C2107.42 914.611 2543.16 1131.45 2965.28 1449.54Z" stroke="black" stroke-opacity="0.07"/>
<path d="M2976.3 1457.99C3392.8 1783.4 3715.03 2148.17 3899.3 2474.85C3991.44 2638.19 4049.08 2791.99 4066.79 2926.57C4084.49 3061.14 4062.26 3176.45 3994.73 3262.9C3927.19 3349.34 3820.68 3398.8 3685.82 3414.18C3550.96 3429.56 3387.79 3410.84 3207.01 3360.95C2845.45 3261.18 2413.56 3036.78 1997.05 2711.36C1580.54 2385.95 1258.32 2021.18 1074.04 1694.5C981.906 1531.16 924.269 1377.36 906.563 1242.79C888.857 1108.21 911.085 992.902 978.623 906.457C1046.16 820.013 1152.67 770.548 1287.53 755.172C1422.39 739.795 1585.56 758.514 1766.34 808.4C2127.9 908.17 2559.79 1132.58 2976.3 1457.99Z" stroke="black" stroke-opacity="0.07"/>
<path d="M2987.16 1466.63C3397.92 1799.26 3713.73 2169.6 3892.28 2499.45C3981.55 2664.37 4036.5 2819.15 4051.85 2954.02C4067.21 3088.88 4042.97 3203.78 3973.93 3289.04C3904.9 3374.29 3797.54 3421.89 3662.43 3434.91C3527.32 3447.93 3364.5 3426.36 3184.62 3373.33C2824.86 3267.27 2396.95 3035.36 1986.19 2702.73C1575.43 2370.1 1259.62 1999.75 1081.07 1669.91C991.796 1504.98 936.851 1350.2 921.497 1215.34C906.143 1080.48 930.38 965.572 999.416 880.319C1068.45 795.066 1175.81 747.468 1310.92 734.448C1446.03 721.427 1608.85 742.991 1788.73 796.024C2148.49 902.089 2576.4 1134 2987.16 1466.63Z" stroke="black" stroke-opacity="0.07"/>
<path d="M2997.87 1475.46C3402.77 1815.21 3712.06 2191 3884.83 2523.91C3971.21 2690.37 4023.44 2846.09 4036.44 2981.2C4049.44 3116.31 4023.2 3230.77 3952.69 3314.81C3882.17 3398.84 3774 3444.56 3638.69 3455.22C3503.37 3465.88 3340.95 3441.48 3162.03 3385.31C2804.17 3272.99 2380.37 3033.64 1975.48 2693.9C1570.58 2354.15 1261.28 1978.35 1088.52 1645.44C1002.14 1478.98 949.904 1323.27 936.906 1188.16C923.907 1053.05 950.146 938.58 1020.66 854.545C1091.17 770.51 1199.34 724.793 1334.66 714.132C1469.97 703.472 1632.39 727.874 1811.32 784.038C2169.18 896.366 2592.97 1135.71 2997.87 1475.46Z" stroke="black" stroke-opacity="0.07"/>
<path d="M3008.42 1484.47C3407.33 1831.24 3710.02 2212.37 3876.95 2548.25C3960.41 2716.19 4009.92 2872.79 4020.56 3008.11C4031.2 3143.42 4002.97 3257.42 3931 3340.21C3859.03 3423 3750.07 3466.82 3614.59 3475.12C3479.11 3483.42 3317.15 3456.18 3139.22 3396.9C2783.38 3278.35 2363.83 3031.64 1964.92 2684.88C1566.02 2338.12 1263.33 1956.98 1096.4 1621.1C1012.94 1453.16 963.428 1296.56 952.789 1161.25C942.151 1025.93 970.383 911.938 1042.35 829.147C1114.32 746.356 1223.27 702.533 1358.75 694.236C1494.24 685.938 1656.2 713.172 1834.12 772.45C2189.96 891.006 2609.52 1137.71 3008.42 1484.47Z" stroke="black" stroke-opacity="0.07"/>
<path d="M3018.82 1493.67C3411.61 1847.34 3707.61 2233.7 3868.65 2572.44C3949.17 2741.81 3995.93 2899.25 4004.21 3034.74C4012.49 3170.22 3982.27 3283.7 3908.86 3365.22C3835.46 3446.74 3725.76 3488.66 3590.16 3494.59C3454.55 3500.52 3293.08 3470.47 3116.22 3408.09C2762.51 3283.34 2347.32 3029.35 1954.53 2675.68C1561.74 2322.01 1265.74 1935.65 1104.7 1596.91C1024.18 1427.54 977.414 1270.1 969.139 1134.61C960.864 999.134 991.081 885.653 1064.48 804.13C1137.89 722.607 1247.59 680.693 1383.19 674.761C1518.8 668.829 1680.27 698.885 1857.13 761.26C2210.84 886.008 2626.03 1140 3018.82 1493.67Z" stroke="black" stroke-opacity="0.07"/>
<path d="M3029.05 1503.04C3415.61 1863.52 3704.82 2254.99 3859.92 2596.48C3937.47 2767.23 3981.49 2925.47 3987.4 3061.08C3993.31 3196.68 3961.11 3309.62 3886.3 3389.85C3811.48 3470.07 3701.07 3510.07 3565.38 3513.63C3429.69 3517.2 3268.78 3484.33 3093.03 3418.88C2741.55 3287.97 2330.86 3026.78 1944.3 2666.31C1557.74 2305.83 1268.53 1914.36 1113.43 1572.86C1035.88 1402.11 991.861 1243.88 985.951 1108.27C980.042 972.669 1012.24 859.733 1087.05 779.504C1161.87 699.275 1272.28 659.281 1407.97 655.717C1543.66 652.153 1704.58 685.022 1880.32 750.474C2231.8 881.376 2642.49 1142.57 3029.05 1503.04Z" stroke="black" stroke-opacity="0.07"/>
<path d="M3039.12 1512.6C3419.33 1879.76 3701.66 2276.22 3850.78 2620.37C3925.34 2792.45 3966.59 2951.43 3970.13 3087.12C3973.67 3222.8 3939.51 3335.16 3863.31 3414.07C3787.1 3492.98 3676.01 3531.04 3540.28 3532.24C3404.55 3533.44 3244.23 3497.76 3069.65 3429.25C2720.51 3292.24 2314.44 3023.92 1934.23 2656.75C1554.02 2289.59 1271.69 1893.13 1122.57 1548.98C1048.01 1376.9 1006.76 1217.92 1003.22 1082.23C999.679 946.544 1033.84 834.186 1110.04 755.275C1186.25 676.364 1297.34 638.304 1433.07 637.108C1568.8 635.912 1729.12 671.585 1903.7 740.094C2252.84 877.111 2658.91 1145.43 3039.12 1512.6Z" stroke="black" stroke-opacity="0.07"/>
<path d="M3049.02 1522.33C3422.77 1896.07 3698.14 2297.4 3841.22 2644.1C3912.77 2817.45 3951.23 2977.13 3952.41 3112.86C3953.58 3248.58 3917.47 3360.33 3839.9 3437.9C3762.33 3515.47 3650.58 3551.58 3514.86 3550.41C3379.12 3549.24 3219.45 3510.77 3046.1 3439.23C2699.39 3296.14 2298.07 3020.77 1924.33 2647.02C1550.58 2273.28 1275.21 1871.96 1132.12 1525.25C1060.58 1351.9 1022.11 1192.23 1020.94 1056.5C1019.77 920.767 1055.88 809.023 1133.45 731.454C1211.02 653.884 1322.77 617.769 1458.49 618.942C1594.22 620.116 1753.9 658.581 1927.25 730.126C2273.95 873.215 2675.28 1148.58 3049.02 1522.33Z" stroke="black" stroke-opacity="0.07"/>
<path d="M3058.75 1532.23C3425.91 1912.44 3694.24 2318.51 3831.25 2667.65C3899.76 2842.23 3935.44 3002.55 3934.24 3138.28C3933.04 3274.01 3894.98 3385.11 3816.07 3461.31C3737.16 3537.51 3624.8 3571.67 3489.12 3568.13C3353.43 3564.59 3194.45 3523.34 3022.37 3448.78C2678.22 3299.66 2281.76 3017.33 1914.6 2637.12C1547.43 2256.91 1279.11 1850.85 1142.09 1501.7C1073.58 1327.12 1037.91 1166.8 1039.11 1031.07C1040.3 895.344 1078.36 784.247 1157.27 708.043C1236.19 631.839 1348.54 597.68 1484.23 601.222C1619.92 604.764 1778.9 646.01 1950.98 720.569C2295.13 869.688 2691.58 1152.02 3058.75 1532.23Z" stroke="black" stroke-opacity="0.07"/>
<path d="M3068.31 1542.3C3428.78 1928.86 3689.97 2339.55 3820.88 2691.03C3886.33 2866.78 3919.2 3027.69 3915.63 3163.38C3912.07 3299.07 3872.08 3409.48 3791.85 3484.3C3711.62 3559.11 3598.68 3591.31 3463.08 3585.4C3327.47 3579.49 3169.24 3535.48 2998.49 3457.92C2656.99 3302.82 2265.52 3013.61 1905.05 2627.05C1544.57 2240.49 1283.38 1829.81 1152.48 1478.32C1087.02 1302.58 1054.15 1141.66 1057.72 1005.97C1061.28 870.281 1101.28 759.866 1181.51 685.051C1261.73 610.236 1374.67 578.042 1510.28 583.952C1645.88 589.861 1804.12 633.875 1974.87 711.427C2316.36 866.529 2707.83 1155.74 3068.31 1542.3Z" stroke="black" stroke-opacity="0.07"/>
<path d="M3077.68 1552.53C3431.36 1945.32 3685.34 2360.51 3810.09 2714.22C3872.47 2891.08 3902.52 3052.55 3896.59 3188.16C3890.66 3323.76 3848.74 3433.46 3767.22 3506.86C3685.7 3580.27 3572.22 3610.49 3436.74 3602.21C3301.25 3593.93 3143.81 3547.17 2974.44 3466.65C2635.7 3305.61 2249.34 3009.61 1895.67 2616.82C1542 2224.03 1288.01 1808.84 1163.26 1455.13C1100.89 1278.27 1070.83 1116.8 1076.76 981.193C1082.69 845.589 1124.61 735.888 1206.13 662.485C1287.65 589.082 1401.13 558.864 1536.62 567.139C1672.1 575.415 1829.54 622.184 1998.91 702.703C2337.65 863.742 2724.01 1159.74 3077.68 1552.53Z" stroke="black" stroke-opacity="0.07"/>
<path d="M3086.88 1562.92C3433.65 1961.83 3680.35 2381.38 3798.9 2737.22C3858.18 2915.14 3885.42 3077.11 3877.12 3212.59C3868.82 3348.07 3825 3457.03 3742.21 3529C3659.42 3600.97 3545.42 3629.2 3410.11 3618.56C3274.79 3607.92 3118.19 3558.41 2950.25 3474.95C2614.37 3308.02 2233.24 3005.33 1886.47 2606.42C1539.71 2207.52 1293.01 1787.96 1174.45 1432.12C1115.17 1254.2 1087.94 1092.23 1096.24 956.753C1104.53 821.274 1148.36 712.322 1231.15 640.352C1313.94 568.383 1427.93 540.15 1563.25 550.789C1698.56 561.427 1855.17 610.937 2023.11 694.4C2358.98 861.326 2740.12 1164.02 3086.88 1562.92Z" stroke="black" stroke-opacity="0.07"/>
<path d="M3095.89 1573.48C3435.64 1978.38 3674.99 2402.17 3787.31 2760.03C3843.48 2938.95 3867.88 3101.37 3857.22 3236.69C3846.56 3372 3800.84 3480.17 3716.81 3550.69C3632.77 3621.2 3518.31 3647.44 3383.2 3634.44C3248.08 3621.44 3092.37 3569.21 2925.91 3482.83C2593 3310.06 2217.2 3000.77 1877.46 2595.87C1537.71 2190.97 1298.36 1767.18 1186.04 1409.32C1129.87 1230.39 1105.47 1067.98 1116.13 932.659C1126.79 797.345 1172.51 689.174 1256.54 618.661C1340.58 548.147 1455.04 521.908 1590.15 534.907C1725.27 547.905 1880.98 600.14 2047.44 686.522C2380.35 859.284 2756.15 1168.58 3095.89 1573.48Z" stroke="black" stroke-opacity="0.07"/>
<path d="M3104.72 1584.19C3437.35 1994.95 3669.26 2422.86 3775.33 2782.62C3828.36 2962.51 3849.93 3125.33 3836.91 3260.43C3823.88 3395.54 3776.29 3502.9 3691.03 3571.93C3605.78 3640.97 3490.87 3665.21 3356.01 3649.85C3221.15 3634.5 3066.37 3579.55 2901.45 3490.28C2571.6 3311.73 2201.26 2995.93 1868.63 2585.16C1536 2174.4 1304.09 1746.49 1198.02 1386.73C1144.99 1206.85 1123.42 1044.03 1136.45 908.916C1149.47 773.809 1197.06 666.452 1282.32 597.416C1367.57 528.38 1482.48 504.143 1617.34 519.497C1752.2 534.852 1906.98 589.797 2071.91 679.07C2401.75 857.616 2772.09 1173.43 3104.72 1584.19Z" stroke="black" stroke-opacity="0.07"/>
<path d="M3113.36 1595.05C3438.78 2011.56 3663.18 2443.45 3762.95 2805.01C3812.84 2985.79 3831.56 3148.96 3816.18 3283.82C3800.8 3418.68 3751.34 3525.19 3664.9 3592.73C3578.45 3660.26 3463.14 3682.49 3328.57 3664.79C3193.99 3647.08 3040.19 3589.44 2876.85 3497.31C2550.17 3313.03 2185.4 2990.8 1859.99 2574.3C1534.58 2157.79 1310.17 1725.9 1210.4 1364.34C1160.51 1183.56 1141.8 1020.39 1157.17 885.531C1172.55 750.672 1222.01 644.162 1308.46 576.624C1394.9 509.086 1510.21 486.858 1644.79 504.564C1779.36 522.27 1933.16 579.907 2096.5 672.046C2423.18 856.321 2787.95 1178.55 3113.36 1595.05Z" stroke="black" stroke-opacity="0.07"/>
<path d="M3121.81 1606.06C3439.91 2028.19 3656.74 2463.93 3750.19 2827.17C3796.91 3008.79 3812.78 3172.27 3795.05 3306.84C3777.32 3441.41 3726.01 3547.04 3638.4 3613.06C3550.79 3679.08 3435.1 3699.29 3300.86 3679.24C3166.61 3659.19 3013.85 3598.87 2852.14 3503.9C2528.72 3313.95 2169.63 2985.41 1851.54 2563.29C1533.44 2141.16 1316.61 1705.42 1223.16 1342.18C1176.44 1160.56 1160.57 997.083 1178.3 862.51C1196.03 727.94 1247.34 622.309 1334.95 556.29C1422.56 490.271 1538.25 470.059 1672.49 490.111C1806.74 510.163 1959.5 570.476 2121.21 665.451C2444.63 855.4 2803.72 1183.94 3121.81 1606.06Z" stroke="black" stroke-opacity="0.07"/>
<path d="M3130.07 1617.22C3440.75 2044.83 3649.95 2484.29 3737.04 2849.11C3780.58 3031.52 3793.6 3195.25 3773.52 3329.49C3753.45 3463.73 3700.3 3568.45 3611.55 3632.93C3522.8 3697.41 3406.78 3715.6 3272.91 3693.21C3139.03 3670.81 2987.34 3607.84 2827.31 3510.06C2507.26 3314.5 2153.96 2979.74 1843.28 2552.13C1532.61 2124.52 1323.41 1685.06 1236.32 1320.24C1192.77 1137.83 1179.76 974.104 1199.83 839.861C1219.91 705.621 1273.06 600.902 1361.81 536.422C1450.55 471.943 1566.57 453.752 1700.45 476.144C1834.32 498.536 1986.01 561.506 2146.04 659.288C2466.09 854.853 2819.39 1189.61 3130.07 1617.22Z" stroke="black" stroke-opacity="0.07"/>
<path d="M3138.13 1628.52C3441.3 2061.49 3642.79 2504.53 3723.5 2870.82C3763.86 3053.96 3774.01 3217.89 3751.6 3351.76C3729.19 3485.63 3674.22 3589.4 3584.36 3652.32C3494.49 3715.24 3378.18 3731.41 3244.71 3706.68C3111.25 3681.96 2960.68 3616.35 2802.39 3515.79C2485.8 3314.67 2138.39 2973.8 1835.22 2540.83C1532.06 2107.86 1330.56 1664.82 1249.85 1298.54C1209.49 1115.39 1199.34 951.465 1221.75 817.593C1244.17 683.723 1299.14 579.948 1389 517.027C1478.86 454.106 1595.18 437.943 1728.64 462.668C1862.1 487.393 2012.67 553 2170.97 653.561C2487.56 854.681 2834.96 1195.56 3138.13 1628.52Z" stroke="black" stroke-opacity="0.07"/>
<path d="M3145.99 1639.96C3441.55 2078.15 3635.29 2524.65 3709.59 2892.28C3746.75 3076.1 3754.04 3240.18 3729.29 3373.64C3704.55 3507.1 3647.77 3609.9 3556.83 3671.24C3465.88 3732.59 3349.3 3746.72 3216.29 3719.67C3083.28 3692.62 2933.88 3624.39 2777.36 3521.08C2464.33 3314.47 2122.92 2967.58 1827.36 2529.39C1531.79 2091.2 1338.06 1644.71 1263.75 1277.07C1226.6 1093.25 1219.31 929.171 1244.06 795.71C1268.8 662.252 1325.58 559.452 1416.52 498.109C1507.47 436.766 1624.05 422.636 1757.06 449.686C1890.07 476.736 2039.47 544.962 2195.99 648.27C2509.02 854.884 2850.43 1201.77 3145.99 1639.96Z" stroke="black" stroke-opacity="0.07"/>
<path d="M3153.65 1651.53C3441.53 2094.82 3627.44 2544.62 3695.32 2913.5C3729.26 3097.94 3733.68 3262.12 3706.61 3395.13C3679.54 3528.14 3620.98 3629.93 3528.98 3689.68C3436.97 3749.42 3320.16 3761.52 3187.65 3732.15C3055.13 3702.78 2906.94 3631.96 2752.25 3525.93C2442.87 3313.89 2107.57 2961.1 1819.7 2517.81C1531.83 2074.53 1345.92 1624.73 1278.04 1255.85C1244.1 1071.41 1239.67 907.227 1266.74 774.219C1293.82 641.213 1352.37 539.419 1444.38 479.673C1536.38 419.926 1653.19 407.833 1785.71 437.2C1918.23 466.567 2066.41 537.39 2221.1 643.414C2530.48 855.46 2865.78 1208.25 3153.65 1651.53Z" stroke="black" stroke-opacity="0.07"/>
<path d="M3161.11 1663.24C3441.2 2111.48 3619.23 2564.46 3680.67 2934.47C3711.38 3119.47 3712.94 3283.71 3683.55 3416.22C3654.16 3548.74 3593.84 3649.49 3500.81 3707.62C3407.78 3765.76 3290.77 3775.81 3158.79 3744.13C3026.8 3712.46 2879.87 3639.06 2727.05 3530.35C2421.42 3312.94 2092.33 2954.35 1812.24 2506.11C1532.15 2057.87 1354.12 1604.89 1292.69 1234.88C1261.97 1049.88 1260.41 885.644 1289.8 753.129C1319.19 620.615 1379.51 519.859 1472.55 461.728C1565.58 403.596 1682.58 393.543 1814.57 425.218C1946.55 456.894 2093.48 530.292 2246.3 639C2551.93 856.413 2881.02 1215 3161.11 1663.24Z" stroke="black" stroke-opacity="0.07"/>
<path d="M3168.36 1675.08C3440.59 2128.14 3610.69 2584.15 3665.65 2955.18C3693.14 3140.69 3691.83 3304.92 3660.13 3436.91C3628.43 3568.89 3566.36 3668.57 3472.33 3725.07C3378.3 3781.57 3261.13 3789.58 3129.72 3755.61C2998.31 3721.63 2852.68 3645.68 2701.79 3534.33C2400 3311.61 2077.21 2947.33 1804.99 2494.27C1532.76 2041.21 1362.66 1585.19 1307.7 1214.17C1280.22 1028.66 1281.52 864.424 1313.22 732.442C1344.92 600.462 1406.99 500.774 1501.02 444.275C1595.06 387.775 1712.22 379.766 1843.63 413.74C1975.04 447.715 2120.67 523.666 2271.56 635.024C2573.35 857.738 2896.14 1222.02 3168.36 1675.08Z" stroke="black" stroke-opacity="0.07"/>
<path d="M3175.41 1687.04C3439.69 2144.78 3601.8 2603.7 3650.28 2975.62C3674.52 3161.58 3670.35 3325.77 3636.35 3457.18C3602.36 3588.59 3538.55 3687.18 3443.55 3742.03C3348.55 3796.88 3231.26 3802.84 3100.46 3766.58C2969.66 3730.32 2825.38 3651.83 2676.45 3537.86C2378.6 3309.91 2062.22 2940.06 1797.94 2482.31C1533.67 2024.57 1371.55 1565.65 1323.07 1193.73C1298.83 1007.77 1303 843.578 1337 712.169C1370.99 580.762 1434.8 482.173 1529.8 427.323C1624.81 372.474 1742.09 366.51 1872.89 402.773C2003.69 439.036 2147.97 517.517 2296.9 631.491C2594.75 859.438 2911.13 1229.29 3175.41 1687.04Z" stroke="black" stroke-opacity="0.07"/>
<path d="M3182.24 1699.12C3438.49 2161.4 3592.57 2623.08 3634.55 2995.79C3655.55 3182.15 3648.51 3346.24 3612.22 3477.04C3575.94 3607.83 3510.42 3705.29 3414.48 3758.47C3318.53 3811.66 3201.16 3815.57 3071.01 3777.03C2940.87 3738.49 2797.98 3657.51 2651.06 3540.95C2357.23 3307.84 2047.36 2932.52 1791.11 2470.23C1534.86 2007.95 1380.78 1546.27 1338.8 1173.56C1317.81 987.201 1324.84 823.11 1361.13 692.314C1397.41 561.521 1462.93 464.06 1558.87 410.877C1654.82 357.694 1772.19 353.778 1902.34 392.318C2032.48 430.858 2175.37 511.845 2322.29 628.401C2616.12 861.512 2925.99 1236.83 3182.24 1699.12Z" stroke="black" stroke-opacity="0.07"/>
<path d="M3188.86 1711.31C3437.01 2178 3583.01 2642.3 3618.48 3015.69C3636.21 3202.38 3626.31 3366.33 3587.75 3496.47C3549.19 3626.61 3481.98 3722.91 3385.12 3774.41C3288.26 3825.91 3170.84 3827.78 3041.39 3786.97C2911.93 3746.17 2770.48 3662.7 2625.62 3543.6C2335.9 3305.39 2032.63 2924.72 1784.48 2458.04C1536.34 1991.35 1390.34 1527.05 1354.87 1153.66C1337.14 966.968 1347.04 803.025 1385.6 672.882C1424.16 542.742 1491.37 446.44 1588.23 394.939C1685.08 343.438 1802.5 341.571 1931.96 382.376C2061.42 423.182 2202.87 506.651 2347.73 625.753C2637.45 863.957 2940.72 1244.63 3188.86 1711.31Z" stroke="black" stroke-opacity="0.07"/>
<path d="M3195.27 1723.62C3435.23 2194.57 3573.11 2661.34 3602.06 3035.3C3616.53 3222.27 3603.77 3386.02 3562.95 3515.47C3522.12 3644.92 3453.24 3740.03 3355.5 3789.83C3257.75 3839.64 3140.32 3839.45 3011.6 3796.39C2882.87 3753.34 2742.9 3667.41 2600.14 3545.8C2314.62 3302.58 2018.04 2916.67 1778.08 2445.72C1538.12 1974.78 1400.24 1508 1371.29 1134.05C1356.82 947.074 1369.58 783.329 1410.41 653.879C1451.23 524.432 1520.11 429.317 1617.85 379.515C1715.6 329.712 1833.03 329.895 1961.75 372.953C2090.48 416.012 2230.45 501.936 2373.21 623.549C2658.73 866.772 2955.32 1252.68 3195.27 1723.62Z" stroke="black" stroke-opacity="0.07"/>
<path d="M3201.47 1736.05C3433.17 2211.11 3562.88 2680.22 3585.3 3054.62C3596.51 3241.82 3580.89 3405.32 3537.81 3534.03C3494.73 3662.75 3424.2 3756.65 3325.61 3804.74C3227.01 3852.83 3109.59 3850.59 2981.64 3805.3C2853.69 3760 2715.24 3671.64 2574.62 3547.56C2293.39 3299.39 2003.59 2908.36 1771.88 2433.3C1540.18 1958.24 1410.47 1489.13 1388.05 1114.73C1376.85 927.53 1392.46 764.032 1435.54 635.315C1478.62 506.599 1549.15 412.701 1647.75 364.612C1746.34 316.523 1863.76 318.755 1991.71 364.054C2119.66 409.352 2258.11 497.707 2398.73 621.792C2679.96 869.961 2969.76 1260.99 3201.47 1736.05Z" stroke="black" stroke-opacity="0.07"/>
<path d="M3207.44 1748.58C3430.82 2227.61 3552.32 2698.91 3568.2 3073.65C3576.14 3261.01 3557.67 3424.21 3512.35 3552.16C3467.04 3680.1 3394.88 3772.76 3295.46 3819.12C3196.04 3865.48 3078.68 3861.2 2951.54 3813.67C2824.39 3766.15 2687.51 3675.39 2549.08 3548.87C2272.22 3295.83 1989.28 2899.81 1765.91 2420.78C1542.53 1941.74 1421.03 1470.44 1405.15 1095.71C1397.21 908.338 1415.67 745.138 1460.99 617.191C1506.31 489.248 1578.47 396.595 1677.89 350.234C1777.31 303.873 1894.67 308.154 2021.81 355.678C2148.95 403.203 2285.84 493.96 2424.27 620.481C2701.13 873.521 2984.06 1269.54 3207.44 1748.58Z" stroke="black" stroke-opacity="0.07"/>
<path d="M3213.2 1761.21C3428.18 2244.06 3541.44 2717.42 3550.78 3092.37C3555.45 3279.85 3534.13 3442.7 3486.59 3569.84C3439.04 3696.97 3365.28 3788.35 3265.07 3832.97C3164.85 3877.59 3047.58 3871.26 2921.29 3821.52C2795 3771.79 2659.71 3678.65 2523.51 3549.74C2251.12 3291.9 1975.13 2891 1760.15 2408.14C1545.17 1925.29 1431.91 1451.93 1422.57 1076.98C1417.9 889.502 1439.22 726.649 1486.76 599.513C1534.31 472.38 1608.07 381.001 1708.28 336.382C1808.5 291.763 1925.77 298.092 2052.06 347.828C2178.35 397.564 2313.64 490.697 2449.84 619.614C2722.23 877.447 2998.22 1278.35 3213.2 1761.21Z" stroke="black" stroke-opacity="0.07"/>
<path d="M3218.73 1773.93C3425.26 2260.47 3530.24 2735.73 3533.03 3110.79C3534.42 3298.32 3510.27 3460.77 3460.52 3587.06C3410.76 3713.34 3335.41 3803.42 3234.43 3846.29C3133.46 3889.15 3016.32 3880.77 2890.91 3828.84C2765.51 3776.91 2631.87 3681.43 2497.94 3550.15C2230.08 3287.61 1961.14 2881.95 1754.62 2395.41C1548.09 1908.88 1443.11 1433.62 1440.32 1058.56C1438.93 871.031 1463.08 708.575 1512.83 582.288C1562.59 456.004 1637.94 365.926 1738.92 323.063C1839.89 280.2 1957.03 288.574 2082.44 340.507C2207.84 392.44 2341.48 487.919 2475.41 619.194C2743.27 881.741 3012.21 1287.4 3218.73 1773.93Z" stroke="black" stroke-opacity="0.07"/>
<path d="M3224.05 1786.76C3422.05 2276.83 3518.71 2753.84 3514.96 3128.89C3513.08 3316.42 3486.1 3478.43 3434.15 3603.83C3382.19 3729.23 3305.29 3817.97 3203.58 3859.07C3101.87 3900.16 2984.89 3889.75 2860.41 3835.63C2735.93 3781.52 2603.98 3683.72 2472.36 3550.13C2209.13 3282.95 1947.31 2872.66 1749.31 2382.59C1551.31 1892.52 1454.64 1415.51 1458.39 1040.46C1460.27 852.931 1487.25 690.921 1539.2 565.522C1591.16 440.126 1668.06 351.376 1769.77 310.282C1871.49 269.188 1988.46 279.605 2112.94 333.718C2237.42 387.832 2369.37 485.629 2500.99 619.221C2764.22 886.404 3026.05 1296.69 3224.05 1786.76Z" stroke="black" stroke-opacity="0.07"/>
<path d="M3229.13 1799.67C3418.55 2293.12 3506.88 2771.75 3496.58 3146.68C3491.43 3334.14 3461.63 3495.66 3407.49 3620.13C3353.36 3744.6 3274.91 3832 3172.5 3871.31C3070.09 3910.62 2953.31 3898.17 2829.8 3841.89C2706.28 3785.61 2576.06 3685.52 2446.79 3549.66C2188.26 3277.92 1933.64 2863.13 1744.22 2369.68C1554.8 1876.23 1466.47 1397.6 1476.77 1022.67C1481.92 835.205 1511.73 673.691 1565.86 549.217C1619.99 424.747 1698.44 337.353 1800.85 298.04C1903.26 258.727 2020.04 271.184 2143.55 327.462C2267.07 383.74 2397.3 483.825 2526.56 619.694C2785.09 891.43 3039.72 1306.22 3229.13 1799.67Z" stroke="black" stroke-opacity="0.07"/>
<path d="M3233.99 1812.67C3414.77 2309.35 3494.73 2789.45 3477.89 3164.14C3469.47 3351.49 3436.85 3512.46 3380.55 3635.97C3324.26 3759.48 3244.3 3845.49 3141.22 3883.01C3038.13 3920.53 2921.59 3906.03 2799.08 3847.61C2676.56 3789.18 2548.1 3686.84 2421.23 3548.74C2167.48 3272.53 1920.13 2853.35 1739.36 2356.68C1558.58 1860 1478.62 1379.9 1495.46 1005.21C1503.88 817.859 1536.5 656.889 1592.8 533.38C1649.1 409.873 1729.05 323.861 1832.14 286.342C1935.22 248.823 2051.76 263.316 2174.27 321.74C2296.79 380.166 2425.25 482.508 2552.12 620.612C2805.87 896.819 3053.22 1315.99 3233.99 1812.67Z" stroke="black" stroke-opacity="0.07"/>
<path d="M3238.63 1825.76C3410.71 2325.52 3482.28 2806.94 3458.9 3181.28C3447.21 3368.45 3411.79 3528.83 3353.34 3651.33C3294.9 3773.84 3213.45 3858.44 3109.73 3894.16C3006.01 3929.87 2889.74 3913.35 2768.26 3852.79C2646.78 3792.24 2520.13 3687.67 2395.69 3547.37C2146.8 3266.78 1906.8 2843.35 1734.72 2343.59C1562.64 1843.83 1491.07 1362.41 1514.45 988.073C1526.14 800.902 1561.56 640.526 1620.01 518.018C1678.45 395.512 1759.9 310.909 1863.62 275.194C1967.34 239.48 2083.61 256.005 2205.09 316.558C2326.57 377.113 2453.22 481.682 2577.66 621.979C2826.55 902.572 3066.55 1326 3238.63 1825.76Z" stroke="black" stroke-opacity="0.07"/>
<path d="M3243.03 1838.92C3406.36 2341.61 3469.52 2824.2 3439.61 3198.08C3424.66 3385.02 3386.44 3544.75 3325.87 3666.22C3265.29 3787.69 3182.38 3870.86 3078.05 3904.76C2973.72 3938.65 2857.76 3920.1 2737.36 3857.44C2616.96 3794.77 2492.15 3688.01 2370.17 3545.56C2126.22 3260.67 1893.65 2833.12 1730.32 2330.43C1566.99 1827.75 1503.83 1345.15 1533.73 971.273C1548.69 784.334 1586.91 624.601 1647.48 503.132C1708.05 381.664 1790.96 298.496 1895.29 264.597C1999.62 230.698 2115.59 249.249 2235.99 311.914C2356.39 374.58 2481.2 481.343 2603.18 623.791C2847.13 908.684 3079.7 1336.24 3243.03 1838.92Z" stroke="black" stroke-opacity="0.07"/>
<path d="M3247.21 1852.16C3401.74 2357.62 3456.47 2841.24 3420.04 3214.54C3401.83 3401.19 3360.83 3560.23 3298.14 3680.62C3235.46 3801.02 3151.11 3882.72 3046.2 3914.8C2941.29 3946.87 2825.68 3926.3 2706.39 3861.54C2587.09 3796.78 2464.17 3687.86 2344.7 3543.3C2105.75 3254.2 1880.68 2822.65 1726.15 2317.19C1571.61 1811.73 1516.89 1328.11 1553.31 954.81C1571.53 768.16 1612.53 609.118 1675.21 488.725C1737.9 368.333 1822.24 286.624 1927.15 254.551C2032.06 222.478 2147.68 243.051 2266.97 307.807C2386.26 372.564 2509.18 481.489 2628.66 626.044C2867.6 915.152 3092.67 1346.7 3247.21 1852.16Z" stroke="black" stroke-opacity="0.07"/>
<path d="M3251.15 1865.47C3396.84 2373.54 3443.11 2858.05 3400.18 3230.66C3378.71 3416.96 3334.94 3575.26 3270.16 3694.54C3205.39 3813.82 3119.62 3894.05 3014.17 3924.28C2908.72 3954.52 2793.48 3931.93 2675.34 3865.11C2557.2 3798.28 2436.19 3687.22 2319.26 3540.6C2085.4 3247.37 1867.89 2811.96 1722.2 2303.88C1576.51 1795.8 1530.24 1311.3 1573.17 938.692C1594.64 752.389 1638.41 594.086 1703.19 474.805C1767.96 355.526 1853.73 275.301 1959.18 245.064C2064.63 214.827 2179.87 237.414 2298.01 304.243C2416.15 371.072 2537.16 482.126 2654.09 628.744C2887.95 921.978 3105.46 1357.39 3251.15 1865.47Z" stroke="black" stroke-opacity="0.07"/>
<path d="M3254.86 1878.84C3391.66 2389.39 3429.47 2874.63 3380.04 3246.43C3355.32 3432.33 3308.8 3589.84 3241.95 3707.97C3175.1 3826.1 3087.95 3904.82 2981.99 3933.21C2876.03 3961.6 2761.2 3937.01 2644.24 3868.13C2527.28 3799.25 2408.23 3686.1 2293.88 3537.46C2065.17 3240.19 1855.29 2801.05 1718.49 2290.51C1581.69 1779.96 1543.88 1294.72 1593.31 922.926C1618.03 737.025 1664.55 579.511 1731.4 461.378C1798.25 343.248 1885.4 264.532 1991.36 236.14C2097.32 207.748 2212.15 232.343 2329.11 301.223C2446.07 370.104 2565.12 483.253 2679.48 631.889C2908.18 929.16 3118.06 1368.3 3254.86 1878.84Z" stroke="black" stroke-opacity="0.07"/>
<path d="M3258.33 1892.28C3386.2 2405.13 3415.54 2890.96 3359.63 3261.84C3331.67 3447.28 3282.4 3603.96 3213.5 3720.91C3144.6 3837.85 3056.09 3915.03 2949.65 3941.57C2843.21 3968.11 2728.83 3941.52 2613.09 3870.61C2497.35 3799.69 2380.29 3684.48 2268.55 3533.88C2045.06 3232.66 1842.89 2789.92 1715.02 2277.07C1587.15 1764.22 1557.81 1278.39 1613.72 907.511C1641.68 722.07 1690.95 565.391 1759.85 448.444C1828.75 331.498 1917.26 254.315 2023.7 227.776C2130.14 201.238 2244.52 227.833 2360.26 298.744C2476 369.656 2593.06 484.865 2704.8 635.475C2928.29 936.692 3130.46 1379.43 3258.33 1892.28Z" stroke="black" stroke-opacity="0.07"/>
<path d="M3261.57 1905.78C3380.47 2420.78 3401.33 2907.05 3338.95 3276.89C3307.76 3461.82 3255.77 3617.61 3184.84 3733.34C3113.91 3849.07 3024.06 3924.69 2917.18 3949.37C2810.29 3974.05 2696.39 3945.46 2581.9 3872.54C2467.42 3799.62 2352.39 3682.38 2243.29 3529.85C2025.1 3224.78 1830.68 2778.58 1711.78 2263.57C1592.88 1748.56 1572.02 1262.3 1634.4 892.454C1665.59 707.529 1717.59 551.734 1788.52 436.007C1859.45 320.281 1949.29 244.655 2056.18 219.978C2163.07 195.301 2276.97 223.889 2391.45 296.809C2505.93 369.73 2620.96 486.964 2730.06 639.501C2948.26 944.573 3142.67 1390.77 3261.57 1905.78Z" stroke="black" stroke-opacity="0.07"/>
<path d="M3264.58 1919.33C3374.47 2436.33 3386.84 2922.88 3318.01 3291.59C3283.6 3475.94 3228.9 3630.8 3155.96 3745.27C3083.02 3859.74 2991.87 3933.79 2884.57 3956.6C2777.26 3979.41 2663.88 3948.84 2550.68 3873.93C2437.49 3799.02 2324.53 3679.8 2218.11 3525.38C2005.27 3216.55 1818.67 2767.03 1708.78 2250.02C1598.88 1733.02 1586.52 1246.46 1655.34 877.761C1689.75 693.409 1744.46 538.545 1817.4 424.073C1890.33 309.603 1981.48 235.557 2088.79 212.749C2196.09 189.941 2309.47 220.512 2422.67 295.419C2535.86 370.327 2648.82 489.551 2755.24 643.969C2968.08 952.802 3154.68 1402.32 3264.58 1919.33Z" stroke="black" stroke-opacity="0.07"/>
<path d="M3267.34 1932.93C3368.2 2451.77 3372.07 2938.47 3296.82 3305.91C3259.2 3489.64 3201.8 3643.52 3126.87 3756.7C3051.95 3869.88 2959.52 3942.33 2851.84 3963.26C2744.15 3984.19 2631.32 3951.64 2519.45 3874.77C2407.58 3797.9 2296.71 3676.72 2193.01 3520.47C1985.59 3207.97 1806.86 2755.26 1706.01 2236.42C1605.16 1717.58 1601.28 1230.88 1676.53 863.436C1714.15 679.713 1771.55 525.827 1846.48 412.646C1921.41 299.466 2013.83 227.022 2121.52 206.09C2229.2 185.158 2342.04 217.704 2453.9 294.575C2565.77 371.447 2676.64 492.624 2780.35 648.876C2987.76 961.376 3166.49 1414.08 3267.34 1932.93Z" stroke="black" stroke-opacity="0.07"/>
<path d="M3269.87 1946.57C3361.66 2467.1 3357.04 2953.79 3275.39 3319.86C3234.56 3502.9 3174.49 3655.76 3097.6 3767.62C3020.71 3879.48 2927.03 3950.3 2819 3969.34C2710.96 3988.39 2598.71 3953.88 2488.2 3875.07C2377.69 3796.26 2268.96 3673.17 2167.99 3515.13C1966.06 3199.06 1795.26 2743.3 1703.48 2222.77C1611.7 1702.25 1616.32 1215.56 1697.97 849.483C1738.79 666.444 1798.87 513.584 1875.76 401.727C1952.65 289.872 2046.33 219.052 2154.36 200.003C2262.39 180.954 2374.64 215.463 2485.15 294.275C2595.66 373.088 2704.4 496.182 2805.36 654.219C3007.29 970.292 3178.09 1426.05 3269.87 1946.57Z" stroke="black" stroke-opacity="0.07"/>
<path d="M3272.16 1960.27C3354.85 2482.31 3341.73 2968.85 3253.71 3333.44C3209.69 3515.74 3146.96 3667.53 3068.13 3778.03C2989.3 3888.52 2894.4 3957.7 2786.05 3974.86C2677.7 3992.02 2566.07 3955.56 2456.95 3874.83C2347.84 3794.1 2241.27 3669.13 2143.07 3509.35C1946.69 3189.8 1783.87 2731.13 1701.19 2209.08C1618.5 1687.04 1631.62 1200.5 1719.64 835.908C1763.65 653.609 1826.39 501.821 1905.22 391.323C1984.05 280.827 2078.95 211.652 2187.3 194.492C2295.65 177.331 2407.28 213.794 2516.4 294.522C2625.51 375.252 2732.08 500.225 2830.28 660C3026.66 979.549 3189.48 1438.22 3272.16 1960.27Z" stroke="black" stroke-opacity="0.07"/>
<path d="M3274.21 1973.99C3347.77 2497.4 3326.17 2983.64 3231.8 3346.64C3184.61 3528.14 3119.23 3678.81 3038.49 3787.92C2957.74 3897.02 2861.65 3964.53 2753.02 3979.8C2644.38 3995.06 2533.41 3956.66 2425.72 3874.04C2318.02 3791.42 2213.65 3664.6 2118.26 3503.14C1927.49 3180.21 1772.7 2718.77 1699.13 2195.36C1625.57 1671.95 1647.18 1185.71 1741.55 822.711C1788.74 641.209 1854.11 490.539 1934.86 381.433C2015.61 272.33 2111.7 204.822 2220.33 189.555C2328.96 174.288 2439.94 212.694 2547.63 295.314C2655.33 377.936 2759.7 504.749 2855.09 666.214C3045.86 989.142 3200.65 1450.58 3274.21 1973.99Z" stroke="black" stroke-opacity="0.07"/>
<path d="M3276.03 1987.76C3340.44 2512.37 3310.36 2998.15 3209.66 3359.45C3159.31 3540.1 3091.32 3689.61 3008.68 3797.29C2926.04 3904.97 2828.78 3970.79 2719.9 3984.16C2611.02 3997.53 2500.73 3957.19 2394.5 3872.7C2288.26 3788.21 2186.12 3659.6 2093.56 3496.49C1908.45 3170.28 1761.74 2706.21 1697.32 2181.6C1632.91 1656.98 1663 1171.2 1763.69 809.9C1814.04 629.249 1882.03 479.743 1964.67 372.063C2047.31 264.386 2144.57 198.565 2253.45 185.196C2362.33 171.827 2472.62 212.164 2578.85 296.651C2685.09 381.14 2787.23 509.756 2879.79 672.861C3064.9 999.069 3211.61 1463.14 3276.03 1987.76Z" stroke="black" stroke-opacity="0.07"/>
<path d="M3277.6 2001.55C3332.85 2527.2 3294.29 3012.39 3187.3 3371.87C3133.81 3551.62 3063.22 3699.92 2978.71 3806.14C2894.21 3912.36 2795.82 3976.47 2686.72 3987.94C2577.62 3999.4 2468.05 3957.15 2363.31 3870.82C2258.56 3784.49 2158.68 3654.11 2068.98 3489.41C1889.59 3160.03 1751 2693.46 1695.75 2167.8C1640.51 1642.14 1679.06 1156.96 1786.05 797.475C1839.54 617.73 1910.14 469.433 1994.64 363.212C2079.15 256.994 2177.54 192.88 2286.64 181.414C2395.73 169.947 2505.3 212.203 2610.05 298.531C2714.79 384.861 2814.67 515.24 2904.37 679.935C3083.76 1009.32 3222.35 1475.89 3277.6 2001.55Z" stroke="black" stroke-opacity="0.07"/>
<path d="M3278.93 2015.36C3324.99 2541.91 3277.97 3026.34 3164.73 3383.91C3108.11 3562.69 3034.93 3709.73 2948.59 3814.46C2862.24 3919.19 2762.75 3981.58 2653.47 3991.14C2544.18 4000.7 2435.37 3956.54 2332.15 3868.4C2228.93 3780.25 2131.34 3648.15 2044.53 3481.91C1870.91 3149.44 1740.49 2680.53 1694.42 2153.99C1648.35 1627.45 1695.37 1143.01 1808.62 785.445C1865.24 606.661 1938.41 459.618 2024.76 354.889C2111.1 250.161 2210.6 187.775 2319.88 178.214C2429.16 168.653 2537.98 212.814 2641.2 300.957C2744.42 389.102 2842.01 521.204 2928.82 687.44C3102.43 1019.91 3232.86 1488.82 3278.93 2015.36Z" stroke="black" stroke-opacity="0.07"/>
<path d="M3280.02 2029.2C3316.89 2556.47 3261.42 3040.01 3141.95 3395.54C3082.22 3573.31 3006.49 3719.06 2918.33 3822.26C2830.17 3925.47 2729.6 3986.11 2620.17 3993.76C2510.74 4001.41 2402.71 3955.36 2301.05 3865.43C2199.38 3775.49 2104.11 3641.71 2020.21 3473.98C1852.43 3138.53 1730.2 2667.42 1693.33 2140.15C1656.46 1612.89 1711.93 1129.34 1831.4 773.809C1891.13 596.04 1966.86 450.298 2055.02 347.091C2143.18 243.886 2243.75 183.246 2353.18 175.593C2462.61 167.941 2570.64 213.995 2672.3 303.926C2773.97 393.859 2869.24 527.644 2953.14 695.37C3120.92 1030.82 3243.15 1501.93 3280.02 2029.2Z" stroke="black" stroke-opacity="0.07"/>
<path d="M3280.86 2043.05C3308.53 2570.88 3244.63 3053.38 3118.97 3406.78C3056.15 3583.48 2977.89 3727.88 2887.94 3829.53C2797.99 3931.18 2696.38 3990.06 2586.83 3995.8C2477.28 4001.54 2370.07 3953.61 2269.99 3861.91C2169.91 3770.22 2076.99 3634.79 1996.04 3465.63C1834.13 3127.3 1720.15 2654.13 1692.49 2126.3C1664.82 1598.47 1728.72 1115.97 1854.38 762.572C1917.2 585.872 1995.46 441.473 2085.41 339.821C2175.36 238.17 2276.97 179.294 2386.52 173.553C2496.07 167.812 2603.27 215.744 2703.35 307.436C2803.44 399.129 2896.36 534.557 2977.31 703.721C3139.22 1042.05 3253.2 1515.22 3280.86 2043.05Z" stroke="black" stroke-opacity="0.07"/>
<path d="M3281.47 2056.92C3299.91 2585.15 3227.6 3066.46 3095.8 3417.61C3029.9 3593.19 2949.14 3736.2 2857.43 3836.27C2765.72 3936.33 2663.1 3993.43 2553.46 3997.25C2443.83 4001.08 2337.47 3951.29 2239.01 3857.86C2140.54 3764.44 2050 3627.41 1972.01 3456.86C1816.03 3115.76 1710.33 2640.66 1691.88 2112.43C1673.43 1584.2 1745.74 1102.89 1877.54 751.738C1943.45 576.162 2024.21 433.151 2115.92 333.084C2207.63 233.019 2310.25 175.925 2419.89 172.097C2529.52 168.268 2635.87 218.064 2734.34 311.489C2832.8 404.915 2923.35 541.943 3001.34 712.495C3157.31 1053.59 3263.02 1528.69 3281.47 2056.92Z" stroke="black" stroke-opacity="0.07"/>
<path d="M3281.83 2070.8C3291.06 2599.27 3210.36 3079.24 3072.45 3428.04C3003.49 3602.44 2920.24 3744.02 2826.8 3842.47C2733.36 3940.92 2629.76 3996.21 2520.07 3998.13C2410.39 4000.04 2304.92 3948.4 2208.1 3853.27C2111.28 3758.14 2023.14 3619.55 1948.14 3447.67C1798.14 3103.9 1700.74 2627.03 1691.52 2098.55C1682.29 1570.08 1762.99 1090.11 1900.9 741.31C1969.86 566.911 2053.11 425.331 2146.55 326.88C2239.99 228.43 2343.59 173.136 2453.28 171.222C2562.96 169.307 2668.43 220.952 2765.25 316.081C2862.07 411.211 2950.21 549.799 3025.21 721.685C3175.21 1065.46 3272.61 1542.32 3281.83 2070.8Z" stroke="black" stroke-opacity="0.07"/>
<path d="M3281.95 2084.68C3281.95 2613.23 3192.89 3091.72 3048.91 3438.06C2976.92 3611.23 2891.22 3751.33 2796.07 3848.14C2700.93 3944.94 2596.37 3998.42 2486.67 3998.42C2376.97 3998.42 2272.42 3944.94 2177.28 3848.14C2082.13 3751.33 1996.42 3611.23 1924.43 3438.06C1780.46 3091.72 1691.39 2613.23 1691.39 2084.68C1691.39 1556.12 1780.46 1077.63 1924.43 731.292C1996.42 558.122 2082.13 418.017 2177.28 321.212C2272.42 224.408 2376.97 170.93 2486.67 170.93C2596.37 170.93 2700.93 224.408 2796.07 321.212C2891.22 418.017 2976.92 558.122 3048.91 731.292C3192.89 1077.63 3281.95 1556.12 3281.95 2084.68Z" stroke="black" stroke-opacity="0.07"/>
<path d="M3281.83 2098.56C3272.61 2627.03 3175.21 3103.9 3025.21 3447.67C2950.21 3619.55 2862.07 3758.14 2765.25 3853.27C2668.43 3948.4 2562.96 4000.04 2453.28 3998.13C2343.59 3996.21 2239.99 3940.92 2146.55 3842.47C2053.11 3744.02 1969.86 3602.44 1900.9 3428.04C1762.99 3079.25 1682.29 2599.27 1691.52 2070.8C1700.74 1542.32 1798.14 1065.46 1948.14 721.686C2023.14 549.8 2111.28 411.211 2208.1 316.081C2304.92 220.953 2410.39 169.308 2520.07 171.222C2629.76 173.137 2733.36 228.431 2826.8 326.881C2920.24 425.332 3003.49 566.912 3072.45 741.311C3210.36 1090.11 3291.06 1570.08 3281.83 2098.56Z" stroke="black" stroke-opacity="0.07"/>
<path d="M3281.47 2112.43C3263.02 2640.66 3157.31 3115.76 3001.34 3456.86C2923.35 3627.41 2832.8 3764.44 2734.34 3857.86C2635.87 3951.29 2529.52 4001.08 2419.89 3997.26C2310.25 3993.43 2207.63 3936.33 2115.92 3836.27C2024.21 3736.2 1943.45 3593.19 1877.55 3417.61C1745.74 3066.46 1673.43 2585.15 1691.88 2056.92C1710.33 1528.69 1816.03 1053.59 1972.01 712.495C2050 541.944 2140.54 404.915 2239.01 311.489C2337.48 218.064 2443.83 168.268 2553.46 172.097C2663.1 175.925 2765.72 233.019 2857.43 333.084C2949.14 433.151 3029.9 576.163 3095.8 751.739C3227.61 1102.89 3299.92 1584.2 3281.47 2112.43Z" stroke="black" stroke-opacity="0.07"/>
<path d="M3280.86 2126.3C3253.2 2654.13 3139.22 3127.3 2977.31 3465.63C2896.36 3634.79 2803.44 3770.22 2703.36 3861.91C2603.28 3953.61 2496.07 4001.54 2386.52 3995.8C2276.97 3990.06 2175.36 3931.18 2085.41 3829.53C1995.46 3727.88 1917.2 3583.48 1854.38 3406.78C1728.72 3053.38 1664.82 2570.88 1692.49 2043.05C1720.15 1515.22 1834.13 1042.05 1996.04 703.72C2076.99 534.556 2169.91 399.129 2270 307.435C2370.08 215.744 2477.28 167.811 2586.83 173.552C2696.38 179.294 2797.99 238.17 2887.94 339.82C2977.89 441.473 3056.15 585.872 3118.97 762.571C3244.63 1115.97 3308.53 1598.47 3280.86 2126.3Z" stroke="black" stroke-opacity="0.07"/>
<path d="M3280.02 2140.15C3243.15 2667.42 3120.92 3138.53 2953.14 3473.98C2869.24 3641.71 2773.97 3775.49 2672.3 3865.43C2570.64 3955.36 2462.61 4001.41 2353.18 3993.76C2243.75 3986.11 2143.18 3925.47 2055.02 3822.26C1966.86 3719.06 1891.13 3573.31 1831.4 3395.54C1711.93 3040.01 1656.46 2556.47 1693.33 2029.2C1730.2 1501.93 1852.43 1030.82 2020.21 695.37C2104.11 527.644 2199.38 393.859 2301.05 303.926C2402.71 213.995 2510.74 167.941 2620.17 175.593C2729.6 183.246 2830.17 243.886 2918.33 347.091C3006.49 450.298 3082.22 596.041 3141.95 773.809C3261.42 1129.34 3316.89 1612.89 3280.02 2140.15Z" stroke="black" stroke-opacity="0.07"/>
<path d="M3278.93 2153.99C3232.86 2680.53 3102.43 3149.44 2928.82 3481.91C2842.01 3648.15 2744.42 3780.25 2641.2 3868.39C2537.98 3956.54 2429.16 4000.7 2319.88 3991.14C2210.6 3981.58 2111.11 3919.19 2024.76 3814.46C1938.41 3709.73 1865.24 3562.69 1808.62 3383.91C1695.38 3026.34 1648.36 2541.91 1694.42 2015.36C1740.49 1488.82 1870.92 1019.91 2044.53 687.439C2131.34 521.203 2228.93 389.1 2332.15 300.956C2435.37 212.813 2544.19 168.651 2653.47 178.212C2762.75 187.773 2862.24 250.159 2948.59 354.887C3034.94 459.617 3108.11 606.659 3164.73 785.443C3277.97 1143.01 3324.99 1627.44 3278.93 2153.99Z" stroke="black" stroke-opacity="0.07"/>
<path d="M3277.6 2167.81C3222.35 2693.47 3083.76 3160.03 2904.37 3489.42C2814.67 3654.11 2714.79 3784.49 2610.04 3870.82C2505.3 3957.15 2395.73 3999.4 2286.63 3987.94C2177.54 3976.47 2079.15 3912.36 1994.64 3806.14C1910.13 3699.92 1839.54 3551.62 1786.05 3371.88C1679.06 3012.39 1640.5 2527.21 1695.75 2001.55C1751 1475.89 1889.59 1009.33 2068.98 679.937C2158.68 515.242 2258.56 384.862 2363.31 298.533C2468.05 212.205 2577.62 169.949 2686.72 181.415C2795.81 192.882 2894.2 256.995 2978.71 363.214C3063.21 469.435 3133.81 617.732 3187.3 797.477C3294.29 1156.97 3332.85 1642.15 3277.6 2167.81Z" stroke="black" stroke-opacity="0.07"/>
<path d="M3276.02 2181.6C3211.61 2706.21 3064.9 3170.28 2879.79 3496.49C2787.23 3659.6 2685.09 3788.21 2578.85 3872.7C2472.62 3957.19 2362.33 3997.52 2253.45 3984.16C2144.56 3970.79 2047.31 3904.97 1964.67 3797.29C1882.03 3689.61 1814.04 3540.1 1763.69 3359.45C1662.99 2998.15 1632.91 2512.37 1697.32 1987.76C1761.74 1463.14 1908.45 999.068 2093.56 672.86C2186.12 509.755 2288.26 381.139 2394.5 296.651C2500.73 212.164 2611.02 171.826 2719.9 185.195C2828.78 198.564 2926.04 264.385 3008.68 372.062C3091.32 479.742 3159.31 629.248 3209.66 809.9C3310.35 1171.2 3340.44 1656.98 3276.02 2181.6Z" stroke="black" stroke-opacity="0.07"/>
<path d="M3274.21 2195.36C3200.65 2718.77 3045.86 3180.21 2855.09 3503.14C2759.7 3664.6 2655.33 3791.42 2547.63 3874.04C2439.94 3956.66 2328.97 3995.06 2220.33 3979.8C2111.7 3964.53 2015.61 3897.02 1934.86 3787.92C1854.12 3678.81 1788.74 3528.14 1741.55 3346.64C1647.18 2983.64 1625.57 2497.41 1699.14 1974C1772.7 1450.58 1927.49 989.143 2118.26 666.215C2213.65 504.75 2318.02 377.937 2425.72 295.315C2533.41 212.695 2644.38 174.289 2753.02 189.556C2861.65 204.823 2957.74 272.331 3038.49 381.434C3119.23 490.54 3184.61 641.21 3231.8 822.712C3326.17 1185.72 3347.78 1671.95 3274.21 2195.36Z" stroke="black" stroke-opacity="0.07"/>
<path d="M3272.16 2209.09C3189.48 2731.13 3026.66 3189.8 2830.28 3509.35C2732.08 3669.13 2625.51 3794.1 2516.4 3874.83C2407.28 3955.56 2295.65 3992.02 2187.3 3974.86C2078.95 3957.7 1984.05 3888.53 1905.22 3778.03C1826.39 3667.53 1763.66 3515.74 1719.64 3333.45C1631.62 2968.85 1618.5 2482.32 1701.19 1960.27C1783.87 1438.22 1946.69 979.551 2143.07 660.003C2241.27 500.227 2347.84 375.254 2456.95 294.525C2566.07 213.797 2677.7 177.333 2786.05 194.494C2894.4 211.655 2989.3 280.829 3068.13 391.325C3146.96 501.823 3209.7 653.611 3253.71 835.91C3341.73 1200.5 3354.85 1687.04 3272.16 2209.09Z" stroke="black" stroke-opacity="0.07"/>
<path d="M3269.87 2222.78C3178.09 2743.3 3007.29 3199.06 2805.36 3515.13C2704.39 3673.17 2595.66 3796.26 2485.15 3875.08C2374.64 3953.89 2262.39 3988.4 2154.36 3969.35C2046.32 3950.3 1952.65 3879.48 1875.76 3767.62C1798.87 3655.77 1738.79 3502.91 1697.96 3319.87C1616.32 2953.79 1611.7 2467.1 1703.48 1946.58C1795.26 1426.05 1966.06 970.295 2167.99 654.222C2268.96 496.184 2377.69 373.09 2488.2 294.277C2598.71 215.466 2710.96 180.956 2818.99 200.005C2927.03 219.055 3020.7 289.875 3097.59 401.73C3174.48 513.587 3234.56 666.446 3275.38 849.485C3357.03 1215.56 3361.65 1702.25 3269.87 2222.78Z" stroke="black" stroke-opacity="0.07"/>
<path d="M3267.34 2236.42C3166.49 2755.27 2987.76 3207.97 2780.35 3520.48C2676.64 3676.73 2565.77 3797.9 2453.9 3874.78C2342.04 3951.65 2229.2 3984.19 2121.52 3963.26C2013.83 3942.33 1921.4 3869.88 1846.48 3756.7C1771.55 3643.52 1714.15 3489.64 1676.53 3305.91C1601.28 2938.47 1605.15 2451.77 1706.01 1932.93C1806.86 1414.09 1985.59 961.379 2193 648.878C2296.71 492.627 2407.58 371.449 2519.45 294.577C2631.32 217.706 2744.15 185.161 2851.84 206.092C2959.52 227.024 3051.95 299.469 3126.87 412.648C3201.8 525.83 3259.2 679.715 3296.82 863.439C3372.07 1230.88 3368.2 1717.58 3267.34 2236.42Z" stroke="black" stroke-opacity="0.07"/>
<path d="M3264.57 2250.02C3154.68 2767.03 2968.08 3216.55 2755.24 3525.38C2648.82 3679.8 2535.86 3799.02 2422.67 3873.93C2309.47 3948.84 2196.09 3979.41 2088.78 3956.6C1981.48 3933.79 1890.33 3859.75 1817.39 3745.28C1744.45 3630.8 1689.75 3475.94 1655.34 3291.59C1586.51 2922.89 1598.88 2436.33 1708.77 1919.33C1818.67 1402.32 2005.27 952.803 2218.11 643.97C2324.53 489.552 2437.49 370.328 2550.68 295.42C2663.88 220.513 2777.26 189.942 2884.56 212.75C2991.87 235.558 3083.02 309.604 3155.95 424.074C3228.89 538.546 3283.6 693.41 3318.01 877.762C3386.83 1246.46 3374.47 1733.02 3264.57 2250.02Z" stroke="black" stroke-opacity="0.07"/>
<path d="M3261.57 2263.57C3142.67 2778.58 2948.25 3224.78 2730.06 3529.85C2620.96 3682.39 2505.93 3799.62 2391.45 3872.54C2276.97 3945.46 2163.06 3974.05 2056.18 3949.37C1949.29 3924.69 1859.45 3849.07 1788.52 3733.34C1717.58 3617.61 1665.59 3461.82 1634.4 3276.9C1572.02 2907.05 1592.88 2420.78 1711.78 1905.78C1830.68 1390.77 2025.1 944.574 2243.29 639.503C2352.39 486.966 2467.42 369.731 2581.9 296.81C2696.38 223.89 2810.29 195.303 2917.17 219.98C3024.06 244.657 3113.91 320.283 3184.83 436.008C3255.77 551.736 3307.76 707.531 3338.95 892.455C3401.33 1262.3 3380.47 1748.57 3261.57 2263.57Z" stroke="black" stroke-opacity="0.07"/>
<path d="M3258.33 2277.07C3130.46 2789.93 2928.29 3232.66 2704.8 3533.88C2593.06 3684.49 2476 3799.69 2360.26 3870.61C2244.52 3941.52 2130.14 3968.11 2023.7 3941.57C1917.26 3915.04 1828.75 3837.85 1759.85 3720.91C1690.95 3603.96 1641.68 3447.28 1613.72 3261.84C1557.81 2890.96 1587.15 2405.13 1715.02 1892.28C1842.89 1379.43 2045.06 936.692 2268.55 635.475C2380.29 484.866 2497.35 369.657 2613.09 298.745C2728.83 227.834 2843.21 201.238 2949.65 227.777C3056.09 254.316 3144.6 331.498 3213.5 448.444C3282.4 565.392 3331.67 722.07 3359.63 907.511C3415.54 1278.39 3386.2 1764.22 3258.33 2277.07Z" stroke="black" stroke-opacity="0.07"/>
<path d="M3254.85 2290.51C3118.05 2801.05 2908.18 3240.19 2679.47 3537.46C2565.12 3686.1 2446.07 3799.25 2329.11 3868.13C2212.15 3937.01 2097.32 3961.6 1991.36 3933.21C1885.4 3904.82 1798.25 3826.1 1731.4 3707.97C1664.55 3589.84 1618.03 3432.33 1593.31 3246.43C1543.88 2874.63 1581.69 2389.39 1718.49 1878.84C1855.29 1368.3 2065.16 929.161 2293.87 631.89C2408.23 483.254 2527.28 370.105 2644.24 301.224C2761.19 232.344 2876.03 207.748 2981.99 236.141C3087.95 264.533 3175.1 343.249 3241.95 461.379C3308.79 579.512 3355.32 737.026 3380.04 922.926C3429.47 1294.73 3391.65 1779.97 3254.85 2290.51Z" stroke="black" stroke-opacity="0.07"/>
<path d="M3251.15 2303.88C3105.46 2811.96 2887.95 3247.37 2654.09 3540.6C2537.16 3687.22 2416.15 3798.28 2298.01 3865.11C2179.87 3931.93 2064.63 3954.52 1959.18 3924.28C1853.73 3894.05 1767.96 3813.82 1703.19 3694.54C1638.41 3575.26 1594.64 3416.96 1573.17 3230.66C1530.24 2858.05 1576.52 2373.55 1722.21 1865.47C1867.89 1357.39 2085.4 921.979 2319.26 628.745C2436.19 482.127 2557.2 371.073 2675.34 304.243C2793.48 237.415 2908.73 214.828 3014.18 245.065C3119.63 275.302 3205.39 355.527 3270.16 474.806C3334.94 594.087 3378.71 752.389 3400.18 938.693C3443.11 1311.3 3396.84 1795.8 3251.15 2303.88Z" stroke="black" stroke-opacity="0.07"/>
<path d="M3247.21 2317.19C3092.67 2822.65 2867.6 3254.2 2628.66 3543.31C2509.18 3687.86 2386.26 3796.79 2266.97 3861.54C2147.68 3926.3 2032.06 3946.87 1927.15 3914.8C1822.25 3882.73 1737.9 3801.02 1675.21 3680.63C1612.53 3560.23 1571.53 3401.19 1553.31 3214.54C1516.89 2841.24 1571.61 2357.62 1726.15 1852.16C1880.68 1346.7 2105.75 915.153 2344.7 626.045C2464.17 481.49 2587.09 372.565 2706.39 307.808C2825.68 243.051 2941.3 222.479 3046.2 254.552C3151.11 286.625 3235.46 368.334 3298.14 488.725C3360.83 609.119 3401.83 768.161 3420.04 954.811C3456.47 1328.11 3401.74 1811.73 3247.21 2317.19Z" stroke="black" stroke-opacity="0.07"/>
<path d="M3243.03 2330.43C3079.7 2833.12 2847.13 3260.67 2603.18 3545.56C2481.2 3688.01 2356.39 3794.77 2235.99 3857.44C2115.59 3920.1 1999.63 3938.65 1895.29 3904.75C1790.96 3870.86 1708.05 3787.69 1647.48 3666.22C1586.91 3544.75 1548.69 3385.02 1533.73 3198.08C1503.83 2824.2 1566.99 2341.61 1730.32 1838.92C1893.65 1336.24 2126.22 908.683 2370.17 623.79C2492.15 481.342 2616.96 374.579 2737.36 311.913C2857.76 249.248 2973.72 230.697 3078.05 264.596C3182.38 298.495 3265.29 381.663 3325.87 503.131C3386.44 624.6 3424.66 784.333 3439.61 971.272C3469.52 1345.15 3406.36 1827.74 3243.03 2330.43Z" stroke="black" stroke-opacity="0.07"/>
<path d="M3238.63 2343.59C3066.55 2843.35 2826.55 3266.78 2577.66 3547.37C2453.22 3687.67 2326.57 3792.24 2205.09 3852.79C2083.61 3913.35 1967.34 3929.87 1863.62 3894.16C1759.9 3858.44 1678.45 3773.84 1620.01 3651.33C1561.56 3528.82 1526.14 3368.45 1514.45 3181.28C1491.07 2806.94 1562.64 2325.52 1734.72 1825.76C1906.81 1326 2146.8 902.571 2395.69 621.978C2520.13 481.681 2646.78 377.112 2768.26 316.558C2889.74 256.004 3006.01 239.479 3109.73 275.193C3213.45 310.908 3294.9 395.511 3353.34 518.017C3411.79 640.525 3447.21 800.901 3458.9 988.073C3482.28 1362.41 3410.71 1843.83 3238.63 2343.59Z" stroke="black" stroke-opacity="0.07"/>
<path d="M3233.99 2356.68C3053.22 2853.35 2805.87 3272.53 2552.12 3548.74C2425.25 3686.84 2296.79 3789.18 2174.27 3847.61C2051.76 3906.03 1935.22 3920.53 1832.14 3883.01C1729.05 3845.49 1649.1 3759.47 1592.8 3635.97C1536.5 3512.46 1503.88 3351.49 1495.46 3164.14C1478.62 2789.45 1558.58 2309.35 1739.36 1812.67C1920.13 1315.99 2167.48 896.818 2421.23 620.612C2548.1 482.508 2676.56 380.166 2799.08 321.74C2921.59 263.316 3038.13 248.822 3141.21 286.342C3244.3 323.861 3324.26 409.873 3380.55 533.38C3436.85 656.889 3469.47 817.859 3477.89 1005.21C3494.73 1379.9 3414.77 1860 3233.99 2356.68Z" stroke="black" stroke-opacity="0.07"/>
<path d="M3229.13 2369.68C3039.72 2863.13 2785.09 3277.92 2526.56 3549.66C2397.3 3685.53 2267.07 3785.61 2143.55 3841.89C2020.04 3898.17 1903.26 3910.62 1800.85 3871.31C1698.44 3832 1619.99 3744.6 1565.86 3620.13C1511.73 3495.66 1481.92 3334.15 1476.77 3146.68C1466.47 2771.75 1554.8 2293.12 1744.22 1799.67C1933.64 1306.22 2188.26 891.43 2446.79 619.695C2576.06 483.826 2706.28 383.741 2829.8 327.463C2953.31 271.185 3070.09 258.728 3172.5 298.041C3274.91 337.354 3353.36 424.748 3407.49 549.218C3461.63 673.691 3491.43 835.206 3496.58 1022.67C3506.88 1397.6 3418.55 1876.23 3229.13 2369.68Z" stroke="black" stroke-opacity="0.07"/>
<path d="M3224.05 2382.59C3026.05 2872.66 2764.22 3282.95 2500.99 3550.13C2369.37 3683.72 2237.42 3781.52 2112.94 3835.63C1988.46 3889.75 1871.49 3900.16 1769.77 3859.07C1668.06 3817.98 1591.16 3729.23 1539.2 3603.83C1487.25 3478.43 1460.27 3316.42 1458.39 3128.89C1454.64 2753.84 1551.31 2276.83 1749.31 1786.76C1947.31 1296.69 2209.13 886.404 2472.36 619.222C2603.98 485.63 2735.93 387.833 2860.41 333.719C2984.89 279.606 3101.87 269.188 3203.58 310.283C3305.29 351.377 3382.2 440.126 3434.15 565.523C3486.1 690.922 3513.08 852.932 3514.96 1040.46C3518.71 1415.51 3422.05 1892.53 3224.05 2382.59Z" stroke="black" stroke-opacity="0.07"/>
<path d="M3218.73 2395.42C3012.21 2881.96 2743.26 3287.61 2475.41 3550.16C2341.48 3681.43 2207.84 3776.91 2082.43 3828.85C1957.03 3880.78 1839.89 3889.15 1738.91 3846.29C1637.93 3803.43 1562.59 3713.35 1512.83 3587.06C1463.07 3460.78 1438.92 3298.32 1440.32 3110.79C1443.11 2735.73 1548.09 2260.47 1754.61 1773.94C1961.14 1287.4 2230.08 881.745 2497.94 619.197C2631.87 487.923 2765.5 392.444 2890.91 340.51C3016.32 288.578 3133.45 280.203 3234.43 323.066C3335.41 365.929 3410.76 456.008 3460.51 582.292C3510.27 708.578 3534.42 871.035 3533.03 1058.57C3530.23 1433.63 3425.25 1908.88 3218.73 2395.42Z" stroke="black" stroke-opacity="0.07"/>
<path d="M3213.2 2408.14C2998.22 2891 2722.23 3291.9 2449.83 3549.74C2313.64 3678.65 2178.35 3771.79 2052.06 3821.52C1925.76 3871.26 1808.5 3877.59 1708.28 3832.97C1608.07 3788.35 1534.31 3696.97 1486.76 3569.84C1439.22 3442.7 1417.9 3279.85 1422.57 3092.37C1431.91 2717.42 1545.17 2244.07 1760.15 1761.21C1975.13 1278.35 2251.12 877.448 2523.51 619.615C2659.71 490.697 2795 397.565 2921.29 347.828C3047.58 298.092 3164.85 291.764 3265.06 336.382C3365.28 381.001 3439.04 472.381 3486.59 599.514C3534.13 726.65 3555.45 889.503 3550.78 1076.98C3541.44 1451.94 3428.18 1925.29 3213.2 2408.14Z" stroke="black" stroke-opacity="0.07"/>
<path d="M3207.44 2420.78C2984.07 2899.81 2701.13 3295.83 2424.27 3548.87C2285.84 3675.39 2148.95 3766.15 2021.81 3813.68C1894.67 3861.2 1777.31 3865.48 1677.89 3819.12C1578.47 3772.76 1506.31 3680.11 1460.99 3552.16C1415.67 3424.22 1397.21 3261.02 1405.15 3073.65C1421.03 2698.91 1542.53 2227.61 1765.91 1748.58C1989.28 1269.54 2272.22 873.523 2549.08 620.483C2687.51 493.962 2824.39 403.205 2951.54 355.68C3078.68 308.156 3196.04 303.875 3295.46 350.236C3394.88 396.597 3467.04 489.25 3512.35 617.193C3557.67 745.139 3576.14 908.34 3568.2 1095.71C3552.32 1470.44 3430.82 1941.74 3207.44 2420.78Z" stroke="black" stroke-opacity="0.07"/>
<path d="M3201.47 2433.3C2969.76 2908.37 2679.96 3299.39 2398.73 3547.56C2258.11 3671.64 2119.66 3760 1991.71 3805.3C1863.76 3850.6 1746.34 3852.83 1647.74 3804.74C1549.15 3756.65 1478.62 3662.75 1435.54 3534.04C1392.46 3405.32 1376.84 3241.82 1388.05 3054.62C1410.47 2680.22 1540.18 2211.11 1771.88 1736.05C2003.59 1260.99 2293.39 869.963 2574.62 621.793C2715.24 497.708 2853.69 409.354 2981.64 364.055C3109.59 318.757 3227.01 316.524 3325.6 364.613C3424.2 412.702 3494.73 506.601 3537.81 635.316C3580.89 764.033 3596.51 927.531 3585.3 1114.73C3562.88 1489.13 3433.17 1958.24 3201.47 2433.3Z" stroke="black" stroke-opacity="0.07"/>
<path d="M3195.27 2445.73C2955.31 2916.67 2658.73 3302.58 2373.21 3545.8C2230.45 3667.41 2090.48 3753.34 1961.75 3796.4C1833.03 3839.46 1715.59 3839.64 1617.85 3789.84C1520.11 3740.03 1451.23 3644.92 1410.4 3515.47C1369.58 3386.02 1356.82 3222.28 1371.29 3035.3C1400.24 2661.35 1538.12 2194.57 1778.07 1723.63C2018.03 1252.68 2314.62 866.775 2600.14 623.552C2742.9 501.939 2882.87 416.015 3011.59 372.956C3140.32 329.898 3257.75 329.715 3355.5 379.517C3453.24 429.32 3522.12 524.435 3562.94 653.882C3603.77 783.332 3616.53 947.077 3602.06 1134.05C3573.11 1508.01 3435.23 1974.78 3195.27 2445.73Z" stroke="black" stroke-opacity="0.07"/>
<path d="M3188.86 2458.04C2940.72 2924.72 2637.45 3305.4 2347.73 3543.6C2202.87 3662.7 2061.42 3746.17 1931.96 3786.98C1802.5 3827.78 1685.08 3825.91 1588.23 3774.41C1491.37 3722.91 1424.16 3626.61 1385.6 3496.47C1347.04 3366.33 1337.14 3202.38 1354.87 3015.69C1390.34 2642.3 1536.34 2178 1784.48 1711.32C2032.63 1244.63 2335.9 863.959 2625.62 625.755C2770.48 506.653 2911.93 423.184 3041.39 382.379C3170.84 341.574 3288.26 343.44 3385.12 394.941C3481.98 446.442 3549.19 542.744 3587.75 672.884C3626.31 803.027 3636.21 966.97 3618.48 1153.67C3583.01 1527.06 3437.01 1991.35 3188.86 2458.04Z" stroke="black" stroke-opacity="0.07"/>
<path d="M3182.24 2470.24C2925.99 2932.52 2616.12 3307.84 2322.29 3540.95C2175.37 3657.51 2032.48 3738.49 1902.33 3777.04C1772.19 3815.57 1654.82 3811.66 1558.87 3758.48C1462.93 3705.29 1397.41 3607.83 1361.13 3477.04C1324.84 3346.24 1317.8 3182.15 1338.8 2995.79C1380.78 2623.08 1534.86 2161.4 1791.11 1699.12C2047.36 1236.83 2357.23 861.512 2651.06 628.402C2797.98 511.846 2940.87 430.858 3071.01 392.318C3201.16 353.779 3318.53 357.694 3414.48 410.878C3510.42 464.061 3575.94 561.522 3612.22 692.315C3648.51 823.111 3655.54 987.202 3634.55 1173.56C3592.57 1546.27 3438.49 2007.95 3182.24 2470.24Z" stroke="black" stroke-opacity="0.07"/>
<path d="M3175.41 2482.32C2911.13 2940.06 2594.75 3309.91 2296.9 3537.86C2147.97 3651.84 2003.69 3730.32 1872.89 3766.58C1742.09 3802.84 1624.81 3796.88 1529.8 3742.03C1434.8 3687.18 1370.99 3588.59 1337 3457.18C1303 3325.77 1298.83 3161.59 1323.07 2975.62C1371.55 2603.7 1533.67 2144.78 1797.94 1687.04C2062.22 1229.3 2378.6 859.44 2676.45 631.493C2825.38 517.519 2969.66 439.038 3100.46 402.775C3231.26 366.512 3348.55 372.476 3443.55 427.325C3538.55 482.175 3602.36 580.764 3636.35 712.171C3670.35 843.58 3674.52 1007.77 3650.28 1193.73C3601.8 1565.66 3439.68 2024.58 3175.41 2482.32Z" stroke="black" stroke-opacity="0.07"/>
<path d="M3168.36 2494.28C2896.14 2947.34 2573.35 3311.61 2271.56 3534.33C2120.67 3645.69 1975.04 3721.64 1843.63 3755.61C1712.22 3789.59 1595.05 3781.58 1501.02 3725.08C1406.99 3668.58 1344.92 3568.89 1313.22 3436.91C1281.52 3304.93 1280.22 3140.69 1307.7 2955.18C1362.66 2584.16 1532.76 2128.14 1804.99 1675.08C2077.21 1222.02 2400 857.741 2701.79 635.027C2852.68 523.669 2998.31 447.718 3129.72 413.744C3261.13 379.77 3378.3 387.779 3472.33 444.278C3566.36 500.778 3628.43 600.465 3660.13 732.446C3691.83 864.428 3693.13 1028.66 3665.65 1214.18C3610.69 1585.2 3440.59 2041.22 3168.36 2494.28Z" stroke="black" stroke-opacity="0.07"/>
<path d="M3161.11 2506.11C2881.02 2954.35 2551.93 3312.94 2246.3 3530.35C2093.48 3639.06 1946.55 3712.46 1814.56 3744.13C1682.58 3775.81 1565.57 3765.75 1472.54 3707.62C1379.51 3649.49 1319.19 3548.74 1289.8 3416.22C1260.41 3283.71 1261.97 3119.47 1292.68 2934.47C1354.11 2564.46 1532.15 2111.48 1812.24 1663.24C2092.33 1215 2421.42 856.413 2727.05 638.999C2879.87 530.292 3026.8 456.894 3158.78 425.218C3290.77 393.543 3407.77 403.596 3500.8 461.727C3593.83 519.859 3654.16 620.615 3683.55 753.128C3712.94 885.644 3711.38 1049.88 3680.66 1234.88C3619.23 1604.89 3441.2 2057.87 3161.11 2506.11Z" stroke="black" stroke-opacity="0.07"/>
<path d="M3153.65 2517.81C2865.78 2961.1 2530.48 3313.89 2221.1 3525.93C2066.41 3631.96 1918.23 3702.78 1785.71 3732.15C1653.19 3761.52 1536.38 3749.42 1444.38 3689.68C1352.37 3629.93 1293.82 3528.14 1266.74 3395.13C1239.67 3262.12 1244.1 3097.94 1278.04 2913.5C1345.92 2544.62 1531.83 2094.82 1819.7 1651.53C2107.57 1208.25 2442.87 855.46 2752.25 643.414C2906.94 537.39 3055.13 466.568 3187.65 437.2C3320.16 407.833 3436.97 419.926 3528.98 479.673C3620.98 539.42 3679.54 641.213 3706.61 774.219C3733.68 907.227 3729.26 1071.41 3695.32 1255.85C3627.44 1624.73 3441.53 2074.53 3153.65 2517.81Z" stroke="black" stroke-opacity="0.07"/>
<path d="M3145.99 2529.39C2850.43 2967.58 2509.02 3314.47 2195.99 3521.08C2039.47 3624.39 1890.07 3692.62 1757.06 3719.67C1624.05 3746.72 1507.47 3732.59 1416.52 3671.24C1325.58 3609.9 1268.8 3507.1 1244.06 3373.64C1219.31 3240.18 1226.6 3076.1 1263.76 2892.28C1338.06 2524.65 1531.8 2078.15 1827.36 1639.96C2122.92 1201.77 2464.33 854.885 2777.36 648.27C2933.88 544.962 3083.28 476.736 3216.29 449.686C3349.3 422.636 3465.88 436.766 3556.83 498.109C3647.77 559.453 3704.55 662.253 3729.29 795.711C3754.04 929.171 3746.75 1093.25 3709.6 1277.07C3635.29 1644.71 3441.56 2091.2 3145.99 2529.39Z" stroke="black" stroke-opacity="0.07"/>
<path d="M3138.13 2540.83C2834.96 2973.8 2487.55 3314.67 2170.96 3515.79C2012.67 3616.35 1862.1 3681.96 1728.64 3706.68C1595.17 3731.41 1478.86 3715.25 1389 3652.32C1299.13 3589.4 1244.16 3485.63 1221.75 3351.76C1199.34 3217.89 1209.49 3053.96 1249.85 2870.82C1330.56 2504.53 1532.05 2061.49 1835.22 1628.52C2138.39 1195.56 2485.8 854.682 2802.38 653.562C2960.68 553.002 3111.25 487.394 3244.71 462.669C3378.18 437.945 3494.49 454.107 3584.35 517.028C3674.21 579.95 3729.19 683.725 3751.6 817.594C3774.01 951.466 3763.86 1115.39 3723.5 1298.54C3642.79 1664.82 3441.3 2107.86 3138.13 2540.83Z" stroke="black" stroke-opacity="0.07"/>
<path d="M3130.07 2552.13C2819.39 2979.74 2466.09 3314.5 2146.04 3510.06C1986.01 3607.84 1834.32 3670.81 1700.44 3693.21C1566.57 3715.6 1450.55 3697.41 1361.8 3632.93C1273.06 3568.45 1219.9 3463.73 1199.83 3329.49C1179.76 3195.25 1192.77 3031.52 1236.32 2849.11C1323.41 2484.29 1532.6 2044.83 1843.28 1617.22C2153.96 1189.61 2507.26 854.853 2827.31 659.288C2987.34 561.506 3139.03 498.536 3272.91 476.144C3406.78 453.753 3522.8 471.943 3611.55 536.422C3700.3 600.902 3753.45 705.621 3773.52 839.861C3793.59 974.104 3780.58 1137.83 3737.04 1320.24C3649.94 1685.06 3440.75 2124.52 3130.07 2552.13Z" stroke="black" stroke-opacity="0.07"/>
<path d="M3121.32 2563.31C2803.23 2985.43 2444.13 3313.97 2120.72 3503.92C1959.01 3598.9 1806.24 3659.21 1672 3679.26C1537.75 3699.31 1422.07 3679.1 1334.46 3613.08C1246.85 3547.06 1195.53 3441.43 1177.81 3306.86C1160.08 3172.29 1175.95 3008.82 1222.67 2827.19C1316.11 2463.95 1532.95 2028.21 1851.04 1606.08C2169.13 1183.96 2528.23 855.42 2851.64 665.472C3013.35 570.497 3166.12 510.184 3300.36 490.132C3434.61 470.08 3550.29 490.292 3637.9 556.311C3725.51 622.33 3776.83 727.96 3794.55 862.531C3812.28 997.103 3796.41 1160.58 3749.69 1342.2C3656.25 1705.44 3439.41 2141.18 3121.32 2563.31Z" stroke="black" stroke-opacity="0.07"/>
<path d="M3112.87 2574C2787.46 2990.51 2422.69 3312.73 2096.01 3497.01C1932.66 3589.14 1778.87 3646.78 1644.29 3664.49C1509.72 3682.19 1394.41 3659.97 1307.96 3592.43C1221.52 3524.89 1172.05 3418.38 1156.68 3283.52C1141.3 3148.66 1160.02 2985.49 1209.9 2804.71C1309.67 2443.15 1534.08 2011.26 1859.49 1594.75C2184.9 1178.25 2549.68 856.022 2876.36 671.746C3039.7 579.608 3193.49 521.97 3328.07 504.264C3462.64 486.559 3577.96 508.787 3664.4 576.325C3750.84 643.862 3800.31 750.372 3815.69 885.231C3831.06 1020.09 3812.34 1183.26 3762.46 1364.04C3662.69 1725.6 3438.28 2157.49 3112.87 2574Z" stroke="black" stroke-opacity="0.07"/>
<path d="M3104.23 2584.86C2771.6 2995.63 2401.26 3311.44 2071.41 3489.98C1906.49 3579.26 1751.71 3634.2 1616.84 3649.56C1481.98 3664.91 1367.07 3640.67 1281.82 3571.64C1196.57 3502.6 1148.97 3395.24 1135.95 3260.14C1122.93 3125.03 1144.49 2962.21 1197.53 2782.33C1303.59 2422.57 1535.5 1994.66 1868.13 1583.89C2200.76 1173.13 2571.1 857.319 2900.95 678.773C3065.88 589.499 3220.65 534.555 3355.52 519.2C3490.38 503.846 3605.29 528.083 3690.54 597.119C3775.79 666.155 3823.39 773.512 3836.41 908.619C3849.43 1043.73 3827.87 1206.55 3774.83 1386.43C3668.77 1746.19 3436.86 2174.1 3104.23 2584.86Z" stroke="black" stroke-opacity="0.07"/>
<path d="M3095.4 2595.58C2755.65 3000.47 2379.85 3309.77 2046.94 3482.53C1880.48 3568.91 1724.77 3621.15 1589.66 3634.15C1454.55 3647.15 1340.08 3620.91 1256.05 3550.39C1172.01 3479.88 1126.3 3371.71 1115.63 3236.4C1104.97 3101.08 1129.38 2938.66 1185.54 2759.73C1297.87 2401.88 1537.21 1978.08 1876.96 1573.18C2216.71 1168.29 2592.5 858.99 2925.42 686.228C3091.87 599.846 3247.59 547.611 3382.7 534.612C3517.81 521.614 3632.28 547.853 3716.31 618.367C3800.35 688.88 3846.06 797.051 3856.72 932.365C3867.38 1067.68 3842.98 1230.1 3786.82 1409.03C3674.49 1766.88 3435.15 2190.68 3095.4 2595.58Z" stroke="black" stroke-opacity="0.07"/>
<path d="M3086.38 2606.13C2739.62 3005.04 2358.48 3307.73 2022.61 3474.65C1854.67 3558.12 1698.07 3607.63 1562.75 3618.27C1427.43 3628.9 1313.44 3600.67 1230.65 3528.7C1147.86 3456.73 1104.04 3347.78 1095.74 3212.3C1087.44 3076.82 1114.67 2914.85 1173.95 2736.93C1292.51 2381.09 1539.21 1961.54 1885.97 1562.63C2232.74 1163.73 2613.87 861.033 2949.75 694.107C3117.69 610.644 3274.29 561.134 3409.61 550.495C3544.93 539.857 3658.92 568.09 3741.71 640.059C3824.5 712.028 3868.32 820.981 3876.62 956.46C3884.92 1091.94 3857.68 1253.91 3798.41 1431.83C3679.85 1787.67 3433.15 2207.23 3086.38 2606.13Z" stroke="black" stroke-opacity="0.07"/>
<path d="M3077.19 2616.52C2723.52 3009.32 2337.16 3305.31 1998.42 3466.35C1829.05 3546.87 1671.6 3593.64 1536.12 3601.91C1400.64 3610.19 1287.16 3579.97 1205.64 3506.57C1124.11 3433.17 1082.2 3323.46 1076.27 3187.86C1070.34 3052.26 1100.39 2890.79 1162.77 2713.93C1287.51 2360.21 1541.5 1945.03 1895.17 1552.23C2248.85 1159.44 2635.21 863.446 2973.95 702.407C3143.32 621.888 3300.76 575.119 3436.24 566.843C3571.72 558.568 3685.2 588.786 3766.73 662.189C3848.25 735.592 3890.16 845.293 3896.1 980.897C3902.03 1116.5 3871.97 1277.97 3809.6 1454.83C3684.85 1808.55 3430.86 2223.73 3077.19 2616.52Z" stroke="black" stroke-opacity="0.07"/>
<path d="M3067.81 2626.75C2707.34 3013.31 2315.87 3302.52 1974.37 3457.62C1803.62 3535.18 1645.39 3579.19 1509.78 3585.1C1374.17 3591.01 1261.24 3558.81 1181.01 3484C1100.78 3409.18 1060.79 3298.77 1057.22 3163.08C1053.66 3027.39 1086.53 2866.48 1151.98 2690.73C1282.88 2339.25 1544.08 1928.56 1904.55 1542C2265.02 1155.44 2656.49 866.229 2997.99 711.127C3168.74 633.575 3326.97 589.561 3462.58 583.652C3598.19 577.742 3711.12 609.936 3791.35 684.751C3871.58 759.566 3911.57 869.981 3915.14 1005.67C3918.7 1141.36 3885.83 1302.28 3820.38 1478.02C3689.48 1829.51 3428.28 2240.19 3067.81 2626.75Z" stroke="black" stroke-opacity="0.07"/>
<path d="M3058.26 2636.82C2691.09 3017.03 2294.64 3299.37 1950.48 3448.48C1778.41 3523.04 1619.43 3564.29 1483.74 3567.83C1348.05 3571.37 1235.69 3537.21 1156.78 3461.01C1077.87 3384.81 1039.81 3273.71 1038.62 3137.98C1037.42 3002.25 1073.09 2841.93 1141.6 2667.36C1278.62 2318.21 1546.94 1912.14 1914.11 1531.93C2281.27 1151.72 2677.73 869.388 3021.88 720.27C3193.96 645.71 3352.94 604.464 3488.63 600.922C3624.31 597.38 3736.67 631.54 3815.58 707.744C3894.49 783.948 3932.55 895.044 3933.75 1030.77C3934.94 1166.5 3899.27 1326.82 3830.76 1501.4C3693.75 1850.55 3425.42 2256.61 3058.26 2636.82Z" stroke="black" stroke-opacity="0.07"/>
<path d="M3049.02 2647.02C2675.28 3020.77 2273.96 3296.13 1927.25 3439.22C1753.9 3510.77 1594.23 3549.23 1458.49 3550.41C1322.77 3551.58 1211.02 3515.47 1133.45 3437.9C1055.88 3360.33 1019.77 3248.58 1020.94 3112.86C1022.12 2977.12 1060.58 2817.45 1132.13 2644.1C1275.22 2297.39 1550.58 1896.07 1924.33 1522.33C2298.07 1148.58 2699.4 873.214 3046.1 730.125C3219.45 658.579 3379.13 620.114 3514.86 618.941C3650.58 617.768 3762.33 653.883 3839.9 731.452C3917.47 809.022 3953.58 920.766 3952.41 1056.49C3951.24 1192.22 3912.77 1351.9 3841.23 1525.25C3698.14 1871.95 3422.77 2273.28 3049.02 2647.02Z" stroke="black" stroke-opacity="0.07"/>
</svg>
