<svg width="641" height="687" viewBox="0 0 641 687" fill="none" xmlns="http://www.w3.org/2000/svg">
<g clip-path="url(#clip0_29_586)">
<rect width="641" height="687" fill="#EFEFEF"/>
<g opacity="0.7" filter="url(#filter0_f_29_586)">
<ellipse cx="577.5" cy="610" rx="230.5" ry="233" fill="#A6DEA4"/>
</g>
<path d="M382.031 396C407.138 396 430.138 416.379 446.92 449.944C463.672 483.448 474.062 529.804 474.062 581.062C474.062 632.321 463.672 678.677 446.92 712.181C430.138 745.746 407.138 766.125 382.031 766.125C356.924 766.125 333.925 745.746 317.143 712.181C300.39 678.677 290 632.321 290 581.062C290 529.804 300.39 483.448 317.143 449.944C333.925 416.379 356.924 396 382.031 396Z" stroke="url(#paint0_linear_29_586)" stroke-width="2"/>
<path d="M392.368 396C417.475 396 440.475 416.379 457.257 449.944C474.009 483.448 484.399 529.804 484.399 581.062C484.399 632.321 474.009 678.677 457.257 712.181C440.475 745.746 417.475 766.125 392.368 766.125C367.261 766.125 344.262 745.746 327.48 712.181C310.727 678.677 300.337 632.321 300.337 581.062C300.337 529.804 310.727 483.448 327.48 449.944C344.262 416.379 367.261 396 392.368 396Z" stroke="url(#paint1_linear_29_586)" stroke-width="2"/>
<path d="M402.705 396C427.812 396 450.811 416.379 467.593 449.944C484.346 483.448 494.736 529.804 494.736 581.062C494.736 632.321 484.346 678.677 467.593 712.181C450.811 745.746 427.812 766.125 402.705 766.125C377.598 766.125 354.598 745.746 337.816 712.181C321.064 678.677 310.674 632.321 310.674 581.062C310.674 529.804 321.064 483.448 337.816 449.944C354.598 416.379 377.598 396 402.705 396Z" stroke="url(#paint2_linear_29_586)" stroke-width="2"/>
<path d="M413.042 396C438.149 396 461.148 416.379 477.93 449.944C494.683 483.448 505.073 529.804 505.073 581.062C505.073 632.321 494.683 678.677 477.93 712.181C461.148 745.746 438.149 766.125 413.042 766.125C387.935 766.125 364.935 745.746 348.153 712.181C331.401 678.677 321.01 632.321 321.01 581.062C321.01 529.804 331.401 483.448 348.153 449.944C364.935 416.379 387.935 396 413.042 396Z" stroke="url(#paint3_linear_29_586)" stroke-width="2"/>
<path d="M423.378 396C448.485 396 471.485 416.379 488.267 449.944C505.019 483.448 515.41 529.804 515.41 581.062C515.41 632.321 505.019 678.677 488.267 712.181C471.485 745.746 448.485 766.125 423.378 766.125C398.271 766.125 375.272 745.746 358.49 712.181C341.738 678.677 331.347 632.321 331.347 581.062C331.347 529.804 341.738 483.448 358.49 449.944C375.272 416.379 398.271 396 423.378 396Z" stroke="url(#paint4_linear_29_586)" stroke-width="2"/>
<path d="M433.715 396C458.822 396 481.822 416.379 498.604 449.944C515.356 483.448 525.747 529.804 525.747 581.062C525.747 632.321 515.356 678.677 498.604 712.181C481.822 745.746 458.822 766.125 433.715 766.125C408.608 766.125 385.609 745.746 368.827 712.181C352.074 678.677 341.684 632.321 341.684 581.062C341.684 529.804 352.074 483.448 368.827 449.944C385.609 416.379 408.608 396 433.715 396Z" stroke="url(#paint5_linear_29_586)" stroke-width="2"/>
<path d="M444.052 396C469.159 396 492.158 416.379 508.941 449.944C525.693 483.448 536.083 529.804 536.083 581.062C536.083 632.321 525.693 678.677 508.941 712.181C492.158 745.746 469.159 766.125 444.052 766.125C418.945 766.125 395.946 745.746 379.163 712.181C362.411 678.677 352.021 632.321 352.021 581.062C352.021 529.804 362.411 483.448 379.163 449.944C395.946 416.379 418.945 396 444.052 396Z" stroke="url(#paint6_linear_29_586)" stroke-width="2"/>
<path d="M454.389 396C479.496 396 502.495 416.379 519.277 449.944C536.03 483.448 546.42 529.804 546.42 581.062C546.42 632.321 536.03 678.677 519.278 712.181C502.495 745.746 479.496 766.125 454.389 766.125C429.282 766.125 406.283 745.746 389.5 712.181C372.748 678.677 362.358 632.321 362.358 581.062C362.358 529.804 372.748 483.448 389.5 449.944C406.282 416.379 429.282 396 454.389 396Z" stroke="url(#paint7_linear_29_586)" stroke-width="2"/>
<path d="M464.726 396C489.833 396 512.832 416.379 529.614 449.944C546.366 483.448 556.757 529.804 556.757 581.062C556.757 632.321 546.366 678.677 529.614 712.181C512.832 745.746 489.833 766.125 464.726 766.125C439.619 766.125 416.619 745.746 399.837 712.181C383.085 678.677 372.694 632.321 372.694 581.062C372.694 529.804 383.085 483.448 399.837 449.944C416.619 416.379 439.619 396 464.726 396Z" stroke="url(#paint8_linear_29_586)" stroke-width="2"/>
<path d="M475.062 396C500.17 396 523.169 416.379 539.951 449.944C556.703 483.448 567.094 529.804 567.094 581.062C567.094 632.321 556.703 678.677 539.951 712.181C523.169 745.746 500.17 766.125 475.062 766.125C449.955 766.125 426.956 745.746 410.174 712.181C393.422 678.677 383.031 632.321 383.031 581.062C383.031 529.804 393.422 483.448 410.174 449.944C426.956 416.379 449.955 396 475.062 396Z" stroke="url(#paint9_linear_29_586)" stroke-width="2"/>
<path d="M485.399 396C510.506 396 533.506 416.379 550.288 449.944C567.04 483.448 577.431 529.804 577.431 581.062C577.431 632.321 567.04 678.677 550.288 712.181C533.506 745.746 510.506 766.125 485.399 766.125C460.292 766.125 437.293 745.746 420.511 712.181C403.759 678.677 393.368 632.321 393.368 581.062C393.368 529.804 403.759 483.448 420.511 449.944C437.293 416.379 460.292 396 485.399 396Z" stroke="url(#paint10_linear_29_586)" stroke-width="2"/>
<path d="M495.736 396C520.843 396 543.842 416.379 560.625 449.944C577.377 483.448 587.767 529.804 587.767 581.062C587.767 632.321 577.377 678.677 560.625 712.181C543.842 745.746 520.843 766.125 495.736 766.125C470.629 766.125 447.63 745.746 430.847 712.181C414.095 678.677 403.705 632.321 403.705 581.062C403.705 529.804 414.095 483.448 430.847 449.944C447.63 416.379 470.629 396 495.736 396Z" stroke="url(#paint11_linear_29_586)" stroke-width="2"/>
<path d="M506.073 396C531.18 396 554.179 416.379 570.962 449.944C587.714 483.448 598.104 529.804 598.104 581.062C598.104 632.321 587.714 678.677 570.962 712.181C554.179 745.746 531.18 766.125 506.073 766.125C480.966 766.125 457.967 745.746 441.184 712.181C424.432 678.677 414.042 632.321 414.042 581.062C414.042 529.804 424.432 483.448 441.184 449.944C457.967 416.379 480.966 396 506.073 396Z" stroke="url(#paint12_linear_29_586)" stroke-width="2"/>
<path d="M516.41 396C541.517 396 564.516 416.379 581.298 449.944C598.051 483.448 608.441 529.804 608.441 581.062C608.441 632.321 598.051 678.677 581.298 712.181C564.516 745.746 541.517 766.125 516.41 766.125C491.303 766.125 468.303 745.746 451.521 712.181C434.769 678.677 424.378 632.321 424.378 581.062C424.378 529.804 434.769 483.448 451.521 449.944C468.303 416.379 491.303 396 516.41 396Z" stroke="url(#paint13_linear_29_586)" stroke-width="2"/>
<path d="M526.747 396C551.854 396 574.853 416.379 591.635 449.944C608.387 483.448 618.778 529.804 618.778 581.062C618.778 632.321 608.387 678.677 591.635 712.181C574.853 745.746 551.854 766.125 526.747 766.125C501.64 766.125 478.64 745.746 461.858 712.181C445.106 678.677 434.715 632.321 434.715 581.062C434.715 529.804 445.106 483.448 461.858 449.944C478.64 416.379 501.64 396 526.747 396Z" stroke="url(#paint14_linear_29_586)" stroke-width="2"/>
</g>
<defs>
<filter id="filter0_f_29_586" x="83" y="113" width="989" height="994" filterUnits="userSpaceOnUse" color-interpolation-filters="sRGB">
<feFlood flood-opacity="0" result="BackgroundImageFix"/>
<feBlend mode="normal" in="SourceGraphic" in2="BackgroundImageFix" result="shape"/>
<feGaussianBlur stdDeviation="132" result="effect1_foregroundBlur_29_586"/>
</filter>
<linearGradient id="paint0_linear_29_586" x1="289" y1="581.062" x2="475.062" y2="581.062" gradientUnits="userSpaceOnUse">
<stop stop-color="white"/>
<stop offset="1" stop-color="white"/>
</linearGradient>
<linearGradient id="paint1_linear_29_586" x1="299.337" y1="581.062" x2="485.399" y2="581.062" gradientUnits="userSpaceOnUse">
<stop stop-color="white"/>
<stop offset="1" stop-color="white"/>
</linearGradient>
<linearGradient id="paint2_linear_29_586" x1="309.674" y1="581.062" x2="495.736" y2="581.062" gradientUnits="userSpaceOnUse">
<stop stop-color="white"/>
<stop offset="1" stop-color="white"/>
</linearGradient>
<linearGradient id="paint3_linear_29_586" x1="320.01" y1="581.062" x2="506.073" y2="581.062" gradientUnits="userSpaceOnUse">
<stop stop-color="white"/>
<stop offset="1" stop-color="white"/>
</linearGradient>
<linearGradient id="paint4_linear_29_586" x1="330.347" y1="581.062" x2="516.41" y2="581.062" gradientUnits="userSpaceOnUse">
<stop stop-color="white"/>
<stop offset="1" stop-color="white"/>
</linearGradient>
<linearGradient id="paint5_linear_29_586" x1="340.684" y1="581.062" x2="526.747" y2="581.062" gradientUnits="userSpaceOnUse">
<stop stop-color="white"/>
<stop offset="1" stop-color="white"/>
</linearGradient>
<linearGradient id="paint6_linear_29_586" x1="351.021" y1="581.062" x2="537.083" y2="581.062" gradientUnits="userSpaceOnUse">
<stop stop-color="white"/>
<stop offset="1" stop-color="white"/>
</linearGradient>
<linearGradient id="paint7_linear_29_586" x1="361.358" y1="581.062" x2="547.42" y2="581.062" gradientUnits="userSpaceOnUse">
<stop stop-color="white"/>
<stop offset="1" stop-color="white"/>
</linearGradient>
<linearGradient id="paint8_linear_29_586" x1="371.694" y1="581.062" x2="557.757" y2="581.062" gradientUnits="userSpaceOnUse">
<stop stop-color="white"/>
<stop offset="1" stop-color="white"/>
</linearGradient>
<linearGradient id="paint9_linear_29_586" x1="382.031" y1="581.062" x2="568.094" y2="581.062" gradientUnits="userSpaceOnUse">
<stop stop-color="white"/>
<stop offset="1" stop-color="white"/>
</linearGradient>
<linearGradient id="paint10_linear_29_586" x1="392.368" y1="581.062" x2="578.431" y2="581.062" gradientUnits="userSpaceOnUse">
<stop stop-color="white"/>
<stop offset="1" stop-color="white"/>
</linearGradient>
<linearGradient id="paint11_linear_29_586" x1="402.705" y1="581.062" x2="588.767" y2="581.062" gradientUnits="userSpaceOnUse">
<stop stop-color="white"/>
<stop offset="1" stop-color="white"/>
</linearGradient>
<linearGradient id="paint12_linear_29_586" x1="413.042" y1="581.062" x2="599.104" y2="581.062" gradientUnits="userSpaceOnUse">
<stop stop-color="white"/>
<stop offset="1" stop-color="white"/>
</linearGradient>
<linearGradient id="paint13_linear_29_586" x1="423.378" y1="581.062" x2="609.441" y2="581.062" gradientUnits="userSpaceOnUse">
<stop stop-color="white"/>
<stop offset="1" stop-color="white"/>
</linearGradient>
<linearGradient id="paint14_linear_29_586" x1="433.715" y1="581.062" x2="619.778" y2="581.062" gradientUnits="userSpaceOnUse">
<stop stop-color="white"/>
<stop offset="1" stop-color="white"/>
</linearGradient>
<clipPath id="clip0_29_586">
<rect width="641" height="687" fill="white"/>
</clipPath>
</defs>
</svg>
