<svg width="641" height="687" viewBox="0 0 641 687" fill="none" xmlns="http://www.w3.org/2000/svg">
<g clip-path="url(#clip0_29_587)">
<rect width="641" height="687" fill="#EFEFEF"/>
<g opacity="0.45" filter="url(#filter0_f_29_587)">
<circle cx="1056.5" cy="1032.5" r="754.5" fill="#3ACA8E"/>
</g>
<path fill-rule="evenodd" clip-rule="evenodd" d="M451.037 719.98C491.407 719.208 527.327 695.504 550.829 658.829C585.642 636.52 608.767 603.022 611.687 565.15C611.895 562.994 612 560.82 612 558.63L611.999 558.325C611.999 558.185 611.998 558.045 611.996 557.906L611.999 557.453L612 557L611.999 556.491L612 556.185C612 555.777 611.993 555.369 611.98 554.963C611.208 514.593 587.504 478.673 550.829 455.171C527.327 418.496 491.407 394.792 451.037 394.019C450.631 394.007 450.223 394 449.815 394L449.509 394.001L449 394C448.698 394 448.396 394.001 448.094 394.004C447.853 394.001 447.612 394 447.37 394C445.18 394 443.006 394.105 440.85 394.313C402.978 397.232 369.48 420.358 347.171 455.171C310.496 478.673 286.792 514.593 286.019 554.963C286.007 555.369 286 555.777 286 556.185L286.001 556.491L286 557C286 557.302 286.001 557.604 286.004 557.906C286.001 558.147 286 558.388 286 558.63C286 560.82 286.105 562.994 286.313 565.15C289.232 603.022 312.358 636.52 347.171 658.829C369.48 693.642 402.978 716.767 440.85 719.687C443.006 719.895 445.18 720 447.37 720L447.675 719.999C447.815 719.999 447.955 719.998 448.094 719.996L448.547 719.999L449 720L449.509 719.999L449.815 720C450.223 720 450.631 719.993 451.037 719.98ZM472.355 715.295C501.854 708.476 527.921 688.977 546.705 661.387C538.277 666.443 529.218 670.862 519.637 674.553C506.645 694.058 490.426 708.355 472.355 715.295ZM604.737 589.517C596.298 615.241 578.084 637.891 553.387 654.705C557.659 647.585 561.475 640.014 564.782 632.058C583.011 620.286 596.886 605.749 604.737 589.517ZM549.359 657.359C554.016 650.052 558.177 642.223 561.777 633.95C553.362 639.112 544.083 643.703 534.094 647.624C530.398 656.242 526.19 664.278 521.537 671.627C531.449 667.628 540.765 662.836 549.359 657.359ZM608.522 572.338C603.96 593.885 588.78 613.451 566.128 628.729C568.884 621.711 571.248 614.408 573.185 606.866C590.458 597.123 602.844 585.323 608.522 572.338ZM563.162 630.678C566.119 623.493 568.657 615.989 570.735 608.216C562.646 612.573 553.557 616.493 543.641 619.893C541.288 628.675 538.458 637.067 535.2 644.989C545.35 640.884 554.728 636.076 563.162 630.678ZM609.947 557.224C609.445 574.646 596.32 591.045 573.867 604.128C577.466 589.208 579.4 573.386 579.4 557C579.4 539.915 577.297 523.445 573.398 507.97C593.562 519.611 606.308 533.909 609.288 549.231C609.669 551.87 609.89 554.535 609.947 557.224ZM577.362 557C577.362 539.368 575.109 522.427 570.949 506.59C568.524 505.254 565.998 503.956 563.377 502.698C557.316 499.788 550.768 497.107 543.795 494.685C548.883 513.883 551.69 534.929 551.69 557C551.69 578.386 549.054 598.81 544.262 617.522C551.06 615.143 557.451 612.517 563.377 609.672C566.175 608.329 568.863 606.941 571.437 605.51C575.285 590.221 577.362 573.929 577.362 557ZM605.056 533.521C598.418 522.976 587.268 513.371 572.684 505.223C571.261 499.911 569.626 494.721 567.79 489.669C585.521 501.994 598.472 516.999 605.056 533.521ZM570.214 503.875C568.672 498.341 566.896 492.948 564.901 487.712C564.326 487.332 563.745 486.955 563.16 486.581C555.158 481.459 546.308 476.87 536.753 472.907C539.151 479.116 541.292 485.596 543.151 492.309C553.045 495.675 562.123 499.558 570.214 503.875ZM607.295 533.645C600.355 515.574 586.058 499.355 566.553 486.363C562.862 476.782 558.443 467.723 553.387 459.295C580.977 478.079 600.476 504.146 607.295 533.645ZM563.627 484.463C559.628 474.551 554.836 465.235 549.359 456.641C540.765 451.164 531.449 446.372 521.537 442.373C526.886 450.821 531.647 460.178 535.718 470.282C545.822 474.353 555.179 479.114 563.627 484.463ZM472.355 398.705C501.854 405.524 527.921 425.023 546.705 452.613C538.277 447.557 529.218 443.138 519.637 439.447C506.645 419.942 490.426 405.645 472.355 398.705ZM472.479 400.944C489.001 407.528 504.006 420.479 516.331 438.21C511.279 436.374 506.089 434.739 500.777 433.316C492.629 418.732 483.024 407.582 472.479 400.944ZM502.125 435.786C507.659 437.328 513.052 439.104 518.288 441.099C518.668 441.674 519.045 442.255 519.419 442.84C524.541 450.842 529.13 459.692 533.093 469.247C526.884 466.849 520.404 464.708 513.691 462.849C510.325 452.955 506.442 443.877 502.125 435.786ZM514.47 465.183C521.296 467.121 527.869 469.352 534.15 471.85C536.648 478.131 538.879 484.704 540.817 491.529C534.275 489.385 527.391 487.463 520.213 485.787C518.537 478.609 516.615 471.725 514.47 465.183ZM520.72 488C527.966 489.721 534.9 491.693 541.473 493.893C546.735 513.259 549.652 534.585 549.652 557C549.652 578.726 546.911 599.429 541.952 618.316C535.352 620.542 528.384 622.538 521.1 624.28C525.077 606.021 527.485 585.963 527.966 564.855C528.294 562.009 528.462 559.116 528.462 556.185C528.462 553.097 528.275 550.053 527.912 547.061C527.305 526.053 524.789 506.118 520.72 488ZM525.273 534.491C524.164 517.869 521.846 502.068 518.514 487.486C500.507 483.372 480.64 480.802 459.663 480.148C490.968 483.896 516.572 505.657 525.273 534.491ZM525.878 547.22C521.343 510.296 489.147 481.612 450.019 481.612C408.017 481.612 374.004 514.663 373.616 555.479C373.614 555.8 373.613 556.122 373.613 556.443C373.756 597.465 407.863 630.757 450.019 630.757C489.303 630.757 521.599 601.845 525.931 564.708C525.988 562.154 526.017 559.584 526.017 557C526.017 553.716 525.971 550.455 525.878 547.22ZM525.405 577.438C516.833 606.491 491.128 628.455 459.662 632.222C480.79 631.563 500.791 628.961 518.901 624.795C522.16 610.085 524.394 594.166 525.405 577.438ZM441.002 632.294C419.56 631.794 399.234 629.294 380.816 625.184C377.391 609.834 375.083 593.158 374.12 575.616C382.19 605.764 408.596 628.673 441.002 632.294ZM371.575 556.445C371.575 556.63 371.575 556.815 371.575 557C371.575 581.148 374.095 604.069 378.618 624.684C369.369 622.539 360.618 619.984 352.466 617.072C347.71 598.522 345.087 578.25 345.087 557C345.087 535.062 347.883 514.166 352.934 495.131C361.066 492.248 369.788 489.72 379.001 487.597C374.336 508.219 371.686 531.209 371.578 555.464C371.576 555.704 371.575 555.944 371.575 556.185C371.575 556.272 371.575 556.359 371.575 556.445ZM374.241 536.31C375.307 518.873 377.704 502.318 381.205 487.099C399.52 483.041 419.71 480.572 441.002 480.076C408.755 483.68 382.45 506.381 374.241 536.31ZM520.609 626.49C527.828 624.793 534.747 622.847 541.318 620.676C538.874 629.575 535.934 638.057 532.555 646.036C526.384 648.428 519.938 650.563 513.256 652.418C516.072 644.305 518.538 635.63 520.609 626.49ZM512.428 654.757C518.991 652.981 525.335 650.938 531.426 648.648C527.86 656.722 523.837 664.257 519.419 671.16C519.045 671.745 518.668 672.326 518.288 672.901C513.052 674.896 507.659 676.672 502.125 678.214C505.912 671.116 509.365 663.259 512.428 654.757ZM500.777 680.684C506.089 679.261 511.279 677.626 516.331 675.79C504.006 693.521 489.001 706.472 472.479 713.056C483.024 706.418 492.629 695.268 500.777 680.684ZM503.302 671.377C502.044 673.998 500.746 676.524 499.41 678.949C483.573 683.109 466.632 685.362 449 685.362C432.071 685.362 415.779 683.285 400.49 679.437C399.059 676.863 397.671 674.175 396.328 671.377C393.989 666.505 391.798 661.318 389.77 655.849C408.129 660.434 428.105 662.95 449 662.95C470.579 662.95 491.179 660.266 510.029 655.392C507.954 661.029 505.706 666.369 503.302 671.377ZM449 687.4C432.614 687.4 416.792 685.466 401.872 681.867C414.955 704.32 431.354 717.445 448.776 717.947C451.465 717.89 454.13 717.669 456.769 717.288C472.091 714.308 486.389 701.562 498.03 681.398C482.555 685.297 466.085 687.4 449 687.4ZM387.375 655.237C390.471 663.763 393.959 671.634 397.784 678.735C390.011 676.657 382.507 674.119 375.322 671.162C370.627 663.826 366.378 655.776 362.65 647.125C370.471 650.258 378.738 652.978 387.375 655.237ZM399.134 681.185C391.592 679.248 384.289 676.884 377.271 674.128C392.549 696.78 412.115 711.96 433.662 716.522C420.677 710.844 408.877 698.458 399.134 681.185ZM359.971 646.029C363.524 654.528 367.572 662.478 372.05 669.777C363.777 666.177 355.948 662.016 348.641 657.359C343.984 650.052 339.823 642.223 336.223 633.95C343.522 638.428 351.472 642.476 359.971 646.029ZM373.942 672.782C365.986 669.475 358.415 665.659 351.295 661.387C368.109 686.084 390.759 704.298 416.483 712.737C400.251 704.886 385.714 691.011 373.942 672.782ZM333.218 632.058C336.525 640.014 340.341 647.585 344.613 654.705C319.916 637.891 301.702 615.241 293.263 589.517C301.114 605.749 314.989 620.286 333.218 632.058ZM334.838 630.678C331.881 623.493 329.343 615.989 327.265 608.216C334.366 612.041 342.237 615.529 350.763 618.625C353.022 627.262 355.742 635.529 358.875 643.35C350.224 639.622 342.174 635.373 334.838 630.678ZM331.872 628.729C329.116 621.711 326.752 614.408 324.815 606.866C307.542 597.123 295.156 585.323 289.478 572.338C294.04 593.886 309.22 613.451 331.872 628.729ZM334.623 609.672C331.825 608.329 329.137 606.941 326.563 605.51C322.715 590.221 320.637 573.929 320.637 557C320.637 539.368 322.891 522.427 327.051 506.59C329.476 505.254 332.002 503.956 334.623 502.698C339.631 500.294 344.971 498.046 350.608 495.971C345.734 514.821 343.05 535.421 343.05 557C343.05 577.895 345.566 597.871 350.151 616.23C344.682 614.202 339.495 612.011 334.623 609.672ZM318.6 557C318.6 539.915 320.703 523.445 324.602 507.97C304.438 519.611 291.692 533.909 288.712 549.23C288.331 551.87 288.11 554.535 288.052 557.224C288.555 574.646 301.68 591.045 324.133 604.128C320.534 589.208 318.6 573.386 318.6 557ZM351.243 493.572C342.741 496.635 334.884 500.088 327.786 503.875C329.328 498.341 331.104 492.948 333.099 487.712C333.674 487.332 334.255 486.955 334.84 486.581C341.743 482.163 349.278 478.14 357.351 474.574C355.062 480.665 353.019 487.009 351.243 493.572ZM325.316 505.223C326.739 499.911 328.374 494.721 330.21 489.669C312.479 501.994 299.528 516.999 292.944 533.52C299.582 522.976 310.732 513.371 325.316 505.223ZM358.376 471.906C349.758 475.602 341.722 479.81 334.373 484.463C338.372 474.551 343.164 465.235 348.641 456.641C355.948 451.984 363.777 447.823 372.05 444.223C366.888 452.638 362.297 461.917 358.376 471.906ZM331.447 486.363C335.138 476.782 339.557 467.723 344.613 459.295C317.023 478.079 297.524 504.146 290.705 533.645C297.645 515.574 311.942 499.355 331.447 486.363ZM373.942 441.218C365.986 444.525 358.415 448.341 351.295 452.613C368.109 427.916 390.759 409.702 416.483 401.263C400.251 409.114 385.714 422.989 373.942 441.218ZM375.322 442.838C382.507 439.881 390.011 437.343 397.784 435.265C393.427 443.354 389.507 452.443 386.106 462.359C377.325 464.712 368.933 467.542 361.011 470.8C365.116 460.65 369.924 451.272 375.322 442.838ZM377.271 439.872C384.289 437.116 391.592 434.752 399.134 432.815C408.877 415.542 420.677 403.156 433.662 397.478C412.114 402.04 392.549 417.22 377.271 439.872ZM396.328 442.623C397.671 439.825 399.059 437.137 400.49 434.563C415.779 430.715 432.071 428.637 449 428.637C466.632 428.637 483.573 430.891 499.41 435.051C500.746 437.476 502.044 440.002 503.302 442.623C506.212 448.684 508.893 455.232 511.315 462.205C492.117 457.117 471.071 454.31 449 454.31C427.614 454.31 407.19 456.946 388.478 461.738C390.857 454.94 393.483 448.549 396.328 442.623ZM449 426.6C466.085 426.6 482.555 428.703 498.03 432.602C486.389 412.438 472.091 399.692 456.77 396.712C454.13 396.331 451.464 396.11 448.776 396.052C431.354 396.555 414.955 409.68 401.872 432.133C416.792 428.534 432.614 426.6 449 426.6ZM449 456.347C471.415 456.347 492.741 459.265 512.107 464.527C514.307 471.1 516.279 478.034 518 485.28C497.046 480.574 473.663 477.945 449 477.945C425.01 477.945 402.231 480.433 381.72 484.9C383.462 477.616 385.458 470.648 387.684 464.048C406.571 459.089 427.274 456.347 449 456.347ZM449 634.425C473.821 634.425 497.346 631.762 518.403 626.999C516.28 636.212 513.752 644.934 510.869 653.066C491.834 658.117 470.938 660.912 449 660.912C427.75 660.912 407.478 658.29 388.928 653.534C386.016 645.382 383.461 636.631 381.316 627.382C401.931 631.905 424.852 634.425 449 634.425ZM379.111 626.889C381.206 636.067 383.699 644.773 386.546 652.909C377.783 650.558 369.417 647.727 361.53 644.47C358.273 636.583 355.442 628.217 353.091 619.454C361.227 622.301 369.933 624.794 379.111 626.889ZM379.51 485.391C370.37 487.462 361.695 489.928 353.582 492.744C355.437 486.062 357.572 479.616 359.963 473.445C367.943 470.066 376.425 467.126 385.324 464.682C383.153 471.253 381.207 478.172 379.51 485.391Z" fill="url(#paint0_linear_29_587)"/>
</g>
<defs>
<filter id="filter0_f_29_587" x="38" y="14" width="2037" height="2037" filterUnits="userSpaceOnUse" color-interpolation-filters="sRGB">
<feFlood flood-opacity="0" result="BackgroundImageFix"/>
<feBlend mode="normal" in="SourceGraphic" in2="BackgroundImageFix" result="shape"/>
<feGaussianBlur stdDeviation="132" result="effect1_foregroundBlur_29_587"/>
</filter>
<linearGradient id="paint0_linear_29_587" x1="322.675" y1="440.863" x2="554.95" y2="715.925" gradientUnits="userSpaceOnUse">
<stop stop-color="white"/>
<stop offset="0.376612" stop-color="white"/>
<stop offset="1" stop-color="white" stop-opacity="0"/>
</linearGradient>
<clipPath id="clip0_29_587">
<rect width="641" height="687" fill="white"/>
</clipPath>
</defs>
</svg>
