<svg width="1320" height="2752" viewBox="0 0 1320 2752" fill="none" xmlns="http://www.w3.org/2000/svg">
<g clip-path="url(#clip0_2_3926)">
<rect width="1320" height="2752" rx="18" fill="white"/>
<path d="M2745.13 -986.718C3172.74 -676.041 3507.5 -322.736 3703.06 -2.68559C3800.84 157.341 3863.81 309.031 3886.21 442.907C3908.6 576.781 3890.41 692.799 3825.93 781.547C3761.45 870.296 3656.73 923.448 3522.49 943.521C3388.24 963.595 3224.52 950.582 3042.11 907.036C2677.29 819.945 2237.83 610.747 1810.22 300.071C1382.61 -10.606 1047.85 -363.911 852.288 -683.962C754.506 -843.988 691.535 -995.679 669.144 -1129.55C646.752 -1263.43 664.942 -1379.45 729.422 -1468.19C793.902 -1556.94 898.621 -1610.09 1032.86 -1630.17C1167.1 -1650.24 1330.83 -1637.23 1513.24 -1593.68C1878.06 -1506.59 2317.52 -1297.39 2745.13 -986.718Z" stroke="white"/>
<path d="M2756.29 -978.461C3178.41 -660.369 3506.95 -301.275 3696.9 22.1396C3791.87 183.848 3852.19 336.615 3872.24 470.861C3892.29 605.105 3872.08 720.788 3806.06 808.398C3740.04 896.008 3634.41 947.323 3499.84 965.051C3365.27 982.779 3201.79 966.911 3020.17 920.188C2656.93 826.743 2221.19 609.907 1799.06 291.815C1376.94 -26.277 1048.4 -385.37 858.45 -708.785C763.475 -870.494 703.162 -1023.26 683.11 -1157.51C663.059 -1291.75 683.271 -1407.43 749.29 -1495.04C815.309 -1582.65 920.939 -1633.97 1055.51 -1651.7C1190.08 -1669.43 1353.56 -1653.56 1535.18 -1606.83C1898.42 -1513.39 2334.16 -1296.55 2756.29 -978.461Z" stroke="white"/>
<path d="M2767.3 -970.012C3183.8 -644.601 3506.03 -279.829 3690.3 46.852C3782.44 210.193 3840.08 363.989 3857.79 498.565C3875.49 633.138 3853.26 748.451 3785.73 834.895C3718.19 921.34 3611.68 970.804 3476.82 986.181C3341.96 1001.56 3178.79 982.838 2998.01 932.953C2636.45 833.183 2204.56 608.776 1788.05 283.365C1371.55 -42.0461 1049.32 -406.819 865.045 -733.499C772.907 -896.841 715.269 -1050.64 697.563 -1185.21C679.857 -1319.79 702.086 -1435.1 769.623 -1521.54C837.161 -1607.99 943.671 -1657.45 1078.53 -1672.83C1213.39 -1688.2 1376.56 -1669.49 1557.34 -1619.6C1918.9 -1519.83 2350.79 -1295.42 2767.3 -970.012Z" stroke="white"/>
<path d="M2778.16 -961.37C3188.92 -628.74 3504.73 -258.399 3683.28 71.4476C3772.55 236.372 3827.5 391.151 3842.85 526.015C3858.21 660.877 3833.97 775.784 3764.93 861.036C3695.9 946.289 3588.54 993.887 3453.43 1006.91C3318.33 1019.93 3155.51 998.364 2975.62 945.331C2615.86 839.266 2187.95 607.356 1777.19 274.725C1366.43 -57.9048 1050.62 -428.245 872.07 -758.093C782.797 -923.017 727.852 -1077.8 712.497 -1212.66C697.143 -1347.52 721.38 -1462.43 790.416 -1547.68C859.452 -1632.93 966.809 -1680.53 1101.92 -1693.55C1237.03 -1706.57 1399.85 -1685.01 1579.73 -1631.98C1939.49 -1525.91 2367.4 -1294 2778.16 -961.37Z" stroke="white"/>
<path d="M2788.87 -952.543C3193.77 -612.794 3503.06 -236.998 3675.83 95.9147C3762.21 262.372 3814.44 418.086 3827.44 553.198C3840.44 688.307 3814.2 802.773 3743.69 886.808C3673.17 970.843 3565 1016.56 3429.69 1027.22C3294.37 1037.88 3131.95 1013.48 2953.03 957.315C2595.17 844.987 2171.37 605.644 1766.48 265.896C1361.58 -73.8528 1052.28 -449.649 879.521 -782.562C793.139 -949.019 740.904 -1104.73 727.906 -1239.84C714.907 -1374.95 741.146 -1489.42 811.66 -1573.46C882.173 -1657.49 990.345 -1703.21 1125.66 -1713.87C1260.97 -1724.53 1423.39 -1700.13 1602.32 -1643.96C1960.18 -1531.63 2383.97 -1292.29 2788.87 -952.543Z" stroke="white"/>
<path d="M2799.42 -943.528C3198.33 -596.765 3501.02 -215.628 3667.95 120.249C3751.41 288.189 3800.92 444.791 3811.56 580.109C3822.2 715.424 3793.97 829.415 3722 912.207C3650.03 994.998 3541.07 1038.82 3405.6 1047.12C3270.11 1055.42 3108.15 1028.18 2930.22 968.904C2574.38 850.348 2154.83 603.645 1755.92 256.882C1357.02 -89.8814 1054.33 -471.018 887.401 -806.895C803.938 -974.835 754.428 -1131.44 743.789 -1266.75C733.151 -1402.07 761.383 -1516.06 833.353 -1598.85C905.322 -1681.64 1014.27 -1725.47 1149.75 -1733.76C1285.24 -1742.06 1447.2 -1714.83 1625.12 -1655.55C1980.97 -1536.99 2400.52 -1290.29 2799.42 -943.528Z" stroke="white"/>
<path d="M2809.82 -934.332C3202.61 -580.66 3498.61 -194.299 3659.65 144.441C3740.17 313.811 3786.94 471.253 3795.21 606.736C3803.49 742.217 3773.27 855.698 3699.86 937.221C3626.46 1018.74 3516.76 1060.66 3381.16 1066.59C3245.55 1072.52 3084.08 1042.47 2907.22 980.091C2553.51 855.343 2138.32 601.355 1745.53 247.683C1352.74 -105.989 1056.74 -492.351 895.704 -831.09C815.184 -1000.46 768.415 -1157.9 760.14 -1293.39C751.864 -1428.87 782.082 -1542.35 855.485 -1623.87C928.889 -1705.39 1038.59 -1747.31 1174.19 -1753.24C1309.8 -1759.17 1471.27 -1729.11 1648.13 -1666.74C2001.84 -1541.99 2417.03 -1288 2809.82 -934.332Z" stroke="white"/>
<path d="M2820.05 -924.955C3206.61 -564.482 3495.82 -173.014 3650.92 168.485C3728.47 339.235 3772.49 497.469 3778.4 633.076C3784.31 768.68 3752.11 881.617 3677.3 961.846C3602.48 1042.08 3492.07 1082.07 3356.38 1085.63C3220.69 1089.2 3059.78 1056.33 2884.03 990.876C2532.55 859.974 2121.86 598.779 1735.3 238.305C1348.74 -122.168 1059.53 -513.636 904.427 -855.135C826.875 -1025.89 782.861 -1184.12 776.951 -1319.73C771.042 -1455.33 803.236 -1568.27 878.051 -1648.5C952.866 -1728.73 1063.28 -1768.72 1198.97 -1772.28C1334.66 -1775.85 1495.58 -1742.98 1671.32 -1677.53C2022.8 -1546.62 2433.49 -1285.43 2820.05 -924.955Z" stroke="white"/>
<path d="M2830.12 -915.402C3210.33 -548.237 3492.66 -151.781 3641.78 192.372C3716.34 364.45 3757.59 523.428 3761.13 659.118C3764.67 794.804 3730.51 907.162 3654.31 986.073C3578.11 1064.98 3467.01 1103.04 3331.28 1104.24C3195.55 1105.44 3035.23 1069.76 2860.65 1001.25C2511.51 864.238 2105.44 595.915 1725.23 228.75C1345.02 -138.415 1062.69 -534.871 913.569 -879.024C839.009 -1051.1 797.763 -1210.08 794.221 -1345.77C790.68 -1481.46 824.839 -1593.81 901.043 -1672.72C977.247 -1751.64 1088.34 -1789.7 1224.07 -1790.89C1359.8 -1792.09 1520.12 -1756.42 1694.7 -1687.91C2043.85 -1550.89 2449.91 -1282.57 2830.12 -915.402Z" stroke="white"/>
<path d="M2840.02 -905.671C3213.77 -531.927 3489.14 -130.604 3632.22 216.1C3703.77 389.452 3742.23 549.126 3743.41 684.857C3744.58 820.584 3708.47 932.329 3630.9 1009.9C3553.33 1087.47 3441.58 1123.58 3305.86 1122.41C3170.13 1121.24 3010.45 1082.77 2837.1 1011.23C2490.4 868.136 2089.07 592.768 1715.33 219.023C1341.58 -154.722 1066.21 -556.045 923.125 -902.748C851.58 -1076.1 813.115 -1235.77 811.941 -1371.5C810.768 -1507.23 846.883 -1618.98 924.453 -1696.55C1002.02 -1774.12 1113.77 -1810.23 1249.49 -1809.06C1385.22 -1807.88 1544.9 -1769.42 1718.25 -1697.87C2064.95 -1554.78 2466.28 -1279.42 2840.02 -905.671Z" stroke="white"/>
<path d="M2849.75 -895.771C3216.92 -515.561 3485.24 -109.493 3622.25 239.655C3690.76 414.23 3726.44 574.55 3725.24 710.281C3724.04 846.008 3685.98 957.105 3607.07 1033.31C3528.16 1109.51 3415.8 1143.67 3280.12 1140.13C3144.43 1136.59 2985.45 1095.34 2813.37 1020.78C2469.22 871.664 2072.76 589.334 1705.6 209.123C1338.43 -171.087 1070.11 -577.155 933.094 -926.303C864.585 -1100.88 828.912 -1261.2 830.108 -1396.93C831.304 -1532.66 869.364 -1643.75 948.275 -1719.96C1027.19 -1796.16 1139.54 -1830.32 1275.23 -1826.78C1410.92 -1823.24 1569.9 -1781.99 1741.98 -1707.43C2086.13 -1558.31 2482.59 -1275.98 2849.75 -895.771Z" stroke="white"/>
<path d="M2859.31 -885.704C3219.78 -499.143 3480.98 -88.4544 3611.88 263.031C3677.33 438.775 3710.2 599.694 3706.63 735.383C3703.07 871.069 3663.08 981.485 3582.85 1056.3C3502.62 1131.11 3389.68 1163.31 3254.08 1157.4C3118.47 1151.49 2960.24 1107.48 2789.49 1029.92C2447.99 874.822 2056.52 585.615 1696.05 199.054C1335.57 -187.506 1074.38 -598.195 943.476 -949.681C878.024 -1125.42 845.155 -1286.34 848.719 -1422.03C852.284 -1557.72 892.277 -1668.13 972.506 -1742.95C1052.74 -1817.76 1165.67 -1849.96 1301.28 -1844.05C1436.88 -1838.14 1595.12 -1794.12 1765.87 -1716.57C2107.37 -1561.47 2498.83 -1272.26 2859.31 -885.704Z" stroke="white"/>
<path d="M2868.68 -875.471C3222.36 -482.678 3476.34 -67.4933 3601.09 286.224C3663.47 463.083 3693.52 624.551 3687.59 760.157C3681.66 895.76 3639.74 1005.46 3558.22 1078.86C3476.7 1152.27 3363.22 1182.49 3227.74 1174.21C3092.25 1165.94 2934.81 1119.17 2765.44 1038.65C2426.7 877.608 2040.34 581.613 1686.67 188.82C1333 -203.972 1079.01 -619.157 954.261 -972.874C891.887 -1149.73 861.831 -1311.2 867.763 -1446.81C873.695 -1582.41 915.609 -1692.11 997.132 -1765.51C1078.65 -1838.92 1192.14 -1869.14 1327.62 -1860.86C1463.1 -1852.59 1620.54 -1805.82 1789.91 -1725.3C2128.65 -1564.26 2515.01 -1268.26 2868.68 -875.471Z" stroke="white"/>
<path d="M2877.88 -865.076C3224.65 -466.171 3471.35 -46.6168 3589.9 309.223C3649.18 487.145 3676.42 649.113 3668.12 784.594C3659.82 920.073 3616 1029.03 3533.21 1101C3450.42 1172.96 3336.43 1201.2 3201.11 1190.56C3065.79 1179.92 2909.19 1130.41 2741.25 1046.95C2405.37 880.022 2024.24 577.329 1677.47 178.424C1330.71 -220.482 1084.01 -640.036 965.451 -995.876C906.173 -1173.8 878.94 -1335.77 887.237 -1471.25C895.535 -1606.73 939.357 -1715.68 1022.15 -1787.65C1104.94 -1859.62 1218.93 -1887.85 1354.25 -1877.21C1489.56 -1866.57 1646.17 -1817.06 1814.11 -1733.6C2149.98 -1566.67 2531.12 -1263.98 2877.88 -865.076Z" stroke="white"/>
<path d="M2886.89 -854.521C3226.64 -449.624 3465.99 -25.8287 3578.31 332.026C3634.48 510.955 3658.88 673.374 3648.22 808.69C3637.56 944.004 3591.84 1052.17 3507.81 1122.69C3423.77 1193.2 3309.31 1219.44 3174.2 1206.44C3039.08 1193.44 2883.37 1141.21 2716.91 1054.83C2384 882.065 2008.2 572.767 1668.46 167.87C1328.71 -237.026 1089.36 -660.822 977.037 -1018.68C920.873 -1197.61 896.47 -1360.02 907.131 -1495.34C917.792 -1630.65 963.509 -1738.83 1047.54 -1809.34C1131.58 -1879.85 1246.04 -1906.09 1381.15 -1893.09C1516.27 -1880.09 1671.98 -1827.86 1838.44 -1741.48C2171.35 -1568.72 2547.15 -1259.42 2886.89 -854.521Z" stroke="white"/>
<path d="M2895.72 -843.81C3228.35 -433.046 3460.26 -5.13734 3566.33 354.624C3619.36 534.505 3640.93 697.325 3627.91 832.435C3614.89 967.542 3567.29 1074.9 3482.04 1143.93C3396.78 1212.97 3281.88 1237.21 3147.01 1221.85C3012.15 1206.5 2857.37 1151.55 2692.45 1062.28C2362.6 883.735 1992.26 567.925 1659.63 157.161C1327 -253.603 1095.09 -681.512 989.023 -1041.27C935.99 -1221.15 914.426 -1383.97 927.446 -1519.08C940.467 -1654.19 988.065 -1761.55 1073.32 -1830.58C1158.57 -1899.62 1273.48 -1923.86 1408.34 -1908.5C1543.2 -1893.15 1697.98 -1838.2 1862.91 -1748.93C2192.75 -1570.38 2563.09 -1254.57 2895.72 -843.81Z" stroke="white"/>
<path d="M2904.37 -832.947C3229.78 -416.441 3454.18 15.4499 3553.95 377.007C3603.84 557.787 3622.56 720.958 3607.18 855.82C3591.8 990.679 3542.34 1097.19 3455.9 1164.73C3369.45 1232.26 3254.14 1254.49 3119.57 1236.79C2984.99 1219.08 2831.19 1161.44 2667.85 1069.3C2341.17 885.03 1976.4 562.805 1650.99 146.298C1325.58 -270.209 1101.17 -702.099 1001.4 -1063.66C951.515 -1244.44 932.796 -1407.61 948.172 -1542.47C963.549 -1677.33 1013.01 -1783.84 1099.46 -1851.38C1185.9 -1918.91 1301.21 -1941.14 1435.79 -1923.44C1570.36 -1905.73 1724.16 -1848.09 1887.5 -1755.95C2214.18 -1571.68 2578.95 -1249.45 2904.37 -832.947Z" stroke="white"/>
<path d="M2912.81 -821.936C3230.91 -399.813 3447.74 35.9279 3541.19 399.171C3587.91 580.794 3603.78 744.267 3586.05 878.84C3568.32 1013.41 3517.01 1119.04 3429.4 1185.06C3341.79 1251.08 3226.1 1271.29 3091.86 1251.24C2957.61 1231.19 2804.85 1170.87 2643.14 1075.9C2319.72 885.951 1960.63 557.409 1642.54 135.286C1324.45 -286.837 1107.61 -722.578 1014.17 -1085.82C967.442 -1267.44 951.574 -1430.92 969.302 -1565.49C987.03 -1700.06 1038.35 -1805.69 1125.96 -1871.71C1213.57 -1937.73 1329.25 -1957.94 1463.49 -1937.89C1597.74 -1917.84 1750.51 -1857.52 1912.21 -1762.55C2235.63 -1572.6 2594.72 -1244.06 2912.81 -821.936Z" stroke="white"/>
<path d="M2921.07 -810.779C3231.75 -383.169 3440.95 56.2903 3528.04 421.109C3571.58 603.52 3584.6 767.245 3564.52 901.488C3544.45 1035.73 3491.3 1140.45 3402.55 1204.93C3313.8 1269.41 3197.78 1287.6 3063.91 1265.21C2930.03 1242.81 2778.34 1179.84 2618.31 1082.06C2298.26 886.497 1944.96 551.738 1634.28 124.128C1323.61 -303.482 1114.41 -742.941 1027.32 -1107.76C983.771 -1290.17 970.758 -1453.9 990.832 -1588.14C1010.91 -1722.38 1064.06 -1827.1 1152.81 -1891.58C1241.55 -1956.06 1357.57 -1974.25 1491.45 -1951.86C1625.32 -1929.46 1777.01 -1866.49 1937.04 -1768.71C2257.09 -1573.15 2610.39 -1238.39 2921.07 -810.779Z" stroke="white"/>
<path d="M2929.13 -799.478C3232.3 -366.511 3433.79 76.5318 3514.5 442.815C3554.86 625.958 3565.01 789.885 3542.6 923.758C3520.19 1057.63 3465.22 1161.4 3375.36 1224.32C3285.5 1287.24 3169.18 1303.41 3035.72 1278.68C2902.25 1253.96 2751.68 1188.35 2593.39 1087.79C2276.8 886.669 1929.39 545.795 1626.22 112.829C1323.06 -320.138 1121.56 -763.181 1040.85 -1129.46C1000.49 -1312.61 990.339 -1476.54 1012.75 -1610.41C1035.17 -1744.28 1090.14 -1848.05 1180 -1910.97C1269.86 -1973.89 1386.18 -1990.06 1519.64 -1965.33C1653.1 -1940.61 1803.67 -1875 1961.97 -1774.44C2278.56 -1573.32 2625.96 -1232.44 2929.13 -799.478Z" stroke="white"/>
<path d="M2936.99 -788.039C3232.56 -349.847 3426.29 96.6453 3500.59 464.281C3537.75 648.101 3545.04 812.18 3520.29 945.641C3495.55 1079.1 3438.77 1181.9 3347.83 1243.24C3256.88 1304.59 3140.3 1318.72 3007.29 1291.67C2874.28 1264.62 2724.88 1196.39 2568.36 1093.08C2255.33 886.467 1913.92 539.582 1618.36 101.39C1322.79 -336.802 1129.06 -783.294 1054.75 -1150.93C1017.6 -1334.75 1010.31 -1498.83 1035.06 -1632.29C1059.8 -1765.75 1116.58 -1868.55 1207.52 -1929.89C1298.47 -1991.23 1415.05 -2005.36 1548.06 -1978.31C1681.07 -1951.26 1830.47 -1883.04 1986.99 -1779.73C2300.02 -1573.12 2641.43 -1226.23 2936.99 -788.039Z" stroke="white"/>
<path d="M2944.65 -776.466C3232.53 -333.183 3418.44 116.623 3486.32 485.5C3520.26 669.939 3524.68 834.121 3497.61 967.13C3470.54 1100.14 3411.98 1201.93 3319.98 1261.68C3227.98 1321.42 3111.16 1333.52 2978.65 1304.15C2846.13 1274.78 2697.94 1203.96 2543.25 1097.93C2233.87 885.888 1898.57 533.097 1610.7 89.8141C1322.83 -353.469 1136.92 -803.275 1069.04 -1172.15C1035.1 -1356.59 1030.67 -1520.77 1057.74 -1653.78C1084.82 -1786.79 1143.38 -1888.58 1235.38 -1948.33C1327.38 -2008.07 1444.19 -2020.17 1576.71 -1990.8C1709.23 -1961.43 1857.42 -1890.61 2012.1 -1784.59C2321.48 -1572.54 2656.78 -1219.75 2944.65 -776.466Z" stroke="white"/>
<path d="M2952.11 -764.758C3232.2 -316.518 3410.24 136.463 3471.67 506.469C3502.38 691.473 3503.94 855.707 3474.55 988.222C3445.16 1120.74 3384.84 1221.49 3291.81 1279.62C3198.78 1337.76 3081.77 1347.81 2949.79 1316.13C2817.8 1284.46 2670.87 1211.06 2518.05 1102.35C2212.43 884.938 1883.33 526.349 1603.24 78.1093C1323.15 -370.131 1145.12 -823.112 1083.69 -1193.12C1052.97 -1378.12 1051.41 -1542.36 1080.8 -1674.87C1110.19 -1807.38 1170.52 -1908.14 1263.55 -1966.27C1356.58 -2024.4 1473.58 -2034.46 1605.57 -2002.78C1737.55 -1971.11 1884.48 -1897.71 2037.3 -1789C2342.93 -1571.59 2672.02 -1213 2952.11 -764.758Z" stroke="white"/>
<path d="M2959.36 -752.925C3231.59 -299.865 3401.69 156.155 3456.65 527.176C3484.14 712.688 3482.83 876.924 3451.13 1008.91C3419.43 1140.89 3357.36 1240.57 3263.33 1297.07C3169.3 1353.57 3052.13 1361.58 2920.72 1327.61C2789.31 1293.63 2643.68 1217.68 2492.79 1106.33C2191 883.611 1868.21 519.333 1595.99 66.2733C1323.76 -386.787 1153.66 -842.806 1098.7 -1213.83C1071.22 -1399.34 1072.52 -1563.58 1104.22 -1695.56C1135.92 -1827.54 1197.99 -1927.23 1292.02 -1983.73C1386.06 -2040.22 1503.22 -2048.23 1634.63 -2014.26C1766.04 -1980.29 1911.67 -1904.33 2062.57 -1792.98C2364.35 -1570.26 2687.14 -1205.98 2959.36 -752.925Z" stroke="white"/>
<path d="M2966.41 -740.964C3230.69 -283.223 3392.8 175.696 3441.28 547.62C3465.52 733.583 3461.35 897.772 3427.35 1029.18C3393.36 1160.59 3329.55 1259.18 3234.55 1314.03C3139.55 1368.88 3022.26 1374.84 2891.46 1338.58C2760.66 1302.31 2616.38 1223.83 2467.45 1109.86C2169.6 881.912 1853.22 512.057 1588.94 54.3147C1324.67 -403.427 1162.55 -862.346 1114.07 -1234.27C1089.83 -1420.23 1094 -1584.42 1128 -1715.83C1161.99 -1847.24 1225.8 -1945.83 1320.8 -2000.68C1415.81 -2055.53 1533.09 -2061.49 1663.89 -2025.23C1794.69 -1988.96 1938.97 -1910.48 2087.9 -1796.51C2385.75 -1568.56 2702.13 -1198.71 2966.41 -740.964Z" stroke="white"/>
<path d="M2973.24 -728.883C3229.49 -266.599 3383.57 195.079 3425.55 567.793C3446.55 754.151 3439.51 918.241 3403.22 1049.04C3366.94 1179.83 3301.42 1277.29 3205.48 1330.47C3109.53 1383.66 2992.16 1387.57 2862.02 1349.03C2731.87 1310.49 2588.98 1229.51 2442.06 1112.95C2148.23 879.84 1838.36 504.519 1582.11 42.2346C1325.86 -420.05 1171.78 -881.728 1129.8 -1254.44C1108.81 -1440.8 1115.84 -1604.89 1152.13 -1735.69C1188.41 -1866.48 1253.93 -1963.94 1349.87 -2017.12C1445.82 -2070.31 1563.19 -2074.22 1693.34 -2035.68C1823.48 -1997.14 1966.37 -1916.16 2113.29 -1799.6C2407.12 -1566.49 2716.99 -1191.17 2973.24 -728.883Z" stroke="white"/>
<path d="M2979.87 -716.686C3228.01 -250 3374.01 214.298 3409.48 587.687C3427.21 774.383 3417.31 938.326 3378.75 1068.47C3340.19 1198.61 3272.98 1294.91 3176.12 1346.41C3079.27 1397.91 2961.84 1399.78 2832.39 1358.97C2702.93 1318.17 2561.48 1234.7 2416.62 1115.6C2126.9 877.394 1823.63 496.722 1575.49 30.0361C1327.34 -436.65 1181.34 -900.947 1145.87 -1274.34C1128.14 -1461.03 1138.04 -1624.98 1176.6 -1755.12C1215.16 -1885.26 1282.37 -1981.56 1379.23 -2033.06C1476.09 -2084.56 1593.51 -2086.43 1722.96 -2045.62C1852.42 -2004.82 1993.87 -1921.35 2138.73 -1802.25C2428.45 -1564.04 2731.72 -1183.37 2979.87 -716.686Z" stroke="white"/>
<path d="M2986.28 -704.375C3226.23 -233.43 3364.11 233.345 3393.06 607.296C3407.53 794.273 3394.77 958.019 3353.95 1087.47C3313.12 1216.92 3244.24 1312.03 3146.5 1361.83C3048.76 1411.64 2931.32 1411.45 2802.6 1368.39C2673.87 1325.34 2533.9 1239.41 2391.14 1117.8C2105.62 874.575 1809.04 488.669 1569.08 17.723C1329.12 -453.223 1191.24 -919.997 1162.29 -1293.95C1147.82 -1480.93 1160.58 -1644.67 1201.41 -1774.12C1242.23 -1903.57 1311.11 -1998.68 1408.85 -2048.49C1506.6 -2098.29 1624.03 -2098.1 1752.76 -2055.05C1881.48 -2011.99 2021.45 -1926.06 2164.21 -1804.45C2449.73 -1561.23 2746.32 -1175.32 2986.28 -704.375Z" stroke="white"/>
<path d="M2992.47 -691.953C3224.17 -216.891 3353.88 252.219 3376.3 626.619C3387.51 813.82 3371.89 977.317 3328.81 1106.03C3285.73 1234.75 3215.2 1328.65 3116.61 1376.74C3018.01 1424.83 2900.6 1422.59 2772.64 1377.3C2644.69 1332 2506.24 1243.64 2365.62 1119.56C2084.39 871.388 1794.59 480.364 1562.88 5.30211C1331.18 -469.76 1201.47 -938.869 1179.05 -1313.27C1167.85 -1500.47 1183.46 -1663.97 1226.54 -1792.69C1269.62 -1921.4 1340.15 -2015.3 1438.75 -2063.39C1537.34 -2111.48 1654.76 -2109.24 1782.71 -2063.95C1910.66 -2018.65 2049.11 -1930.29 2189.73 -1806.21C2470.96 -1558.04 2760.77 -1167.01 2992.47 -691.953Z" stroke="white"/>
<path d="M2998.44 -679.424C3221.82 -200.391 3343.32 270.911 3359.2 645.645C3367.14 833.013 3348.67 996.214 3303.36 1124.16C3258.04 1252.1 3185.88 1344.76 3086.46 1391.12C2987.04 1437.48 2869.68 1433.2 2742.54 1385.67C2615.39 1338.15 2478.51 1247.39 2340.08 1120.87C2063.22 867.831 1780.28 471.808 1556.91 -7.22491C1333.53 -486.258 1212.03 -957.56 1196.15 -1332.29C1188.21 -1519.66 1206.67 -1682.86 1251.99 -1810.81C1297.31 -1938.75 1369.47 -2031.41 1468.89 -2077.77C1568.31 -2124.13 1685.67 -2119.85 1812.81 -2072.32C1939.95 -2024.8 2076.84 -1934.04 2215.27 -1807.52C2492.13 -1554.48 2775.07 -1158.46 2998.44 -679.424Z" stroke="white"/>
<path d="M3004.2 -666.795C3219.18 -183.936 3332.44 289.415 3341.78 664.369C3346.45 851.847 3325.13 1014.7 3277.59 1141.84C3230.04 1268.97 3156.28 1360.35 3056.07 1404.97C2955.85 1449.59 2838.59 1443.26 2712.29 1393.52C2586 1343.78 2450.71 1250.65 2314.52 1121.74C2042.12 863.903 1766.13 463.003 1551.15 -19.8563C1336.17 -502.715 1222.91 -976.066 1213.57 -1351.02C1208.9 -1538.5 1230.22 -1701.35 1277.76 -1828.49C1325.31 -1955.62 1399.07 -2047 1499.29 -2091.62C1599.5 -2136.24 1716.77 -2129.91 1843.06 -2080.17C1969.35 -2030.44 2104.64 -1937.3 2240.84 -1808.39C2513.23 -1550.55 2789.22 -1149.65 3004.2 -666.795Z" stroke="white"/>
<path d="M3009.73 -654.066C3216.26 -167.529 3321.24 307.726 3324.03 682.786C3325.43 870.317 3301.27 1032.77 3251.52 1159.06C3201.76 1285.34 3126.41 1375.42 3025.44 1418.29C2924.46 1461.15 2807.32 1452.77 2681.91 1400.84C2556.51 1348.91 2422.87 1253.43 2288.94 1122.15C2021.09 859.607 1752.14 453.952 1545.62 -32.5856C1339.09 -519.123 1234.12 -994.378 1231.32 -1369.44C1229.93 -1556.97 1254.08 -1719.43 1303.83 -1845.71C1353.59 -1972 1428.94 -2062.07 1529.92 -2104.94C1630.9 -2147.8 1748.03 -2139.43 1873.44 -2087.49C1998.84 -2035.56 2132.48 -1940.08 2266.41 -1808.81C2534.27 -1546.26 2803.21 -1140.6 3009.73 -654.066Z" stroke="white"/>
<path d="M3015.05 -641.241C3213.05 -151.174 3309.71 325.841 3305.96 700.892C3304.08 888.419 3277.1 1050.43 3225.15 1175.83C3173.19 1301.23 3096.29 1389.97 2994.58 1431.07C2892.87 1472.16 2775.89 1461.75 2651.41 1407.63C2526.93 1353.52 2394.98 1255.72 2263.36 1122.13C2000.13 854.947 1738.31 444.66 1540.31 -45.4079C1342.31 -535.475 1245.64 -1012.49 1249.39 -1387.54C1251.27 -1575.07 1278.25 -1737.08 1330.2 -1862.48C1382.16 -1987.87 1459.06 -2076.62 1560.77 -2117.72C1662.49 -2158.81 1779.46 -2148.39 1903.94 -2094.28C2028.42 -2040.17 2160.37 -1942.37 2291.99 -1808.78C2555.22 -1541.6 2817.05 -1131.31 3015.05 -641.241Z" stroke="white"/>
<path d="M3020.13 -628.328C3209.55 -134.879 3297.88 343.75 3287.58 718.679C3282.43 906.144 3252.63 1067.66 3198.49 1192.13C3144.36 1316.6 3065.91 1404 2963.5 1443.31C2861.09 1482.62 2744.32 1470.17 2620.8 1413.89C2497.28 1357.61 2367.06 1257.52 2237.79 1121.66C1979.26 849.92 1724.64 435.126 1535.22 -58.3227C1345.8 -551.771 1257.47 -1030.4 1267.77 -1405.33C1272.92 -1592.79 1302.73 -1754.31 1356.86 -1878.78C1411 -2003.25 1489.44 -2090.65 1591.85 -2129.96C1694.27 -2169.27 1811.04 -2156.82 1934.55 -2100.54C2058.07 -2044.26 2188.3 -1944.17 2317.56 -1808.31C2576.09 -1536.57 2830.72 -1121.78 3020.13 -628.328Z" stroke="white"/>
<path d="M3024.99 -615.328C3205.77 -118.649 3285.73 361.449 3268.89 736.141C3260.47 923.489 3227.85 1084.46 3171.55 1207.97C3115.26 1331.47 3035.3 1417.49 2932.22 1455.01C2829.13 1492.53 2712.59 1478.03 2590.08 1419.61C2467.56 1361.18 2339.1 1258.84 2212.23 1120.74C1958.48 844.529 1711.14 425.354 1530.36 -71.3247C1349.58 -568.004 1269.62 -1048.1 1286.46 -1422.79C1294.88 -1610.14 1327.5 -1771.11 1383.8 -1894.62C1440.1 -2018.13 1520.05 -2104.14 1623.14 -2141.66C1726.22 -2179.18 1842.76 -2164.68 1965.27 -2106.26C2087.79 -2047.83 2216.25 -1945.49 2343.12 -1807.39C2596.87 -1531.18 2844.22 -1112.01 3024.99 -615.328Z" stroke="white"/>
<path d="M3029.63 -602.242C3201.71 -102.484 3273.28 378.937 3249.9 753.278C3238.21 940.45 3202.79 1100.83 3144.34 1223.33C3085.9 1345.84 3004.45 1430.44 2900.73 1466.16C2797.01 1501.87 2680.74 1485.35 2559.26 1424.79C2437.78 1364.24 2311.13 1259.67 2186.69 1119.37C1937.8 838.78 1697.81 415.352 1525.73 -84.4069C1353.64 -584.165 1282.07 -1065.59 1305.45 -1439.93C1317.14 -1627.1 1352.56 -1787.47 1411.01 -1909.98C1469.45 -2032.49 1550.9 -2117.09 1654.62 -2152.81C1758.34 -2188.52 1874.61 -2172 1996.09 -2111.44C2117.57 -2050.89 2244.22 -1946.32 2368.67 -1806.02C2617.55 -1525.43 2857.55 -1102 3029.63 -602.242Z" stroke="white"/>
<path d="M3034.03 -589.079C3197.36 -86.3932 3260.52 396.203 3230.61 770.079C3215.66 957.018 3177.44 1116.75 3116.87 1238.22C3056.29 1359.69 2973.38 1442.86 2869.05 1476.76C2764.72 1510.65 2648.76 1492.1 2528.36 1429.44C2407.96 1366.77 2283.15 1260.01 2161.17 1117.56C1917.22 832.668 1684.65 405.116 1521.32 -97.5691C1357.99 -600.255 1294.83 -1082.85 1324.73 -1456.73C1339.69 -1643.67 1377.91 -1803.4 1438.48 -1924.87C1499.05 -2046.34 1581.96 -2129.5 1686.29 -2163.4C1790.63 -2197.3 1906.59 -2178.75 2026.99 -2116.09C2147.39 -2053.42 2272.2 -1946.66 2394.18 -1804.21C2638.13 -1519.32 2870.7 -1091.76 3034.03 -589.079Z" stroke="white"/>
<path d="M3038.21 -575.843C3192.74 -70.3834 3247.47 413.241 3211.04 786.539C3192.83 973.188 3151.83 1132.23 3089.14 1252.62C3026.46 1373.02 2942.11 1454.72 2837.2 1486.8C2732.3 1518.87 2616.68 1498.3 2497.39 1433.54C2378.09 1368.78 2255.17 1259.86 2135.7 1115.3C1896.75 826.197 1671.68 394.651 1517.15 -110.809C1362.61 -616.268 1307.89 -1099.89 1344.31 -1473.19C1362.53 -1659.84 1403.53 -1818.88 1466.21 -1939.28C1528.9 -2059.67 1613.25 -2141.38 1718.15 -2173.45C1823.06 -2205.52 1938.68 -2184.95 2057.97 -2120.19C2177.26 -2055.44 2300.18 -1946.51 2419.66 -1801.96C2658.6 -1512.85 2883.67 -1081.3 3038.21 -575.843Z" stroke="white"/>
<path d="M3042.15 -562.535C3187.84 -54.455 3234.11 430.051 3191.18 802.656C3169.71 988.959 3125.94 1147.26 3061.16 1266.54C2996.39 1385.82 2910.62 1466.05 2805.17 1496.28C2699.72 1526.52 2584.48 1503.93 2466.34 1437.11C2348.2 1370.28 2227.19 1259.22 2110.26 1112.6C1876.4 819.37 1658.89 383.962 1513.2 -124.117C1367.51 -632.197 1321.24 -1116.7 1364.17 -1489.31C1385.64 -1675.61 1429.41 -1833.91 1494.19 -1953.19C1558.96 -2072.47 1644.73 -2152.7 1750.18 -2182.94C1855.63 -2213.17 1970.87 -2190.59 2089.01 -2123.76C2207.15 -2056.93 2328.16 -1945.87 2445.09 -1799.26C2678.95 -1506.02 2896.46 -1070.61 3042.15 -562.535Z" stroke="white"/>
<path d="M3045.86 -549.157C3182.66 -38.6127 3220.47 446.627 3171.04 818.426C3146.32 1004.33 3099.8 1161.84 3032.95 1279.97C2966.1 1398.1 2878.95 1476.82 2772.99 1505.21C2667.03 1533.6 2552.2 1509.01 2435.24 1440.13C2318.28 1371.25 2199.23 1258.1 2084.88 1109.46C1856.17 812.192 1646.3 373.054 1509.5 -137.491C1372.7 -648.035 1334.88 -1133.28 1384.31 -1505.07C1409.03 -1690.97 1455.55 -1848.49 1522.4 -1966.62C1589.25 -2084.75 1676.4 -2163.47 1782.36 -2191.86C1888.32 -2220.25 2003.15 -2195.66 2120.11 -2126.78C2237.07 -2057.9 2356.12 -1944.75 2470.48 -1796.11C2699.18 -1498.84 2909.06 -1059.7 3045.86 -549.157Z" stroke="white"/>
<path d="M3049.33 -535.72C3177.2 -22.866 3206.54 462.96 3150.63 833.839C3122.67 1019.28 3073.4 1175.96 3004.5 1292.91C2935.6 1409.85 2847.09 1487.03 2740.65 1513.57C2634.21 1540.11 2519.83 1513.52 2404.09 1442.61C2288.35 1371.69 2171.29 1256.48 2059.55 1105.88C1836.06 804.658 1633.89 361.925 1506.02 -150.93C1378.15 -663.784 1348.81 -1149.61 1404.72 -1520.49C1432.68 -1705.93 1481.95 -1862.61 1550.85 -1979.56C1619.75 -2096.5 1708.26 -2173.68 1814.7 -2200.22C1921.14 -2226.76 2035.52 -2200.17 2151.26 -2129.26C2267 -2058.34 2384.06 -1943.13 2495.8 -1792.53C2719.29 -1491.31 2921.46 -1048.57 3049.33 -535.72Z" stroke="white"/>
<path d="M3052.57 -522.225C3171.47 -7.21726 3192.33 479.047 3129.95 848.894C3098.76 1033.82 3046.77 1189.61 2975.84 1305.34C2904.91 1421.07 2815.06 1496.69 2708.18 1521.37C2601.29 1546.05 2487.39 1517.46 2372.9 1444.54C2258.42 1371.62 2143.39 1254.38 2034.29 1101.85C1816.1 796.775 1621.68 350.58 1502.78 -164.428C1383.88 -679.435 1363.03 -1165.7 1425.4 -1535.55C1456.59 -1720.47 1508.59 -1876.27 1579.52 -1991.99C1650.45 -2107.72 1740.29 -2183.35 1847.18 -2208.02C1954.07 -2232.7 2067.97 -2204.11 2182.45 -2131.19C2296.94 -2058.27 2411.96 -1941.04 2521.06 -1788.5C2739.26 -1483.43 2933.67 -1037.23 3052.57 -522.225Z" stroke="white"/>
<path d="M3055.58 -508.674C3165.47 8.33054 3177.84 494.885 3109.01 863.587C3074.6 1047.94 3019.9 1202.8 2946.96 1317.27C2874.02 1431.74 2782.87 1505.79 2675.57 1528.6C2568.26 1551.41 2454.88 1520.84 2341.69 1445.93C2228.49 1371.02 2115.53 1251.8 2009.11 1097.38C1796.27 788.546 1609.67 339.026 1499.78 -177.978C1389.88 -694.983 1377.52 -1181.54 1446.34 -1550.24C1480.75 -1734.59 1535.46 -1889.45 1608.4 -2003.93C1681.33 -2118.4 1772.48 -2192.44 1879.79 -2215.25C1987.09 -2238.06 2100.48 -2207.49 2213.67 -2132.58C2326.86 -2057.67 2439.83 -1938.45 2546.24 -1784.03C2759.08 -1475.2 2945.68 -1025.68 3055.58 -508.674Z" stroke="white"/>
<path d="M3058.34 -495.072C3159.2 23.7715 3163.07 510.467 3087.82 877.912C3050.2 1061.64 2992.8 1215.52 2917.87 1328.7C2842.95 1441.88 2750.52 1514.33 2642.84 1535.26C2535.15 1556.19 2422.32 1523.64 2310.45 1446.77C2198.58 1369.9 2087.71 1248.72 1984.01 1092.47C1776.59 779.972 1597.86 327.264 1497.01 -191.579C1396.16 -710.423 1392.28 -1197.12 1467.53 -1564.56C1505.15 -1748.29 1562.55 -1902.17 1637.48 -2015.35C1712.41 -2128.53 1804.83 -2200.98 1912.52 -2221.91C2020.2 -2242.84 2133.04 -2210.3 2244.9 -2133.43C2356.77 -2056.55 2467.64 -1935.38 2571.35 -1779.12C2778.76 -1466.62 2957.49 -1013.92 3058.34 -495.072Z" stroke="white"/>
<path d="M3060.87 -481.425C3152.66 39.1001 3148.04 525.789 3066.39 891.865C3025.56 1074.9 2965.49 1227.76 2888.6 1339.62C2811.71 1451.48 2718.03 1522.3 2610 1541.34C2501.96 1560.39 2389.71 1525.88 2279.2 1447.07C2168.69 1368.26 2059.96 1245.17 1958.99 1087.13C1757.06 771.056 1586.26 315.298 1494.48 -205.227C1402.7 -725.752 1407.32 -1212.44 1488.97 -1578.52C1529.79 -1761.56 1589.87 -1914.42 1666.76 -2026.27C1743.65 -2138.13 1837.33 -2208.95 1945.36 -2228C2053.39 -2247.05 2165.64 -2212.54 2276.15 -2133.72C2386.66 -2054.91 2495.4 -1931.82 2596.36 -1773.78C2798.29 -1457.71 2969.09 -1001.95 3060.87 -481.425Z" stroke="white"/>
<path d="M3063.16 -467.734C3145.85 54.3138 3132.73 540.848 3044.71 905.443C3000.69 1087.74 2937.96 1239.53 2859.13 1350.03C2780.3 1460.52 2685.4 1529.7 2577.05 1546.86C2468.7 1564.02 2357.07 1527.56 2247.95 1446.83C2138.84 1366.1 2032.27 1241.13 1934.07 1081.35C1737.69 761.801 1574.87 303.132 1492.19 -218.915C1409.5 -740.963 1422.62 -1227.5 1510.64 -1592.09C1554.65 -1774.39 1617.39 -1926.18 1696.22 -2036.68C1775.05 -2147.17 1869.95 -2216.35 1978.3 -2233.51C2086.65 -2250.67 2198.28 -2214.21 2307.4 -2133.48C2416.51 -2052.75 2523.08 -1927.77 2621.28 -1768C2817.66 -1448.45 2980.48 -989.781 3063.16 -467.734Z" stroke="white"/>
<path d="M3065.21 -454.006C3138.78 69.4047 3117.17 555.636 3022.8 918.639C2975.61 1100.14 2910.24 1250.81 2829.49 1359.92C2748.74 1469.02 2652.65 1536.53 2544.02 1551.8C2435.39 1567.06 2324.41 1528.66 2216.72 1446.04C2109.02 1363.41 2004.65 1236.6 1909.26 1075.14C1718.49 752.209 1563.7 290.768 1490.14 -232.643C1416.58 -756.054 1438.18 -1242.29 1532.55 -1605.29C1579.74 -1786.79 1645.12 -1937.46 1725.86 -2046.57C1806.61 -2155.67 1902.7 -2223.18 2011.33 -2238.45C2119.97 -2253.71 2230.94 -2215.31 2338.63 -2132.69C2446.33 -2050.06 2550.7 -1923.25 2646.09 -1761.79C2836.86 -1438.86 2991.65 -977.417 3065.21 -454.006Z" stroke="white"/>
<path d="M3067.03 -440.244C3131.44 84.371 3101.36 570.152 3000.66 931.452C2950.31 1112.1 2882.32 1261.61 2799.68 1369.29C2717.04 1476.97 2619.78 1542.79 2510.9 1556.16C2402.02 1569.53 2291.73 1529.19 2185.5 1444.7C2079.26 1360.21 1977.12 1231.6 1884.56 1068.49C1699.45 742.284 1552.74 278.211 1488.32 -246.404C1423.91 -771.019 1454 -1256.8 1554.69 -1618.1C1605.04 -1798.75 1673.03 -1948.26 1755.67 -2055.94C1838.31 -2163.61 1935.57 -2229.44 2044.45 -2242.8C2153.33 -2256.17 2263.62 -2215.84 2369.85 -2131.35C2476.09 -2046.86 2578.23 -1918.24 2670.79 -1755.14C2855.9 -1428.93 3002.61 -964.859 3067.03 -440.244Z" stroke="white"/>
<path d="M3068.6 -426.454C3123.85 99.2052 3085.29 584.387 2978.3 943.875C2924.81 1123.62 2854.22 1271.92 2769.71 1378.14C2685.21 1484.36 2586.82 1548.47 2477.72 1559.94C2368.62 1571.4 2259.05 1529.15 2154.31 1442.82C2049.56 1356.49 1949.68 1226.11 1859.99 1061.41C1680.6 732.026 1542 265.464 1486.76 -260.196C1431.51 -785.855 1470.07 -1271.04 1577.05 -1630.52C1630.55 -1810.27 1701.14 -1958.57 1785.64 -2064.79C1870.15 -2171.01 1968.54 -2235.12 2077.64 -2246.59C2186.74 -2258.05 2296.31 -2215.8 2401.05 -2129.47C2505.79 -2043.14 2605.67 -1912.76 2695.37 -1748.06C2874.76 -1418.68 3013.35 -952.113 3068.6 -426.454Z" stroke="white"/>
<path d="M3069.93 -412.637C3115.99 113.907 3068.97 598.341 2955.73 955.908C2899.11 1134.69 2825.94 1281.73 2739.59 1386.46C2653.24 1491.19 2553.75 1553.58 2444.47 1563.14C2335.18 1572.7 2226.37 1528.54 2123.15 1440.4C2019.93 1352.25 1922.34 1220.15 1835.53 1053.91C1661.91 721.443 1531.49 252.533 1485.42 -274.011C1439.35 -800.554 1486.37 -1284.99 1599.62 -1642.55C1656.24 -1821.34 1729.41 -1968.38 1815.76 -2073.11C1902.1 -2177.84 2001.6 -2240.23 2110.88 -2249.79C2220.16 -2259.35 2328.98 -2215.19 2432.2 -2127.04C2535.42 -2038.9 2633.01 -1906.8 2719.82 -1740.56C2893.43 -1408.09 3023.86 -939.18 3069.93 -412.637Z" stroke="white"/>
<path d="M3069.93 -274.012C3023.86 252.532 2893.43 721.442 2719.82 1053.91C2633.01 1220.15 2535.42 1352.25 2432.2 1440.39C2328.98 1528.54 2220.16 1572.7 2110.88 1563.14C2001.6 1553.58 1902.11 1491.19 1815.76 1386.46C1729.41 1281.73 1656.24 1134.69 1599.62 955.906C1486.38 598.34 1439.36 113.905 1485.42 -412.638C1531.49 -939.182 1661.92 -1408.09 1835.53 -1740.56C1922.34 -1906.8 2019.93 -2038.9 2123.15 -2127.04C2226.37 -2215.19 2335.19 -2259.35 2444.47 -2249.79C2553.75 -2240.23 2653.25 -2177.84 2739.59 -2073.11C2825.94 -1968.38 2899.11 -1821.34 2955.73 -1642.56C3068.97 -1284.99 3115.99 -800.556 3069.93 -274.012Z" stroke="white"/>
<path d="M3068.6 -260.194C3013.35 265.465 2874.76 732.027 2695.37 1061.42C2605.67 1226.11 2505.79 1356.49 2401.04 1442.82C2296.3 1529.15 2186.73 1571.4 2077.63 1559.94C1968.54 1548.47 1870.15 1484.36 1785.64 1378.14C1701.14 1271.92 1630.54 1123.62 1577.05 943.876C1470.06 584.388 1431.5 99.2065 1486.75 -426.453C1542 -952.112 1680.59 -1418.67 1859.98 -1748.06C1949.68 -1912.76 2049.56 -2043.14 2154.31 -2129.47C2259.05 -2215.8 2368.62 -2258.05 2477.72 -2246.58C2586.81 -2235.12 2685.2 -2171 2769.71 -2064.79C2854.22 -1958.57 2924.81 -1810.27 2978.3 -1630.52C3085.29 -1271.03 3123.85 -785.854 3068.6 -260.194Z" stroke="white"/>
<path d="M3067.03 -246.405C3002.61 278.211 2855.9 742.283 2670.79 1068.49C2578.23 1231.6 2476.09 1360.21 2369.85 1444.7C2263.62 1529.19 2153.33 1569.52 2044.45 1556.16C1935.57 1542.79 1838.31 1476.97 1755.67 1369.29C1673.03 1261.61 1605.04 1112.1 1554.69 931.451C1453.99 570.151 1423.91 84.3702 1488.32 -440.245C1552.74 -964.86 1699.45 -1428.93 1884.56 -1755.14C1977.12 -1918.25 2079.26 -2046.86 2185.5 -2131.35C2291.73 -2215.84 2402.02 -2256.17 2510.9 -2242.8C2619.78 -2229.44 2717.04 -2163.62 2799.68 -2055.94C2882.32 -1948.26 2950.31 -1798.75 3000.66 -1618.1C3101.35 -1256.8 3131.44 -771.02 3067.03 -246.405Z" stroke="white"/>
<path d="M3065.22 -232.642C2991.65 290.769 2836.87 752.21 2646.09 1075.14C2550.7 1236.6 2446.33 1363.42 2338.63 1446.04C2230.94 1528.66 2119.97 1567.06 2011.33 1551.8C1902.7 1536.53 1806.61 1469.02 1725.86 1359.92C1645.12 1250.81 1579.74 1100.14 1532.55 918.641C1438.18 555.638 1416.58 69.4062 1490.14 -454.005C1563.7 -977.416 1718.49 -1438.86 1909.26 -1761.78C2004.65 -1923.25 2109.02 -2050.06 2216.72 -2132.68C2324.41 -2215.3 2435.39 -2253.71 2544.02 -2238.44C2652.65 -2223.18 2748.74 -2155.67 2829.49 -2046.57C2910.24 -1937.46 2975.61 -1786.79 3022.8 -1605.29C3117.17 -1242.28 3138.78 -756.053 3065.22 -232.642Z" stroke="white"/>
<path d="M3063.16 -218.914C2980.48 303.134 2817.66 761.803 2621.28 1081.35C2523.09 1241.13 2416.52 1366.1 2307.4 1446.83C2198.28 1527.56 2086.65 1564.02 1978.3 1546.86C1869.95 1529.7 1775.05 1460.53 1696.22 1350.03C1617.39 1239.53 1554.66 1087.74 1510.64 905.445C1422.62 540.85 1409.5 54.3157 1492.19 -467.732C1574.87 -989.779 1737.69 -1448.45 1934.08 -1768C2032.27 -1927.77 2138.84 -2052.75 2247.96 -2133.48C2357.07 -2214.2 2468.7 -2250.67 2577.05 -2233.51C2685.4 -2216.35 2780.3 -2147.17 2859.13 -2036.67C2937.96 -1926.18 3000.7 -1774.39 3044.71 -1592.09C3132.73 -1227.5 3145.85 -740.961 3063.16 -218.914Z" stroke="white"/>
<path d="M3060.87 -205.225C2969.09 315.3 2798.29 771.058 2596.36 1087.13C2495.4 1245.17 2386.66 1368.26 2276.15 1447.07C2165.64 1525.89 2053.39 1560.4 1945.36 1541.35C1837.32 1522.3 1743.65 1451.48 1666.76 1339.62C1589.87 1227.77 1529.79 1074.91 1488.97 891.867C1407.32 525.792 1402.7 39.1021 1494.48 -481.423C1586.26 -1001.95 1757.06 -1457.71 1958.99 -1773.78C2059.96 -1931.82 2168.69 -2054.91 2279.2 -2133.72C2389.71 -2212.53 2501.96 -2247.04 2609.99 -2227.99C2718.03 -2208.95 2811.71 -2138.13 2888.59 -2026.27C2965.48 -1914.41 3025.56 -1761.55 3066.39 -1578.51C3148.03 -1212.44 3152.66 -725.75 3060.87 -205.225Z" stroke="white"/>
<path d="M3058.34 -191.577C2957.49 327.267 2778.76 779.975 2571.35 1092.48C2467.64 1248.73 2356.77 1369.9 2244.9 1446.78C2133.04 1523.65 2020.2 1556.19 1912.52 1535.26C1804.83 1514.33 1712.4 1441.88 1637.48 1328.7C1562.55 1215.52 1505.15 1061.64 1467.53 877.915C1392.28 510.47 1396.16 23.774 1497.01 -495.07C1597.86 -1013.91 1776.59 -1466.62 1984 -1779.12C2087.71 -1935.37 2198.58 -2056.55 2310.45 -2133.42C2422.32 -2210.29 2535.15 -2242.84 2642.84 -2221.91C2750.52 -2200.98 2842.95 -2128.53 2917.87 -2015.35C2992.8 -1902.17 3050.2 -1748.28 3087.82 -1564.56C3163.07 -1197.12 3159.2 -710.421 3058.34 -191.577Z" stroke="white"/>
<path d="M3055.58 -177.977C2945.68 339.027 2759.08 788.547 2546.24 1097.38C2439.82 1251.8 2326.86 1371.02 2213.67 1445.93C2100.47 1520.84 1987.09 1551.41 1879.78 1528.6C1772.48 1505.79 1681.33 1431.75 1608.39 1317.28C1535.45 1202.8 1480.75 1047.94 1446.34 863.588C1377.51 494.886 1389.88 8.33172 1499.77 -508.673C1609.67 -1025.68 1796.27 -1475.2 2009.11 -1784.03C2115.53 -1938.45 2228.49 -2057.67 2341.68 -2132.58C2454.88 -2207.49 2568.26 -2238.06 2675.56 -2215.25C2782.87 -2192.44 2874.02 -2118.4 2946.95 -2003.93C3019.9 -1889.45 3074.6 -1734.59 3109.01 -1550.24C3177.84 -1181.54 3165.47 -694.982 3055.58 -177.977Z" stroke="white"/>
<path d="M3052.57 -164.426C2933.67 350.582 2739.25 796.777 2521.06 1101.85C2411.96 1254.38 2296.93 1371.62 2182.45 1444.54C2067.97 1517.46 1954.06 1546.05 1847.18 1521.37C1740.29 1496.69 1650.45 1421.07 1579.52 1305.34C1508.58 1189.61 1456.59 1033.82 1425.4 848.896C1363.02 479.049 1383.88 -7.21557 1502.78 -522.224C1621.68 -1037.23 1816.1 -1483.43 2034.29 -1788.5C2143.39 -1941.03 2258.42 -2058.27 2372.9 -2131.19C2487.38 -2204.11 2601.29 -2232.7 2708.17 -2208.02C2815.06 -2183.34 2904.91 -2107.72 2975.83 -1991.99C3046.77 -1876.26 3098.76 -1720.47 3129.95 -1535.54C3192.33 -1165.7 3171.47 -679.434 3052.57 -164.426Z" stroke="white"/>
<path d="M3049.33 -150.929C2921.46 361.925 2719.29 804.659 2495.8 1105.88C2384.06 1256.49 2267 1371.69 2151.26 1442.61C2035.52 1513.52 1921.14 1540.11 1814.7 1513.57C1708.26 1487.04 1619.75 1409.85 1550.85 1292.91C1481.95 1175.96 1432.68 1019.28 1404.72 833.84C1348.81 462.961 1378.15 -22.8654 1506.02 -535.72C1633.89 -1048.57 1836.06 -1491.31 2059.55 -1792.52C2171.29 -1943.13 2288.35 -2058.34 2404.09 -2129.26C2519.83 -2200.17 2634.21 -2226.76 2740.65 -2200.22C2847.09 -2173.68 2935.6 -2096.5 3004.5 -1979.56C3073.4 -1862.61 3122.67 -1705.93 3150.63 -1520.49C3206.54 -1149.61 3177.2 -663.784 3049.33 -150.929Z" stroke="white"/>
<path d="M3045.86 -137.49C2909.06 373.054 2699.18 812.192 2470.47 1109.46C2356.12 1258.1 2237.07 1371.25 2120.11 1440.13C2003.15 1509.01 1888.32 1533.6 1782.36 1505.21C1676.4 1476.82 1589.25 1398.1 1522.4 1279.97C1455.55 1161.84 1409.03 1004.33 1384.31 818.426C1334.88 446.628 1372.69 -38.6124 1509.49 -549.157C1646.29 -1059.7 1856.17 -1498.84 2084.87 -1796.11C2199.23 -1944.75 2318.28 -2057.9 2435.24 -2126.78C2552.2 -2195.66 2667.03 -2220.25 2772.99 -2191.86C2878.95 -2163.47 2966.1 -2084.75 3032.95 -1966.62C3099.8 -1848.49 3146.32 -1690.97 3171.04 -1505.07C3220.47 -1133.28 3182.66 -648.035 3045.86 -137.49Z" stroke="white"/>
<path d="M3042.15 -124.117C2896.46 383.963 2678.96 819.371 2445.09 1112.6C2328.16 1259.22 2207.16 1370.28 2089.01 1437.11C1970.87 1503.93 1855.63 1526.52 1750.18 1496.28C1644.73 1466.05 1558.97 1385.82 1494.19 1266.54C1429.41 1147.26 1385.64 988.96 1364.17 802.656C1321.24 430.052 1367.52 -54.4545 1513.21 -562.534C1658.89 -1070.61 1876.4 -1506.02 2110.26 -1799.26C2227.19 -1945.87 2348.2 -2056.93 2466.34 -2123.76C2584.48 -2190.59 2699.73 -2213.17 2805.18 -2182.94C2910.63 -2152.7 2996.39 -2072.47 3061.16 -1953.19C3125.94 -1833.91 3169.71 -1675.61 3191.18 -1489.31C3234.12 -1116.7 3187.84 -632.196 3042.15 -124.117Z" stroke="white"/>
<path d="M3038.21 -110.808C2883.67 394.652 2658.6 826.197 2419.66 1115.31C2300.19 1259.86 2177.26 1368.79 2057.97 1433.54C1938.68 1498.3 1823.06 1518.87 1718.15 1486.8C1613.25 1454.73 1528.9 1373.02 1466.21 1252.63C1403.53 1132.23 1362.53 973.189 1344.31 786.54C1307.89 413.242 1362.61 -70.3825 1517.15 -575.842C1671.68 -1081.3 1896.75 -1512.85 2135.7 -1801.95C2255.17 -1946.51 2378.09 -2055.43 2497.39 -2120.19C2616.68 -2184.95 2732.3 -2205.52 2837.2 -2173.45C2942.11 -2141.38 3026.46 -2059.67 3089.14 -1939.27C3151.83 -1818.88 3192.83 -1659.84 3211.04 -1473.19C3247.47 -1099.89 3192.74 -616.267 3038.21 -110.808Z" stroke="white"/>
<path d="M3034.03 -97.5699C2870.7 405.116 2638.13 832.668 2394.18 1117.56C2272.2 1260.01 2147.39 1366.77 2026.99 1429.44C1906.59 1492.1 1790.63 1510.65 1686.3 1476.75C1581.97 1442.86 1499.06 1359.69 1438.48 1238.22C1377.91 1116.75 1339.69 957.017 1324.74 770.078C1294.83 396.202 1357.99 -86.394 1521.32 -589.079C1684.65 -1091.76 1917.22 -1519.32 2161.17 -1804.21C2283.15 -1946.66 2407.96 -2053.42 2528.36 -2116.09C2648.76 -2178.75 2764.72 -2197.3 2869.06 -2163.4C2973.39 -2129.51 3056.3 -2046.34 3116.87 -1924.87C3177.44 -1803.4 3215.66 -1643.67 3230.62 -1456.73C3260.52 -1082.85 3197.36 -600.255 3034.03 -97.5699Z" stroke="white"/>
<path d="M3029.63 -84.4078C2857.55 415.351 2617.55 838.779 2368.67 1119.37C2244.22 1259.67 2117.57 1364.24 1996.09 1424.79C1874.61 1485.35 1758.35 1501.87 1654.62 1466.16C1550.9 1430.44 1469.45 1345.84 1411.01 1223.33C1352.56 1100.82 1317.14 940.449 1305.45 753.277C1282.07 378.936 1353.64 -102.485 1525.73 -602.243C1697.81 -1102 1937.8 -1525.43 2186.69 -1806.02C2311.13 -1946.32 2437.78 -2050.89 2559.26 -2111.44C2680.74 -2172 2797.01 -2188.52 2900.73 -2152.81C3004.45 -2117.09 3085.9 -2032.49 3144.34 -1909.98C3202.79 -1787.48 3238.21 -1627.1 3249.9 -1439.93C3273.28 -1065.59 3201.71 -584.166 3029.63 -84.4078Z" stroke="white"/>
<path d="M3024.99 -71.3244C2844.22 425.355 2596.87 844.53 2343.12 1120.74C2216.25 1258.84 2087.79 1361.18 1965.27 1419.61C1842.76 1478.03 1726.22 1492.53 1623.14 1455.01C1520.05 1417.49 1440.1 1331.48 1383.8 1207.97C1327.5 1084.46 1294.88 923.489 1286.46 736.142C1269.62 361.45 1349.58 -118.648 1530.36 -615.327C1711.13 -1112.01 1958.48 -1531.18 2212.23 -1807.39C2339.1 -1945.49 2467.56 -2047.83 2590.08 -2106.26C2712.59 -2164.68 2829.13 -2179.18 2932.22 -2141.66C3035.3 -2104.14 3115.26 -2018.13 3171.55 -1894.62C3227.85 -1771.11 3260.47 -1610.14 3268.89 -1422.79C3285.73 -1048.1 3205.77 -568.003 3024.99 -71.3244Z" stroke="white"/>
<path d="M3020.13 -58.3216C2830.72 435.127 2576.09 849.921 2317.56 1121.66C2188.3 1257.53 2058.07 1357.61 1934.55 1413.89C1811.04 1470.17 1694.27 1482.62 1591.85 1443.31C1489.44 1404 1410.99 1316.6 1356.86 1192.13C1302.73 1067.66 1272.92 906.146 1267.77 718.68C1257.47 343.751 1345.8 -134.878 1535.22 -628.327C1724.64 -1121.78 1979.26 -1536.57 2237.79 -1808.31C2367.06 -1944.17 2497.28 -2044.26 2620.8 -2100.54C2744.32 -2156.81 2861.09 -2169.27 2963.5 -2129.96C3065.91 -2090.65 3144.36 -2003.25 3198.49 -1878.78C3252.63 -1754.31 3282.43 -1592.79 3287.58 -1405.33C3297.88 -1030.4 3209.55 -551.77 3020.13 -58.3216Z" stroke="white"/>
<path d="M3015.05 -45.4072C2817.05 444.66 2555.22 854.948 2291.99 1122.13C2160.37 1255.72 2028.42 1353.52 1903.94 1407.63C1779.46 1461.75 1662.49 1472.16 1560.77 1431.07C1459.06 1389.98 1382.16 1301.23 1330.2 1175.83C1278.25 1050.43 1251.27 888.42 1249.39 700.893C1245.64 325.842 1342.31 -151.173 1540.31 -641.241C1738.31 -1131.31 2000.13 -1541.6 2263.36 -1808.78C2394.98 -1942.37 2526.93 -2040.17 2651.41 -2094.28C2775.89 -2148.39 2892.87 -2158.81 2994.58 -2117.72C3096.29 -2076.62 3173.2 -1987.87 3225.15 -1862.48C3277.1 -1737.08 3304.09 -1575.07 3305.96 -1387.54C3309.72 -1012.49 3213.05 -535.475 3015.05 -45.4072Z" stroke="white"/>
<path d="M3009.73 -32.5819C2803.21 453.955 2534.26 859.611 2266.41 1122.16C2132.48 1253.43 1998.84 1348.91 1873.43 1400.85C1748.03 1452.78 1630.89 1461.15 1529.91 1418.29C1428.93 1375.43 1353.59 1285.35 1303.83 1159.06C1254.07 1032.78 1229.92 870.321 1231.32 682.79C1234.11 307.73 1339.09 -167.525 1545.61 -654.063C1752.14 -1140.6 2021.08 -1546.26 2288.94 -1808.8C2422.87 -1940.08 2556.5 -2035.56 2681.91 -2087.49C2807.32 -2139.42 2924.45 -2147.8 3025.43 -2104.93C3126.41 -2062.07 3201.76 -1971.99 3251.51 -1845.71C3301.27 -1719.42 3325.42 -1556.97 3324.03 -1369.43C3321.23 -994.374 3216.25 -519.119 3009.73 -32.5819Z" stroke="white"/>
<path d="M3004.2 -19.855C2789.22 463.004 2513.23 863.904 2240.84 1121.74C2104.64 1250.65 1969.35 1343.79 1843.06 1393.52C1716.77 1443.26 1599.5 1449.59 1499.28 1404.97C1399.07 1360.35 1325.31 1268.97 1277.76 1141.84C1230.22 1014.7 1208.9 851.848 1213.57 664.37C1222.91 289.416 1336.17 -183.934 1551.15 -666.793C1766.13 -1149.65 2042.12 -1550.55 2314.51 -1808.38C2450.71 -1937.3 2586 -2030.43 2712.29 -2080.17C2838.58 -2129.91 2955.85 -2136.24 3056.07 -2091.62C3156.28 -2047 3230.04 -1955.62 3277.59 -1828.49C3325.13 -1701.35 3346.45 -1538.5 3341.78 -1351.02C3332.44 -976.064 3219.18 -502.714 3004.2 -19.855Z" stroke="white"/>
<path d="M2998.44 -7.223C2775.07 471.81 2492.13 867.833 2215.27 1120.87C2076.84 1247.39 1939.96 1338.15 1812.81 1385.68C1685.67 1433.2 1568.31 1437.48 1468.89 1391.12C1369.47 1344.76 1297.31 1252.11 1251.99 1124.16C1206.67 996.216 1188.21 833.015 1196.15 645.647C1212.03 270.913 1333.53 -200.389 1556.91 -679.422C1780.28 -1158.46 2063.22 -1554.48 2340.08 -1807.52C2478.51 -1934.04 2615.4 -2024.79 2742.54 -2072.32C2869.68 -2119.84 2987.04 -2124.13 3086.46 -2077.76C3185.88 -2031.4 3258.04 -1938.75 3303.36 -1810.81C3348.68 -1682.86 3367.14 -1519.66 3359.2 -1332.29C3343.32 -957.558 3221.82 -486.256 2998.44 -7.223Z" stroke="white"/>
<path d="M2992.47 5.30338C2760.76 480.365 2470.96 871.389 2189.73 1119.56C2049.11 1243.64 1910.66 1332 1782.71 1377.3C1654.76 1422.6 1537.34 1424.83 1438.74 1376.74C1340.15 1328.65 1269.62 1234.75 1226.54 1106.04C1183.46 977.319 1167.84 813.821 1179.05 626.62C1201.47 252.22 1331.18 -216.889 1562.88 -691.951C1794.59 -1167.01 2084.39 -1558.04 2365.62 -1806.21C2506.24 -1930.29 2644.69 -2018.65 2772.64 -2063.95C2900.59 -2109.24 3018.01 -2111.48 3116.61 -2063.39C3215.2 -2015.3 3285.73 -1921.4 3328.81 -1792.68C3371.89 -1663.97 3387.51 -1500.47 3376.3 -1313.27C3353.88 -938.868 3224.17 -469.759 2992.47 5.30338Z" stroke="white"/>
<path d="M2986.27 17.726C2746.31 488.672 2449.73 874.578 2164.21 1117.8C2021.45 1239.41 1881.48 1325.34 1752.75 1368.4C1624.03 1411.46 1506.6 1411.64 1408.85 1361.84C1311.11 1312.03 1242.23 1216.92 1201.4 1087.47C1160.58 958.022 1147.82 794.276 1162.29 607.299C1191.24 233.348 1329.12 -233.427 1569.08 -704.372C1809.03 -1175.32 2105.62 -1561.22 2391.14 -1804.45C2533.9 -1926.06 2673.87 -2011.98 2802.6 -2055.04C2931.32 -2098.1 3048.75 -2098.29 3146.5 -2048.48C3244.24 -1998.68 3313.12 -1903.57 3353.94 -1774.12C3394.77 -1644.67 3407.53 -1480.92 3393.06 -1293.95C3364.11 -919.994 3226.23 -453.22 2986.27 17.726Z" stroke="white"/>
<path d="M2979.87 30.0385C2731.72 496.725 2428.45 877.396 2138.73 1115.6C1993.87 1234.7 1852.42 1318.17 1722.96 1358.98C1593.51 1399.78 1476.09 1397.91 1379.23 1346.41C1282.37 1294.91 1215.16 1198.61 1176.6 1068.47C1138.04 938.328 1128.14 774.385 1145.87 587.689C1181.34 214.3 1327.34 -249.997 1575.49 -716.683C1823.63 -1183.37 2126.9 -1564.04 2416.62 -1802.24C2561.48 -1921.35 2702.93 -2004.82 2832.39 -2045.62C2961.84 -2086.43 3079.27 -2084.56 3176.12 -2033.06C3272.98 -1981.56 3340.19 -1885.26 3378.75 -1755.12C3417.31 -1624.97 3427.21 -1461.03 3409.48 -1274.33C3374.01 -900.945 3228.01 -436.648 2979.87 30.0385Z" stroke="white"/>
<path d="M2973.24 42.2358C2716.99 504.52 2407.12 879.841 2113.29 1112.95C1966.37 1229.51 1823.48 1310.49 1693.34 1349.04C1563.19 1387.57 1445.82 1383.66 1349.87 1330.48C1253.93 1277.29 1188.41 1179.83 1152.13 1049.04C1115.84 918.243 1108.81 754.152 1129.8 567.794C1171.78 195.081 1325.86 -266.598 1582.11 -728.882C1838.36 -1191.17 2148.23 -1566.49 2442.06 -1799.6C2588.98 -1916.15 2731.87 -1997.14 2862.02 -2035.68C2992.16 -2074.22 3109.53 -2070.31 3205.48 -2017.12C3301.42 -1963.94 3366.94 -1866.48 3403.22 -1735.68C3439.51 -1604.89 3446.55 -1440.8 3425.55 -1254.44C3383.57 -881.727 3229.49 -420.049 2973.24 42.2358Z" stroke="white"/>
<path d="M2966.41 54.3169C2702.13 512.059 2385.75 881.914 2087.9 1109.86C1938.97 1223.84 1794.69 1302.32 1663.89 1338.58C1533.09 1374.84 1415.81 1368.88 1320.8 1314.03C1225.8 1259.18 1161.99 1160.59 1128 1029.18C1094 897.774 1089.83 733.586 1114.07 547.623C1162.55 175.699 1324.67 -283.22 1588.94 -740.962C1853.22 -1198.7 2169.6 -1568.56 2467.45 -1796.51C2616.38 -1910.48 2760.66 -1988.96 2891.46 -2025.23C3022.26 -2061.49 3139.55 -2055.52 3234.55 -2000.67C3329.55 -1945.82 3393.36 -1847.24 3427.35 -1715.83C3461.35 -1584.42 3465.52 -1420.23 3441.28 -1234.27C3392.8 -862.344 3230.69 -403.425 2966.41 54.3169Z" stroke="white"/>
<path d="M2959.36 66.2769C2687.14 519.337 2364.35 883.615 2062.56 1106.33C1911.67 1217.69 1766.04 1293.64 1634.63 1327.61C1503.22 1361.59 1386.05 1353.58 1292.02 1297.08C1197.99 1240.58 1135.92 1140.89 1104.22 1008.91C1072.52 876.928 1071.22 712.691 1098.7 527.18C1153.66 156.158 1323.76 -299.861 1595.99 -752.921C1868.21 -1205.98 2191 -1570.26 2492.79 -1792.97C2643.68 -1904.33 2789.31 -1980.28 2920.72 -2014.26C3052.13 -2048.23 3169.3 -2040.22 3263.33 -1983.72C3357.36 -1927.22 3419.43 -1827.53 3451.13 -1695.55C3482.83 -1563.57 3484.13 -1399.34 3456.65 -1213.82C3401.69 -842.802 3231.59 -386.783 2959.36 66.2769Z" stroke="white"/>
<path d="M2952.11 78.1087C2672.02 526.349 2342.93 884.938 2037.3 1102.35C1884.48 1211.06 1737.55 1284.46 1605.56 1316.13C1473.58 1347.81 1356.57 1337.75 1263.54 1279.62C1170.51 1221.49 1110.19 1120.73 1080.8 988.222C1051.41 855.706 1052.97 691.472 1083.68 506.468C1145.12 136.463 1323.15 -316.519 1603.24 -764.759C1883.33 -1213 2212.42 -1571.59 2518.05 -1789C2670.87 -1897.71 2817.8 -1971.11 2949.78 -2002.78C3081.77 -2034.46 3198.77 -2024.4 3291.8 -1966.27C3384.84 -1908.14 3445.16 -1807.38 3474.55 -1674.87C3503.94 -1542.36 3502.38 -1378.12 3471.66 -1193.12C3410.23 -823.113 3232.2 -370.131 2952.11 78.1087Z" stroke="white"/>
<path d="M2944.65 89.8147C2656.78 533.098 2321.48 885.889 2012.1 1097.93C1857.41 1203.96 1709.23 1274.78 1576.71 1304.15C1444.19 1333.52 1327.38 1321.42 1235.38 1261.68C1143.37 1201.93 1084.82 1100.14 1057.74 967.13C1030.67 834.122 1035.1 669.94 1069.04 485.5C1136.92 116.623 1322.83 -333.182 1610.7 -776.465C1898.57 -1219.75 2233.87 -1572.54 2543.25 -1784.59C2697.94 -1890.61 2846.13 -1961.43 2978.65 -1990.8C3111.16 -2020.17 3227.97 -2008.07 3319.98 -1948.33C3411.98 -1888.58 3470.54 -1786.79 3497.61 -1653.78C3524.68 -1520.77 3520.26 -1356.59 3486.32 -1172.15C3418.44 -803.274 3232.53 -353.469 2944.65 89.8147Z" stroke="white"/>
<path d="M2936.99 101.391C2641.43 539.583 2300.02 886.468 1986.99 1093.08C1830.48 1196.39 1681.07 1264.62 1548.06 1291.67C1415.05 1318.72 1298.47 1304.59 1207.52 1243.24C1116.58 1181.9 1059.81 1079.1 1035.06 945.642C1010.31 812.181 1017.6 648.101 1054.76 464.282C1129.06 96.646 1322.8 -349.846 1618.36 -788.038C1913.92 -1226.23 2255.33 -1573.12 2568.36 -1779.73C2724.88 -1883.04 2874.28 -1951.26 3007.29 -1978.31C3140.3 -2005.36 3256.88 -1991.23 3347.83 -1929.89C3438.77 -1868.55 3495.55 -1765.75 3520.29 -1632.29C3545.04 -1498.83 3537.75 -1334.75 3500.6 -1150.93C3426.29 -783.293 3232.56 -336.801 2936.99 101.391Z" stroke="white"/>
<path d="M2929.13 112.83C2625.96 545.797 2278.55 886.671 1961.96 1087.79C1803.67 1188.35 1653.1 1253.96 1519.64 1278.68C1386.17 1303.41 1269.86 1287.25 1180 1224.32C1090.13 1161.4 1035.16 1057.63 1012.75 923.759C990.337 789.887 1000.49 625.959 1040.85 442.816C1121.56 76.5332 1323.05 -366.51 1626.22 -799.477C1929.39 -1232.44 2276.8 -1573.32 2593.38 -1774.44C2751.68 -1875 2902.25 -1940.61 3035.71 -1965.33C3169.18 -1990.06 3285.49 -1973.89 3375.35 -1910.97C3465.21 -1848.05 3520.19 -1744.28 3542.6 -1610.41C3565.01 -1476.53 3554.86 -1312.61 3514.5 -1129.46C3433.79 -763.18 3232.3 -320.137 2929.13 112.83Z" stroke="white"/>
<path d="M2921.07 124.128C2610.39 551.738 2257.09 886.497 1937.04 1082.06C1777.01 1179.84 1625.32 1242.81 1491.45 1265.21C1357.57 1287.6 1241.55 1269.41 1152.81 1204.93C1064.06 1140.45 1010.91 1035.73 990.832 901.488C970.758 767.245 983.771 603.52 1027.32 421.11C1114.41 56.2906 1323.61 -383.169 1634.28 -810.778C1944.96 -1238.39 2298.26 -1573.15 2618.31 -1768.71C2778.34 -1866.49 2930.03 -1929.46 3063.91 -1951.86C3197.78 -1974.25 3313.8 -1956.06 3402.55 -1891.58C3491.3 -1827.1 3544.45 -1722.38 3564.52 -1588.14C3584.6 -1453.9 3571.58 -1290.17 3528.04 -1107.76C3440.95 -742.941 3231.75 -303.482 2921.07 124.128Z" stroke="white"/>
<path d="M2912.81 135.287C2594.72 557.41 2235.63 885.952 1912.21 1075.9C1750.5 1170.88 1597.74 1231.19 1463.49 1251.24C1329.25 1271.29 1213.56 1251.08 1125.95 1185.06C1038.34 1119.04 987.029 1013.41 969.301 878.842C951.573 744.269 967.442 580.796 1014.16 399.173C1107.61 35.9294 1324.44 -399.812 1642.54 -821.935C1960.63 -1244.06 2319.72 -1572.6 2643.14 -1762.55C2804.85 -1857.52 2957.61 -1917.84 3091.86 -1937.89C3226.1 -1957.94 3341.79 -1937.73 3429.4 -1871.71C3517.01 -1805.69 3568.32 -1700.06 3586.05 -1565.49C3603.78 -1430.92 3587.91 -1267.44 3541.19 -1085.82C3447.74 -722.576 3230.91 -286.835 2912.81 135.287Z" stroke="white"/>
<path d="M2904.36 146.297C2578.95 562.803 2214.18 885.028 1887.5 1069.3C1724.16 1161.44 1570.36 1219.08 1435.79 1236.79C1301.21 1254.49 1185.9 1232.26 1099.46 1164.73C1013.01 1097.19 963.548 990.678 948.171 855.819C932.795 720.957 951.514 557.786 1001.4 377.006C1101.17 15.4486 1325.58 -416.442 1650.99 -832.949C1976.4 -1249.46 2341.17 -1571.68 2667.85 -1755.96C2831.19 -1848.09 2984.99 -1905.73 3119.56 -1923.44C3254.14 -1941.14 3369.45 -1918.92 3455.89 -1851.38C3542.34 -1783.84 3591.8 -1677.33 3607.18 -1542.47C3622.56 -1407.61 3603.84 -1244.44 3553.95 -1063.66C3454.18 -702.101 3229.78 -270.21 2904.36 146.297Z" stroke="white"/>
<path d="M2895.72 157.162C2563.09 567.926 2192.75 883.736 1862.91 1062.28C1697.98 1151.56 1543.2 1206.5 1408.34 1221.85C1273.48 1237.21 1158.57 1212.97 1073.32 1143.94C988.065 1074.9 940.467 967.543 927.446 832.436C914.426 697.326 935.99 534.506 989.022 354.624C1095.09 -5.13642 1327 -433.045 1659.63 -843.809C1992.26 -1254.57 2362.6 -1570.38 2692.45 -1748.93C2857.37 -1838.2 3012.15 -1893.15 3147.01 -1908.5C3281.88 -1923.86 3396.78 -1899.62 3482.03 -1830.58C3567.29 -1761.55 3614.89 -1654.19 3627.91 -1519.08C3640.93 -1383.97 3619.36 -1221.15 3566.33 -1041.27C3460.26 -681.511 3228.35 -253.603 2895.72 157.162Z" stroke="white"/>
<path d="M2886.89 167.873C2547.15 572.77 2171.35 882.068 1838.44 1054.83C1671.98 1141.21 1516.27 1193.45 1381.15 1206.45C1246.04 1219.44 1131.58 1193.21 1047.54 1122.69C963.508 1052.18 917.791 944.007 907.13 808.693C896.47 673.377 920.872 510.958 977.036 332.03C1089.36 -25.8255 1328.71 -449.621 1668.46 -854.518C2008.2 -1259.41 2384 -1568.71 2716.91 -1741.47C2883.37 -1827.86 3039.08 -1880.09 3174.2 -1893.09C3309.3 -1906.09 3423.77 -1879.85 3507.81 -1809.34C3591.84 -1738.82 3637.56 -1630.65 3648.22 -1495.34C3658.88 -1360.02 3634.48 -1197.6 3578.31 -1018.67C3465.99 -660.819 3226.64 -237.023 2886.89 167.873Z" stroke="white"/>
<path d="M2877.88 178.429C2531.12 577.334 2149.98 880.027 1814.1 1046.95C1646.16 1130.42 1489.56 1179.93 1354.24 1190.56C1218.93 1201.2 1104.94 1172.97 1022.14 1101C939.353 1029.03 895.53 920.078 887.233 784.599C878.935 649.117 906.168 487.149 965.447 309.228C1084 -46.612 1330.71 -466.166 1677.47 -865.072C2024.23 -1263.98 2405.37 -1566.67 2741.25 -1733.6C2909.19 -1817.06 3065.79 -1866.57 3201.11 -1877.21C3336.42 -1887.85 3450.41 -1859.61 3533.2 -1787.64C3615.99 -1715.67 3659.82 -1606.72 3668.11 -1471.24C3676.41 -1335.76 3649.18 -1173.79 3589.9 -995.871C3471.34 -640.031 3224.64 -220.477 2877.88 178.429Z" stroke="white"/>
<path d="M2868.68 188.822C2515.01 581.615 2128.65 877.61 1789.91 1038.65C1620.54 1119.17 1463.1 1165.94 1327.62 1174.21C1192.14 1182.49 1078.65 1152.27 997.132 1078.87C915.609 1005.46 873.695 895.762 867.763 760.159C861.831 624.553 891.887 463.085 954.262 286.225C1079.01 -67.4915 1333 -482.676 1686.67 -875.469C2040.34 -1268.26 2426.7 -1564.26 2765.44 -1725.29C2934.81 -1805.81 3092.26 -1852.58 3227.74 -1860.86C3363.22 -1869.13 3476.7 -1838.92 3558.22 -1765.51C3639.74 -1692.11 3681.66 -1582.41 3687.59 -1446.81C3693.52 -1311.2 3663.47 -1149.73 3601.09 -972.872C3476.34 -619.155 3222.36 -203.971 2868.68 188.822Z" stroke="white"/>
<path d="M2859.31 199.052C2498.83 585.613 2107.36 874.819 1765.87 1029.92C1595.12 1107.47 1436.88 1151.49 1301.27 1157.4C1165.67 1163.31 1052.73 1131.11 972.504 1056.3C892.275 981.483 852.282 871.067 848.718 735.381C845.154 599.692 878.023 438.773 943.474 263.029C1074.38 -88.4567 1335.57 -499.145 1696.05 -885.706C2056.52 -1272.27 2447.99 -1561.47 2789.49 -1716.58C2960.24 -1794.13 3118.47 -1838.14 3254.08 -1844.05C3389.68 -1849.96 3502.62 -1817.77 3582.85 -1742.95C3663.08 -1668.14 3703.07 -1557.72 3706.63 -1422.03C3710.2 -1286.35 3677.33 -1125.43 3611.88 -949.683C3480.97 -598.197 3219.78 -187.508 2859.31 199.052Z" stroke="white"/>
<path d="M2849.75 209.122C2482.59 589.333 2086.13 871.663 1741.98 1020.78C1569.9 1095.34 1410.92 1136.59 1275.23 1140.13C1139.55 1143.67 1027.19 1109.51 948.278 1033.31C869.367 957.104 831.307 846.007 830.111 710.28C828.916 574.549 864.588 414.228 933.097 239.654C1070.11 -109.494 1338.44 -515.562 1705.6 -895.772C2072.77 -1275.98 2469.22 -1558.31 2813.38 -1707.43C2985.45 -1781.99 3144.43 -1823.24 3280.12 -1826.78C3415.81 -1830.32 3528.17 -1796.16 3607.08 -1719.96C3685.99 -1643.75 3724.05 -1532.66 3725.24 -1396.93C3726.44 -1261.2 3690.77 -1100.88 3622.26 -926.304C3485.24 -577.156 3216.92 -171.088 2849.75 209.122Z" stroke="white"/>
<path d="M2840.02 219.022C2466.28 592.766 2064.96 868.135 1718.25 1011.22C1544.9 1082.77 1385.23 1121.23 1249.5 1122.41C1113.77 1123.58 1002.02 1087.47 924.454 1009.9C846.885 932.327 810.769 820.583 811.942 684.855C813.116 549.125 851.581 389.451 923.126 216.098C1066.22 -130.605 1341.58 -531.928 1715.33 -905.673C2089.07 -1279.42 2490.4 -1554.79 2837.1 -1697.88C3010.45 -1769.42 3170.13 -1807.89 3305.86 -1809.06C3441.58 -1810.23 3553.33 -1774.12 3630.9 -1696.55C3708.47 -1618.98 3744.58 -1507.23 3743.41 -1371.51C3742.24 -1235.78 3703.77 -1076.1 3632.23 -902.749C3489.14 -556.046 3213.77 -154.723 2840.02 219.022Z" stroke="white"/>
<g opacity="0.3" filter="url(#filter0_f_2_3926)">
<ellipse cx="1208.5" cy="610" rx="230.5" ry="233" fill="#A6DEA4"/>
</g>
</g>
<defs>
<filter id="filter0_f_2_3926" x="714" y="113" width="989" height="994" filterUnits="userSpaceOnUse" color-interpolation-filters="sRGB">
<feFlood flood-opacity="0" result="BackgroundImageFix"/>
<feBlend mode="normal" in="SourceGraphic" in2="BackgroundImageFix" result="shape"/>
<feGaussianBlur stdDeviation="132" result="effect1_foregroundBlur_2_3926"/>
</filter>
<clipPath id="clip0_2_3926">
<rect width="1320" height="2752" rx="18" fill="white"/>
</clipPath>
</defs>
</svg>
